<?xml version="1.0" encoding="utf-8"?>
<svg id="Layer_1" data-name="Layer 1" xmlns="http://www.w3.org/2000/svg" viewBox="0 0 1430.01 637.97"><defs><style>.cls-1{fill:#283996;}.cls-2,.cls-3,.cls-4,.cls-5{fill:none;}.cls-2,.cls-4,.cls-5{stroke:#b2e3fa;}.cls-2,.cls-5{stroke-miterlimit:10;}.cls-4{stroke-linejoin:round;}.cls-5{stroke-width:1.09px;}</style></defs><title>single-post-subscribe</title><rect class="cls-1" width="1430.01" height="637.97"/><line class="cls-2" x1="116.27" y1="314.36" x2="180.8" y2="314.36"/><line class="cls-2" x1="209.43" y1="556.39" x2="421.25" y2="556.39"/><line class="cls-2" x1="140.23" y1="528.58" x2="184.43" y2="528.58"/><rect class="cls-2" x="148.53" y="71.09" width="92.96" height="59.03" rx="7.46"/><line class="cls-2" x1="209.19" y1="72.68" x2="209.19" y2="130.12"/><line class="cls-2" x1="241.49" y1="100.6" x2="209.19" y2="100.6"/><path class="cls-2" d="M219.71,105.69H202.22a5.64,5.64,0,0,1-5.64-5.64h0a5.64,5.64,0,0,1,5.64-5.63h17.49a5.63,5.63,0,0,1,5.63,5.63h0A5.63,5.63,0,0,1,219.71,105.69Z"/><path class="cls-2" d="M148.53,101.4H98.69a18.83,18.83,0,0,0-18.83,18.83v92a18.83,18.83,0,0,0,18.83,18.83h246"/><polygon class="cls-3" points="707.11 338.7 729.57 338.7 718.34 314.36 707.11 338.7"/><polygon class="cls-2" points="217.22 511.21 196.59 490.57 217.22 447.35 237.85 490.57 217.22 511.21"/><line class="cls-2" x1="217.22" y1="447.35" x2="217.22" y2="479.28"/><path class="cls-2" d="M222,484.08a4.8,4.8,0,1,1-4.8-4.8A4.79,4.79,0,0,1,222,484.08Z"/><rect class="cls-2" x="205.35" y="502.07" width="23.73" height="20.98"/><line class="cls-2" x1="205.35" y1="512.56" x2="229.08" y2="512.56"/><polygon class="cls-2" points="934.01 102.86 913.38 82.23 934.01 39 954.65 82.23 934.01 102.86"/><line class="cls-2" x1="934.01" y1="39" x2="934.01" y2="70.93"/><path class="cls-2" d="M938.81,75.73a4.8,4.8,0,1,1-4.8-4.8A4.8,4.8,0,0,1,938.81,75.73Z"/><rect class="cls-2" x="922.15" y="93.72" width="23.73" height="20.98"/><line class="cls-2" x1="922.15" y1="104.21" x2="945.88" y2="104.21"/><path class="cls-2" d="M102.23,424.11h0a13,13,0,0,1-13-13V345.3h26v65.82A13,13,0,0,1,102.23,424.11Z"/><line class="cls-2" x1="89.24" y1="357.86" x2="115.22" y2="357.86"/><line class="cls-2" x1="89.24" y1="372.15" x2="115.22" y2="372.15"/><line class="cls-2" x1="89.24" y1="386.44" x2="115.22" y2="386.44"/><line class="cls-2" x1="89.24" y1="400.73" x2="115.22" y2="400.73"/><path class="cls-2" d="M97.41,423.44h0a13,13,0,0,1-7.55-16.75l23.28-61.56,24.3,9.19-23.28,61.56A13,13,0,0,1,97.41,423.44Z"/><line class="cls-2" x1="108.69" y1="356.87" x2="133" y2="366.06"/><line class="cls-2" x1="103.64" y1="370.24" x2="127.94" y2="379.43"/><line class="cls-2" x1="98.59" y1="383.61" x2="122.89" y2="392.79"/><line class="cls-2" x1="93.53" y1="396.97" x2="117.83" y2="406.16"/><path class="cls-2" d="M93.76,421.72h0a13,13,0,0,1-2-18.27L133,352.17l20.25,16.28L112,419.74A13,13,0,0,1,93.76,421.72Z"/><line class="cls-2" x1="125.16" y1="361.95" x2="145.41" y2="378.24"/><line class="cls-2" x1="116.21" y1="373.09" x2="136.45" y2="389.37"/><line class="cls-2" x1="107.25" y1="384.22" x2="127.49" y2="400.5"/><line class="cls-2" x1="98.29" y1="395.36" x2="118.54" y2="411.64"/><path class="cls-2" d="M89.12,415h0a13,13,0,0,1,9.48-15.74l63.88-15.85,6.26,25.22-63.88,15.85A13,13,0,0,1,89.12,415Z"/><line class="cls-2" x1="150.3" y1="386.44" x2="156.55" y2="411.65"/><line class="cls-2" x1="136.43" y1="389.88" x2="142.68" y2="415.09"/><line class="cls-2" x1="122.56" y1="393.32" x2="128.82" y2="418.53"/><line class="cls-2" x1="108.69" y1="396.76" x2="114.95" y2="421.97"/><path class="cls-2" d="M106.75,411.88a5.08,5.08,0,1,1-5.08-5.08A5.07,5.07,0,0,1,106.75,411.88Z"/><path class="cls-2" d="M1167.33,72.2a26.66,26.66,0,1,1-53.31,0"/><line class="cls-2" x1="1114.02" y1="98.86" x2="1167.33" y2="98.86"/><rect class="cls-2" x="1110.3" y="64.75" width="7.45" height="7.45"/><rect class="cls-2" x="1163.6" y="64.75" width="7.45" height="7.45"/><rect class="cls-2" x="1137.39" y="95.13" width="7.45" height="7.45"/><path class="cls-2" d="M375.53,197.23a26.66,26.66,0,0,1-53.31,0"/><line class="cls-2" x1="322.22" y1="223.88" x2="375.53" y2="223.88"/><rect class="cls-2" x="318.5" y="189.78" width="7.45" height="7.45"/><rect class="cls-2" x="371.8" y="189.78" width="7.45" height="7.45"/><rect class="cls-2" x="345.59" y="220.16" width="7.45" height="7.45"/><rect class="cls-2" x="857.87" y="520.67" width="122.31" height="78.88"/><path class="cls-2" d="M883.31,560.1A10.1,10.1,0,1,1,873.21,550,10.1,10.1,0,0,1,883.31,560.1Z"/><line class="cls-2" x1="873.21" y1="544.8" x2="873.21" y2="526.92"/><line class="cls-2" x1="873.21" y1="593.2" x2="873.21" y2="575.31"/><polygon class="cls-2" points="994.83 567.6 923.29 567.6 910.31 560.59 923.29 553.57 994.83 553.57 994.83 567.6"/><line class="cls-2" x1="923.29" y1="553.57" x2="923.29" y2="567.6"/><polygon class="cls-2" points="460.88 71.2 534 38.29 527.55 103.88 460.88 71.2"/><polygon class="cls-4" points="534 38.29 486.15 83.59 486.15 108.06 500.73 90.73 534 38.29"/><rect class="cls-2" x="1109.64" y="361.94" width="114.15" height="9.29"/><rect class="cls-2" x="1206.46" y="401.72" width="114.15" height="9.29" transform="translate(657.43 -774.43) rotate(45)"/><path class="cls-2" d="M1118.93,371.23a9.29,9.29,0,1,1-9.29-9.29A9.29,9.29,0,0,1,1118.93,371.23Z"/><path class="cls-2" d="M1123.78,424.36a14,14,0,1,1-14-14A14,14,0,0,1,1123.78,424.36Z"/><polygon class="cls-2" points="1137.52 424.36 1082.11 424.36 1094.73 373.16 1124.89 373.16 1137.52 424.36"/><path class="cls-2" d="M1231.68,362.73a8.51,8.51,0,1,1-8.51-8.51A8.51,8.51,0,0,1,1231.68,362.73Z"/><rect class="cls-2" x="1247.68" y="502.1" width="114.15" height="9.29" transform="translate(1809.14 -798.92) rotate(89.9)"/><path class="cls-2" d="M1313,453.35a8.51,8.51,0,1,1,0-12A8.49,8.49,0,0,1,1313,453.35Z"/><polygon class="cls-5" points="1245.18 577.96 1320.93 577.96 1314.62 563.82 1251.49 563.82 1245.18 577.96"/><line class="cls-5" x1="1288.84" y1="556.39" x2="1288.84" y2="563.82"/><line class="cls-5" x1="1100.35" y1="371.23" x2="1100.35" y2="398.76"/><line class="cls-5" x1="1100.35" y1="406.37" x2="1100.35" y2="414.11"/><line class="cls-5" x1="1109.64" y1="447.35" x2="1109.64" y2="462.23"/><line class="cls-5" x1="1092.63" y1="442.77" x2="1082.11" y2="454.79"/><line class="cls-5" x1="1084.74" y1="431.2" x2="1071.06" y2="433.83"/><line class="cls-5" x1="1125.95" y1="442.77" x2="1136.47" y2="454.79"/><line class="cls-5" x1="1133.84" y1="431.2" x2="1147.51" y2="433.83"/><rect class="cls-2" x="1187.84" y="447.35" width="51.71" height="51.71"/><rect class="cls-2" x="1182.84" y="442.35" width="9.99" height="9.99"/><rect class="cls-2" x="1234.55" y="442.35" width="9.99" height="9.99"/><rect class="cls-2" x="1234.55" y="442.35" width="9.99" height="9.99"/><rect class="cls-2" x="1234.55" y="494.06" width="9.99" height="9.99"/><rect class="cls-2" x="1182.84" y="494.06" width="9.99" height="9.99"/><path class="cls-2" d="M1193.5,92h119.23a0,0,0,0,1,0,0v62.76a7,7,0,0,1-7,7H1193.5a0,0,0,0,1,0,0V92A0,0,0,0,1,1193.5,92Z"/><path class="cls-2" d="M1300.46,134.85c7.47,0,11.55,5.24,12.27,11v-69a12.1,12.1,0,0,0-12.1-12.1c-12,0-12.52,12.1-12.52,12.1v69.57C1288.63,140.45,1292.74,134.85,1300.46,134.85Z"/><line class="cls-2" x1="1208.23" y1="108.06" x2="1269.25" y2="108.06"/><line class="cls-2" x1="1208.23" y1="122.79" x2="1250.31" y2="122.79"/><circle class="cls-2" cx="1045.53" cy="242.64" r="19.44"/><circle class="cls-2" cx="1073.19" cy="242.64" r="19.44"/><circle class="cls-2" cx="1060.1" cy="220.42" r="19.44" transform="translate(154.63 814.16) rotate(-45)"/></svg>