<?xml version="1.0" encoding="utf-8"?>
<!-- Generator: Adobe Illustrator 25.0.1, SVG Export Plug-In . SVG Version: 6.00 Build 0)  -->
<svg version="1.1" id="Layer_1" xmlns="http://www.w3.org/2000/svg" xmlns:xlink="http://www.w3.org/1999/xlink" x="0px" y="0px"
	 viewBox="0 0 389.6 51.6" style="enable-background:new 0 0 389.6 51.6;" xml:space="preserve">
<style type="text/css">
	.st0{fill:#020202;}
</style>
<g id="Layer_2_1_">
	<g id="Layer_3">
		<path class="st0" d="M51.8,46.8v4.8L0,51.6L0.1,0h34.3C44,0,51.8,7.8,51.8,17.4v24.9H47l0,0h-9.7c0-3.5,0-17.2,0-23.6
			c0-0.5-0.2-1-0.4-1.5c-0.1-0.2-0.2-0.4-0.3-0.6c-1-1.3-2.4-2.2-4-2.4H14.3v28.1H9.4c0-10.9,0-21.9,0-32.8h23.3
			c5.5,0.1,9.5,4.1,9.4,7.9c0,7.7,0,18.8,0,20.1H47v-20c0-7-5.7-12.7-12.6-12.7c0,0,0,0,0,0H4.9v42L51.8,46.8z"/>
		<polygon class="st0" points="23.9,18.1 28.7,18 28.8,42 23.9,41.9 		"/>
		<path class="st0" d="M90,26.4c-0.2-4.1-0.5-8.9-0.4-12.5h-0.1c-1,3.4-2.2,7-3.7,11L80.7,39h-2.8l-4.7-13.8
			c-1.4-4.1-2.5-7.8-3.4-11.3h-0.1c-0.1,3.6-0.3,8.5-0.6,12.8l-0.8,12.4h-3.6l2-29h4.8l4.9,14c1.2,3.6,2.2,6.8,2.9,9.8h0.1
			c0.7-2.9,1.8-6.1,3.1-9.8l5.2-14h4.8l1.8,29h-3.7L90,26.4z"/>
		<path class="st0" d="M104.4,30l-3,9.1h-3.9l9.8-29h4.5l9.9,29h-4l-3.1-9.1H104.4z M113.9,27.1l-2.8-8.3c-0.6-1.9-1.1-3.6-1.5-5.3
			h-0.1c-0.4,1.7-0.9,3.5-1.5,5.2l-2.8,8.4H113.9z"/>
		<path class="st0" d="M125.5,34.6c2,1.2,4.3,1.9,6.7,1.9c3.8,0,6.1-2,6.1-5c0-2.7-1.6-4.3-5.5-5.8c-4.7-1.7-7.7-4.1-7.7-8.2
			c0-4.5,3.7-7.9,9.4-7.9c2.2-0.1,4.5,0.4,6.5,1.4l-1,3.1c-1.7-0.9-3.6-1.4-5.5-1.4c-4,0-5.5,2.4-5.5,4.3c0,2.7,1.8,4,5.8,5.6
			c4.9,1.9,7.4,4.3,7.4,8.5c0,4.5-3.3,8.3-10.1,8.3c-2.6,0-5.1-0.6-7.4-1.8L125.5,34.6z"/>
		<path class="st0" d="M151,10.2v12.1h14V10.2h3.8v29H165V25.6h-14v13.6h-3.7v-29L151,10.2z"/>
		<path class="st0" d="M179,10.2v17.2c0,6.5,2.9,9.2,6.8,9.2c4.3,0,7.1-2.8,7.1-9.2V10.2h3.8v16.9c0,8.9-4.7,12.6-11,12.6
			c-5.9,0-10.4-3.4-10.4-12.4V10.2H179z"/>
		<path class="st0" d="M227.5,26.4c-0.2-4.1-0.5-8.9-0.4-12.5H227c-1,3.4-2.2,7-3.6,11L218.2,39h-2.8l-4.7-13.8
			c-1.4-4.1-2.5-7.8-3.4-11.3h-0.1c-0.1,3.6-0.3,8.5-0.6,12.8l-0.8,12.4h-3.6l2-29h4.8l4.9,14c1.2,3.6,2.2,6.8,2.9,9.8h0.1
			c0.7-2.9,1.8-6.1,3-9.8l5.2-14h4.8l1.8,29h-3.7L227.5,26.4z"/>
		<path class="st0" d="M262.7,13.9h-0.1c-1,3.4-8.8,25.1-8.8,25.1h-2.8c0,0-6.9-21.6-8-25.1h-0.1c0,1.5-1,20.1-1.3,25.2h-3.2l2-29
			h3.9c1.5,4.2,3,8.4,4.4,12.5c1.3,3.8,2.6,7.5,3.9,11.3h0.1c0.7-2.9,8.2-23.8,8.2-23.8h4c0.7,9.7,1.4,19.3,2.1,29h-3.2
			C263.8,39.2,262.6,17.5,262.7,13.9z"/>
		<path class="st0" d="M297,24.5c0,10-6.1,15.3-13.5,15.3c-7.6,0-13-5.9-13-14.7c0-9.2,5.7-15.2,13.5-15.2
			C291.9,9.9,297,15.9,297,24.5z M273.3,24.9c0,5.5,4.1,11.9,9.9,12.1s10.5-6.1,10.7-11.8c0.2-6-4.4-12.7-10.4-12.7
			S273.2,19,273.3,24.9z"/>
		<path class="st0" d="M301.9,10.2l3.3-0.1L305,36.5h13v2.6h-16.1V10.2z"/>
		<path class="st0" d="M322.2,10.2h3.2v26.4h12.9c0,0.9,0,1.7,0,2.6h-16.1V10.2z"/>
		<path class="st0" d="M348.6,30.1c-1,3-2,6.1-3,9.1h-3.4l9.8-29h4.5l9.9,29h-3.4c-1.1-3-2.2-6.1-3.3-9.1L348.6,30.1z M359.1,27.1
			c-1-2.8-4.2-11.9-4.8-13.6h-0.1c-0.7,2.3-3.6,10.8-4.5,13.6L359.1,27.1z"/>
		<path class="st0" d="M372.5,10.2v12.1h14V10.2h3.1v29h-3.1V25.6h-14v13.6h-3.1v-29L372.5,10.2z"/>
	</g>
</g>
</svg>
