<svg xmlns="http://www.w3.org/2000/svg" xmlns:xlink="http://www.w3.org/1999/xlink" viewBox="0 0 171.29 84.98"><defs><style>.cls-1{fill:url(#linear-gradient);}.cls-2{fill:url(#linear-gradient-2);}.cls-3{fill:url(#linear-gradient-3);}.cls-4{fill:url(#linear-gradient-4);}.cls-5{fill:url(#linear-gradient-5);}.cls-6{fill:url(#linear-gradient-6);}.cls-7{fill:url(#linear-gradient-7);}.cls-8{fill:url(#linear-gradient-8);}.cls-9{fill:url(#linear-gradient-9);}.cls-10{fill:url(#linear-gradient-10);}.cls-11{fill:url(#linear-gradient-11);}.cls-12{fill:url(#linear-gradient-12);}.cls-13{fill:url(#linear-gradient-13);}.cls-14{fill:url(#linear-gradient-14);}.cls-15{fill:url(#linear-gradient-15);}.cls-16{fill:url(#linear-gradient-16);}.cls-17{fill:url(#linear-gradient-17);}</style><linearGradient id="linear-gradient" y1="29.04" x2="39.26" y2="29.04" gradientUnits="userSpaceOnUse"><stop offset="0" stop-color="#ff9067"/><stop offset="1" stop-color="#fd6c6a"/></linearGradient><linearGradient id="linear-gradient-2" x1="49.63" y1="28.89" x2="89.27" y2="28.89" xlink:href="#linear-gradient"/><linearGradient id="linear-gradient-3" x1="97.33" y1="28.89" x2="155.1" y2="28.89" xlink:href="#linear-gradient"/><linearGradient id="linear-gradient-4" x1="101.66" y1="44.62" x2="171.29" y2="44.62" gradientUnits="userSpaceOnUse"><stop offset="0" stop-color="#4334c4"/><stop offset="1" stop-color="#342997"/></linearGradient><linearGradient id="linear-gradient-5" x1="112" y1="31.77" x2="117.42" y2="31.77" xlink:href="#linear-gradient-4"/><linearGradient id="linear-gradient-6" x1="11.3" y1="83.58" x2="11.99" y2="88.43" xlink:href="#linear-gradient-4"/><linearGradient id="linear-gradient-7" x1="23.54" y1="81.83" x2="24.23" y2="86.68" xlink:href="#linear-gradient-4"/><linearGradient id="linear-gradient-8" x1="33.55" y1="80.4" x2="34.25" y2="85.25" xlink:href="#linear-gradient-4"/><linearGradient id="linear-gradient-9" x1="45.96" y1="78.63" x2="46.66" y2="83.48" xlink:href="#linear-gradient-4"/><linearGradient id="linear-gradient-10" x1="57.03" y1="77.05" x2="57.72" y2="81.9" xlink:href="#linear-gradient-4"/><linearGradient id="linear-gradient-11" x1="66.42" y1="75.71" x2="67.12" y2="80.56" xlink:href="#linear-gradient-4"/><linearGradient id="linear-gradient-12" x1="86.56" y1="72.83" x2="87.25" y2="77.68" xlink:href="#linear-gradient-4"/><linearGradient id="linear-gradient-13" x1="96.89" y1="71.35" x2="97.58" y2="76.21" xlink:href="#linear-gradient-4"/><linearGradient id="linear-gradient-14" x1="108.41" y1="69.71" x2="109.1" y2="74.56" xlink:href="#linear-gradient-4"/><linearGradient id="linear-gradient-15" x1="118.82" y1="68.22" x2="119.51" y2="73.07" xlink:href="#linear-gradient-4"/><linearGradient id="linear-gradient-16" x1="127.98" y1="66.91" x2="128.68" y2="71.76" xlink:href="#linear-gradient-4"/><linearGradient id="linear-gradient-17" x1="139.21" y1="65.31" x2="139.91" y2="70.16" xlink:href="#linear-gradient-4"/></defs><title>SEO GROUTH ENGINE</title><g id="Layer_2" data-name="Layer 2"><g id="Layer_1-2" data-name="Layer 1"><path class="cls-1" d="M22.2,10.22a9.69,9.69,0,0,0-5.72,1.46,5,5,0,0,0-2,4.38q0,2.69,3,4.72a36.91,36.91,0,0,0,7.87,3.88A32.53,32.53,0,0,1,32.11,28a15.05,15.05,0,0,1,4.73,5.19,16.78,16.78,0,0,1,1.88,8.37,15.35,15.35,0,0,1-2.27,8.11,15.8,15.8,0,0,1-6.64,5.91,23.15,23.15,0,0,1-10.45,2.19A34.74,34.74,0,0,1,9.3,56.27,31.47,31.47,0,0,1,0,51.7L4.92,43a26.67,26.67,0,0,0,6.68,3.54,19.89,19.89,0,0,0,6.76,1.38,12.16,12.16,0,0,0,6.15-1.5,5.19,5.19,0,0,0,2.61-4.88q0-4.38-8.22-7.6a72.8,72.8,0,0,1-8.07-3.69A16.63,16.63,0,0,1,5.26,25.2a14,14,0,0,1-2.34-8.3A15.28,15.28,0,0,1,7.72,5.15Q12.52.7,20.51.31A33.38,33.38,0,0,1,31,1.73a36.37,36.37,0,0,1,8.22,4L35,14.29Q27.65,10.23,22.2,10.22Z"/><path class="cls-2" d="M88.19.61V11.37H60.77V23.43H85V34.19H60.77V46.4h28.5V57.16H49.63V.61Z"/><path class="cls-3" d="M101.21,14.6A29.35,29.35,0,0,1,111.74,4a28.18,28.18,0,0,1,28.81,0,29.93,29.93,0,0,1,10.6,10.64A27.66,27.66,0,0,1,155.1,29a27.59,27.59,0,0,1-3.95,14.45,29.49,29.49,0,0,1-10.6,10.48,28.75,28.75,0,0,1-28.85,0,29,29,0,0,1-10.49-10.48A28.1,28.1,0,0,1,97.33,29,28.17,28.17,0,0,1,101.21,14.6ZM111.2,38a17.72,17.72,0,0,0,6.38,6.57,17.09,17.09,0,0,0,9,2.42,16.23,16.23,0,0,0,8.68-2.42,17.14,17.14,0,0,0,6.14-6.53A18.76,18.76,0,0,0,143.58,29a18.74,18.74,0,0,0-2.3-9.22A17.61,17.61,0,0,0,135,13.18a17.21,17.21,0,0,0-17.6,0,17.54,17.54,0,0,0-6.26,6.56,18.74,18.74,0,0,0-2.3,9.22A18.16,18.16,0,0,0,111.2,38Z"/><path class="cls-4" d="M111.34,9.46h0a24.9,24.9,0,0,0,28.31,40.89l5.62,7.29-1.59,1.23a.72.72,0,0,0-.14,1l19.14,24.78a.72.72,0,0,0,1,.14L171,79.18a.75.75,0,0,0,.13-1L152,53.36a.75.75,0,0,0-1-.13l-1.6,1.23L145.12,49l-1.37-1.77A24.9,24.9,0,0,0,111.34,9.46Zm31,7.54a19.92,19.92,0,1,1-27.94-3.6A19.89,19.89,0,0,1,142.33,17Z"/><path class="cls-5" d="M113.78,24.29a18,18,0,0,0,3.64,15,10.42,10.42,0,0,1-4.9-12.39A10.08,10.08,0,0,1,113.78,24.29Z"/><path class="cls-6" d="M12.75,67.8l-.74.73a3.56,3.56,0,0,0-2.58-1.09,2.94,2.94,0,0,0-2.13.82,2.81,2.81,0,0,0,0,4,3,3,0,0,0,2.28.87,2.54,2.54,0,0,0,2.74-1.89h-2v-1h3.1a5.37,5.37,0,0,1-.1,1.19,3.6,3.6,0,0,1-.41,1,3.77,3.77,0,0,1-.84,1A3.51,3.51,0,0,1,11,74a5,5,0,0,1-1.43.18,4,4,0,0,1-3-1.19A3.82,3.82,0,0,1,5.4,70.27a3.69,3.69,0,0,1,1.14-2.73,3.82,3.82,0,0,1,2.79-1.13,5.32,5.32,0,0,1,1.78.29A5.07,5.07,0,0,1,12.75,67.8Z"/><path class="cls-7" d="M21.61,69.2v1a3.17,3.17,0,0,1,.65-.85,1.29,1.29,0,0,1,.83-.26,2.31,2.31,0,0,1,.41.07l-.31,1-.37-.06a1.15,1.15,0,0,0-.85.35,1.26,1.26,0,0,0-.34.88v2.61h-1V69.2Z"/><path class="cls-8" d="M29.76,71.54a2.33,2.33,0,0,1,.76-1.71,2.42,2.42,0,0,1,1.76-.76,2.51,2.51,0,0,1,1.78.74,2.38,2.38,0,0,1,.76,1.73,2.43,2.43,0,0,1-.75,1.76,2.37,2.37,0,0,1-1.73.75,2.5,2.5,0,0,1-1.81-.74A2.4,2.4,0,0,1,29.76,71.54Zm4.09,0a1.44,1.44,0,0,0-.45-1,1.5,1.5,0,0,0-1.09-.44,1.54,1.54,0,0,0-1.11.45,1.43,1.43,0,0,0-.47,1.07,1.39,1.39,0,0,0,.47,1,1.57,1.57,0,0,0,1.11.45,1.48,1.48,0,0,0,1.08-.46A1.43,1.43,0,0,0,33.85,71.55Z"/><path class="cls-9" d="M44.62,69l1.32,3.13,1.39-2.93h.87l-2.32,4.85-1.26-3-1.27,3L41,69.2h.87l1.4,2.91Z"/><path class="cls-10" d="M55.38,67.83h1V69.2h1v.91h-1v3.81h-1V70.11h-.79v-.92h.79Z"/><path class="cls-11" d="M63.87,66.5h1V70a3.51,3.51,0,0,1,.77-.69,1.62,1.62,0,0,1,.88-.22,1.39,1.39,0,0,1,1,.46,1.52,1.52,0,0,1,.44,1.1v3.29H67v-3a1.08,1.08,0,0,0-.23-.71.74.74,0,0,0-.6-.27,1.23,1.23,0,0,0-.92.41,1.4,1.4,0,0,0-.38,1v2.6h-1Z"/><path class="cls-12" d="M84.18,66.64h4v1H85.16v1.82h3.06v1H85.16v2.51h3.06v1h-4Z"/><path class="cls-13" d="M95,73.92V69.2h1V70a3.65,3.65,0,0,1,.78-.7,1.47,1.47,0,0,1,.77-.22,1.52,1.52,0,0,1,1.1.43,1.34,1.34,0,0,1,.45,1v3.41h-1V70.81a.9.9,0,0,0-.25-.64.85.85,0,0,0-.63-.25,1.1,1.1,0,0,0-.86.42,1.51,1.51,0,0,0-.36,1v2.56Z"/><path class="cls-14" d="M110.06,69.2h1v4.53a2.35,2.35,0,0,1-.69,1.71,2.29,2.29,0,0,1-1.67.7,2.47,2.47,0,0,1-1.37-.41,2.31,2.31,0,0,1-.91-1.22h1a1.43,1.43,0,0,0,1.28.76,1.28,1.28,0,0,0,1-.4,1.34,1.34,0,0,0,.39-1V73a2.12,2.12,0,0,1-1.81,1,2,2,0,0,1-1.58-.74,2.66,2.66,0,0,1,0-3.51,2.06,2.06,0,0,1,3.41.4Zm.14,2.36a1.45,1.45,0,0,0-.46-1.11A1.58,1.58,0,0,0,108.6,70a1.52,1.52,0,0,0-1.1.46,1.48,1.48,0,0,0-.47,1.07,1.51,1.51,0,0,0,.47,1.13,1.49,1.49,0,0,0,1.11.48,1.56,1.56,0,0,0,1.13-.46A1.53,1.53,0,0,0,110.2,71.56Z"/><path class="cls-15" d="M118.27,67.65a.76.76,0,0,1,1.31-.53.76.76,0,0,1,0,1.07.77.77,0,0,1-1.31-.54Zm.28,1.55h1v4.72h-1Z"/><path class="cls-16" d="M126.7,73.92V69.2h1V70a3.65,3.65,0,0,1,.78-.7,1.47,1.47,0,0,1,.77-.22,1.52,1.52,0,0,1,1.1.43,1.34,1.34,0,0,1,.45,1v3.41h-1V70.81a.86.86,0,0,0-.88-.89,1.1,1.1,0,0,0-.86.42,1.51,1.51,0,0,0-.36,1v2.56Z"/><path class="cls-17" d="M142.58,71.76h-4a1.62,1.62,0,0,0,.6,1.06,1.72,1.72,0,0,0,1,.33,1.75,1.75,0,0,0,1.42-.7l.73.55a2.65,2.65,0,0,1-2.19,1,2.37,2.37,0,0,1-1.76-.72,2.52,2.52,0,0,1,0-3.52,2.42,2.42,0,0,1,3.49,0A2.59,2.59,0,0,1,142.58,71.76Zm-3.93-.8h2.89a1.56,1.56,0,0,0-2.89,0Z"/></g></g></svg>