<svg xmlns="http://www.w3.org/2000/svg" viewBox="0 0 233.98 45.23"><defs><style>.cls-1{fill:#b941ee;}.cls-2{fill:#303f72;}.cls-3{fill:#fff;}.cls-4{fill:orange;}.cls-5{fill:#00a8fd;}</style></defs><g id="Layer_2" data-name="Layer 2"><g id="Layer_1-2" data-name="Layer 1"><path class="cls-1" d="M97.59,22.6q0,10.92-5.26,16.77T77.25,45.23q-9.82,0-15.08-5.86T56.91,22.54q0-11,5.27-16.75T77.31,0q9.84,0,15.06,5.83T97.59,22.6Z"/><path class="cls-2" d="M48.33,44H37.72L31.77,21q-.33-1.23-1.13-5.1t-.91-5.18c-.12,1.08-.43,2.82-.91,5.21S28,20,27.71,21L21.79,44H11.21L0,.09H9.17l5.62,24q1.47,6.65,2.13,11.52c.12-1.15.4-2.91.83-5.31A56,56,0,0,1,19,24.71L25.37.09h8.8l6.41,24.62q.42,1.65,1.05,5.05t1,5.83q.3-2.36,1-5.85t1.2-5.67l5.59-24h9.17Z"/><path class="cls-2" d="M108.65,27.17V44H99.33V.09h12.8q9,0,13.26,3.26t4.29,9.9a11.66,11.66,0,0,1-2.13,6.9,14.15,14.15,0,0,1-6,4.74L134.43,44H124.09L113.6,27.17Zm0-7.57h3q4.42,0,6.52-1.48a5.24,5.24,0,0,0,2.11-4.63,4.8,4.8,0,0,0-2.15-4.44c-1.44-.88-3.65-1.33-6.66-1.33h-2.82Z"/><path class="cls-2" d="M149.71,44H140.4V7.84H128.46V.09h33.19V7.84H149.71Z"/><path class="cls-2" d="M197.21,44h-9.28v-19H170.52V44h-9.31V.09h9.31V17.31h17.41V.09h9.28Z"/><path class="cls-2" d="M214.78,18.18,223.94.09h10L219.41,26.93V44h-9.26V27.23L195.57.09h10.1Z"/><path class="cls-3" d="M72.84,22.71a2.74,2.74,0,0,0-.15-.87L82.09,17a2.72,2.72,0,0,1-.33-.66l-9.38,4.8A2.66,2.66,0,0,0,70.18,20a2.72,2.72,0,0,0,0,5.44,2.64,2.64,0,0,0,2.21-1.21l9.34,4.66a2.55,2.55,0,0,1,.33-.66L72.7,23.56A2.66,2.66,0,0,0,72.84,22.71Z"/><circle class="cls-4" cx="84.31" cy="29.75" r="2.72"/><circle class="cls-5" cx="84.33" cy="15.48" r="2.72"/></g></g></svg>