<?xml version="1.0" encoding="utf-8"?>
<!-- Generator: Adobe Illustrator 23.0.2, SVG Export Plug-In . SVG Version: 6.00 Build 0)  -->
<svg version="1.1" id="Layer_1" xmlns="http://www.w3.org/2000/svg" xmlns:xlink="http://www.w3.org/1999/xlink" x="0px" y="0px"
	 viewBox="0 0 1430 638" style="enable-background:new 0 0 1430 638;" xml:space="preserve">
<style type="text/css">
	.st0{fill:#283996;}
	.st1{fill:none;stroke:#B2E3FA;stroke-miterlimit:10;}
	.st2{fill:none;stroke:#B2E3FA;stroke-linejoin:round;}
	.st3{fill:none;stroke:#B2E3FA;stroke-width:1.09;stroke-miterlimit:10;}
</style>
<title>single-post-subscribe</title>
<rect class="st0" width="1430" height="638"/>
<line class="st1" x1="116.3" y1="314.4" x2="180.8" y2="314.4"/>
<line class="st1" x1="138.1" y1="608.1" x2="349.9" y2="608.1"/>
<line class="st1" x1="68.9" y1="580.3" x2="113.1" y2="580.3"/>
<path class="st1" d="M156,71.1h78c4.1,0,7.5,3.3,7.5,7.5v44.1c0,4.1-3.3,7.5-7.5,7.5h-78c-4.1,0-7.5-3.3-7.5-7.5V78.5
	C148.5,74.4,151.9,71.1,156,71.1z"/>
<line class="st1" x1="209.2" y1="72.7" x2="209.2" y2="130.1"/>
<line class="st1" x1="241.5" y1="100.6" x2="209.2" y2="100.6"/>
<path class="st1" d="M219.7,105.7h-17.5c-3.1,0-5.6-2.5-5.6-5.6l0,0c0-3.1,2.5-5.6,5.6-5.6h17.5c3.1,0,5.6,2.5,5.6,5.6l0,0l0,0
	C225.3,103.2,222.8,105.7,219.7,105.7C219.7,105.7,219.7,105.7,219.7,105.7z"/>
<path class="st1" d="M148.5,101.4H98.7c-10.4,0-18.8,8.4-18.8,18.8l0,0v92c0,10.4,8.4,18.8,18.8,18.8l0,0h246"/>
<polygon class="st1" points="145.9,562.9 125.3,542.3 145.9,499 166.5,542.3 "/>
<line class="st1" x1="145.9" y1="499" x2="145.9" y2="531"/>
<path class="st1" d="M150.7,535.8c0,2.7-2.1,4.8-4.8,4.8s-4.8-2.1-4.8-4.8c0-2.7,2.1-4.8,4.8-4.8c0,0,0,0,0,0
	C148.5,531,150.7,533.1,150.7,535.8C150.7,535.8,150.7,535.8,150.7,535.8z"/>
<rect x="134" y="553.8" class="st1" width="23.7" height="21"/>
<line class="st1" x1="134" y1="564.3" x2="157.8" y2="564.3"/>
<polygon class="st1" points="934,102.9 913.4,82.2 934,39 954.7,82.2 "/>
<line class="st1" x1="934" y1="39" x2="934" y2="70.9"/>
<path class="st1" d="M938.8,75.7c0,2.7-2.1,4.8-4.8,4.8c-2.7,0-4.8-2.1-4.8-4.8c0-2.7,2.1-4.8,4.8-4.8l0,0
	C936.7,70.9,938.8,73.1,938.8,75.7z"/>
<rect x="922.2" y="93.7" class="st1" width="23.7" height="21"/>
<line class="st1" x1="922.2" y1="104.2" x2="945.9" y2="104.2"/>
<path class="st1" d="M522.4,608L522.4,608c-6.1,0-11.1-5-11.1-11.1l0,0v-56.1h22.2v56.1C533.5,603.1,528.5,608,522.4,608z"/>
<line class="st1" x1="511.3" y1="551.5" x2="533.5" y2="551.5"/>
<line class="st1" x1="511.3" y1="563.7" x2="533.5" y2="563.7"/>
<line class="st1" x1="511.3" y1="575.9" x2="533.5" y2="575.9"/>
<line class="st1" x1="511.3" y1="588.1" x2="533.5" y2="588.1"/>
<path class="st1" d="M518.3,607.5L518.3,607.5c-5.7-2.2-8.6-8.6-6.4-14.3l19.9-52.5l20.7,7.8L532.6,601
	C530.4,606.7,524,609.6,518.3,607.5z"/>
<line class="st1" x1="527.9" y1="550.7" x2="548.7" y2="558.5"/>
<line class="st1" x1="523.6" y1="562.1" x2="544.3" y2="569.9"/>
<line class="st1" x1="519.3" y1="573.5" x2="540" y2="581.3"/>
<line class="st1" x1="515" y1="584.9" x2="535.7" y2="592.7"/>
<path class="st1" d="M515.2,606L515.2,606c-4.8-3.8-5.5-10.8-1.7-15.6l35.2-43.7l17.3,13.9l-35.2,43.7
	C526.9,609,520,609.8,515.2,606z"/>
<line class="st1" x1="542" y1="555" x2="559.2" y2="568.9"/>
<line class="st1" x1="534.3" y1="564.5" x2="551.6" y2="578.4"/>
<line class="st1" x1="526.7" y1="574" x2="544" y2="587.9"/>
<line class="st1" x1="519.1" y1="583.5" x2="536.3" y2="597.4"/>
<path class="st1" d="M511.2,600.3L511.2,600.3c-1.5-5.9,2.1-11.9,8.1-13.4l54.5-13.5l5.3,21.5l-54.5,13.5
	C518.7,609.8,512.7,606.2,511.2,600.3z"/>
<line class="st1" x1="563.4" y1="575.9" x2="568.7" y2="597.4"/>
<line class="st1" x1="551.6" y1="578.8" x2="556.9" y2="600.3"/>
<line class="st1" x1="539.7" y1="581.8" x2="545.1" y2="603.3"/>
<line class="st1" x1="527.9" y1="584.7" x2="533.3" y2="606.2"/>
<path class="st1" d="M526.3,597.6c0,2.4-1.9,4.3-4.3,4.3s-4.3-1.9-4.3-4.3s1.9-4.3,4.3-4.3l0,0C524.3,593.3,526.3,595.2,526.3,597.6
	C526.3,597.6,526.3,597.6,526.3,597.6z"/>
<path class="st1" d="M1167.3,72.2c0.3,14.7-11.4,26.9-26.1,27.2c-14.7,0.3-26.9-11.4-27.2-26.1c0-0.3,0-0.7,0-1"/>
<line class="st1" x1="1114" y1="98.9" x2="1167.3" y2="98.9"/>
<rect x="1110.3" y="64.8" class="st1" width="7.4" height="7.4"/>
<rect x="1163.6" y="64.8" class="st1" width="7.4" height="7.4"/>
<rect x="1137.4" y="95.1" class="st1" width="7.4" height="7.4"/>
<path class="st1" d="M750.4,61.2c-0.3,14.7-12.5,26.4-27.2,26.1c-14.3-0.3-25.9-11.8-26.1-26.1"/>
<line class="st1" x1="697.1" y1="87.9" x2="750.4" y2="87.9"/>
<rect x="693.4" y="53.8" class="st1" width="7.5" height="7.4"/>
<rect x="746.7" y="53.8" class="st1" width="7.5" height="7.4"/>
<rect x="720.4" y="84.1" class="st1" width="7.5" height="7.4"/>
<rect x="857.9" y="520.7" class="st1" width="122.3" height="78.9"/>
<path class="st1" d="M883.3,560.1c0,5.6-4.5,10.1-10.1,10.1s-10.1-4.5-10.1-10.1s4.5-10.1,10.1-10.1h0
	C878.8,550,883.3,554.5,883.3,560.1z"/>
<line class="st1" x1="873.2" y1="544.8" x2="873.2" y2="526.9"/>
<line class="st1" x1="873.2" y1="593.2" x2="873.2" y2="575.3"/>
<polygon class="st1" points="994.8,567.6 923.3,567.6 910.3,560.6 923.3,553.6 994.8,553.6 "/>
<line class="st1" x1="923.3" y1="553.6" x2="923.3" y2="567.6"/>
<polygon class="st1" points="460.9,71.2 534,38.3 527.5,103.9 "/>
<polygon class="st2" points="534,38.3 486.1,83.6 486.1,108.1 500.7,90.7 "/>
<rect x="1221.7" y="460.7" class="st1" width="82.3" height="6.7"/>
<rect x="1329.4" y="451.6" transform="matrix(0.7071 -0.7071 0.7071 0.7071 41.9139 1086.7421)" class="st1" width="6.7" height="82.3"/>
<path class="st1" d="M1228.4,467.4c0,3.7-3,6.7-6.7,6.7c-3.7,0-6.7-3-6.7-6.7s3-6.7,6.7-6.7S1228.4,463.7,1228.4,467.4
	C1228.4,467.4,1228.4,467.4,1228.4,467.4z"/>
<path class="st1" d="M1231.9,505.8c0,5.6-4.5,10.1-10.1,10.1s-10.1-4.5-10.1-10.1s4.5-10.1,10.1-10.1S1231.9,500.2,1231.9,505.8
	L1231.9,505.8z"/>
<polygon class="st1" points="1241.9,505.8 1201.9,505.8 1211,468.8 1232.7,468.8 "/>
<path class="st1" d="M1309.8,461.3c0,3.4-2.7,6.1-6.1,6.1c-3.4,0-6.1-2.7-6.1-6.1s2.7-6.1,6.1-6.1
	C1307,455.2,1309.8,457.9,1309.8,461.3C1309.8,461.3,1309.8,461.3,1309.8,461.3z"/>
<rect x="1359.1" y="524" transform="matrix(1 -1.745302e-03 1.745302e-03 1 -0.9843 2.3787)" class="st1" width="6.7" height="82.3"/>
<path class="st1" d="M1368.5,526.7c-2.4,2.4-6.3,2.4-8.7,0s-2.4-6.3,0-8.7c2.4-2.4,6.3-2.4,8.7,0c0,0,0,0,0,0
	C1370.8,520.4,1370.8,524.3,1368.5,526.7z"/>
<polygon class="st3" points="1319.5,616.6 1374.2,616.6 1369.6,606.4 1324.1,606.4 "/>
<line class="st3" x1="1351" y1="601" x2="1351" y2="606.4"/>
<line class="st3" x1="1215" y1="467.4" x2="1215" y2="487.3"/>
<line class="st3" x1="1215" y1="492.8" x2="1215" y2="498.4"/>
<line class="st3" x1="1221.7" y1="522.3" x2="1221.7" y2="533.1"/>
<line class="st3" x1="1209.5" y1="519" x2="1201.9" y2="527.7"/>
<line class="st3" x1="1203.8" y1="510.7" x2="1193.9" y2="512.6"/>
<line class="st3" x1="1233.5" y1="519" x2="1241.1" y2="527.7"/>
<line class="st3" x1="1239.2" y1="510.7" x2="1249.1" y2="512.6"/>
<rect x="1338.5" y="262.3" class="st1" width="51.7" height="51.7"/>
<rect x="1333.5" y="257.3" class="st1" width="10" height="10"/>
<rect x="1385.2" y="257.3" class="st1" width="10" height="10"/>
<rect x="1385.2" y="257.3" class="st1" width="10" height="10"/>
<rect x="1385.2" y="309" class="st1" width="10" height="10"/>
<rect x="1333.5" y="309" class="st1" width="10" height="10"/>
<path class="st1" d="M1193.5,92h119.2l0,0v62.8c0,3.9-3.1,7-7,7h-112.2l0,0V92L1193.5,92z"/>
<path class="st1" d="M1300.5,134.9c7.5,0,11.6,5.2,12.3,11v-69c0-6.7-5.4-12.1-12.1-12.1c-12,0-12.5,12.1-12.5,12.1v69.6
	C1288.6,140.4,1292.7,134.9,1300.5,134.9z"/>
<line class="st1" x1="1208.2" y1="108.1" x2="1269.3" y2="108.1"/>
<line class="st1" x1="1208.2" y1="122.8" x2="1250.3" y2="122.8"/>
<circle class="st1" cx="1133.7" cy="228.2" r="19.4"/>
<circle class="st1" cx="1161.3" cy="228.2" r="19.4"/>
<ellipse transform="matrix(0.7071 -0.7071 0.7071 0.7071 190.6785 872.2552)" class="st1" cx="1148.2" cy="206" rx="19.4" ry="19.4"/>
<polygon class="st1" points="683,614.5 718.6,614.5 700.8,575.9 "/>
</svg>
