<svg xmlns="http://www.w3.org/2000/svg" viewBox="0 0 254.1 76.02"><defs><style>.cls-1{fill:#9042e0;}.cls-2{fill:#33e2a0;}.cls-3{fill:#f5f5f7;}.cls-4{fill:#adadad;}.cls-5{fill:#cecece;}.cls-6{opacity:0.21;}.cls-7{fill:#606060;}.cls-8{isolation:isolate;}</style></defs><title>newlogo</title><g id="Layer_2" data-name="Layer 2"><g id="Layer_1-2" data-name="Layer 1"><path class="cls-1" d="M76.13,38A38,38,0,0,1,38.07,76H36.33A34.28,34.28,0,0,1,26.9,74.4,38,38,0,1,1,76.13,38Z"/><path class="cls-2" d="M10.09,43l13.12-4.88,6.07,16.59L16.16,59.54a3.34,3.34,0,0,1-4.34-2.06L8,47.28A3.36,3.36,0,0,1,10.09,43Z"/><path class="cls-3" d="M62.68,33a5.15,5.15,0,1,1-6.61-3A5.09,5.09,0,0,1,62.68,33Z"/><path class="cls-3" d="M6.51,48.26,8,47.72l3.57,9.65-1.51.54a2,2,0,0,1-2.5-1.19l-2.28-6A2,2,0,0,1,6.51,48.26Z"/><path class="cls-3" d="M29.5,35.79l-6.29,2.38,6.07,16.6,6.29-2.39S52.71,47,64.85,55.2L57.37,34.92,49.89,14.64C46.09,28.74,29.5,35.79,29.5,35.79Z"/><path class="cls-2" d="M50.21,13.12h0c-.76.33-1.3,1.09-1.08,1.63L64.2,55.53a1.34,1.34,0,0,0,1.85.54h0c.76-.33,1.3-1.09,1.08-1.63L52.06,13.66A1.44,1.44,0,0,0,50.21,13.12Z"/><path class="cls-4" d="M19.74,61.71,29,58.35l-1.2-3.15L15.83,59.65l.11.43A3,3,0,0,0,19.74,61.71Z"/><path class="cls-5" d="M36.33,76A34.28,34.28,0,0,1,26.9,74.4L19.63,61.82,29,58.35Z"/><g class="cls-6"><path class="cls-7" d="M6.72,54.12l.87,2.49a2,2,0,0,0,2.6,1.19l1.2-.43c.11-.11.32,0,.43.22h0a3.37,3.37,0,0,0,4.34,1.95l13.12-4.88,6.29-2.28h0c.22-.11,16.7-5,28.31,2.17l.43,1.09a1.62,1.62,0,0,0,2,.54c.76-.33,1.2-1,1-1.63L61.38,38.83a.4.4,0,0,1,.11-.33,5,5,0,0,0,1.41-5c0-.22-.22-.32-.43-.22L6.94,53.79C6.72,53.79,6.62,54,6.72,54.12Z"/></g><path class="cls-1" d="M18.33,45.55h0c-2.17.76-4,1.52-4,1.52l.43,1.19,4-1.41h0c2.17-.76,4-1.52,4-1.52l-.43-1.19Z"/><path class="cls-1" d="M18.33,47.72h0c-2.17.76-4,1.52-4,1.52l.43,1.19,4-1.41h0c2.17-.76,4-1.52,4-1.52l-.43-1.19A24.32,24.32,0,0,0,18.33,47.72Z"/><path class="cls-1" d="M18.33,49.78h0c-2.17.76-4,1.52-4,1.52l.43,1.19,4-1.41h0c2.17-.76,4-1.52,4-1.52l-.43-1.19A24.32,24.32,0,0,0,18.33,49.78Z"/><path class="cls-1" d="M18.33,51.84h0c-2.17.76-4,1.52-4,1.52l.43,1.19,4-1.41h0c2.17-.76,4-1.52,4-1.52l-.43-1.19Z"/><g class="cls-8"><path class="cls-2" d="M104.33,23.32V23a7.32,7.32,0,0,0,3.58-6.61c0-2.93-.76-5-2.39-6.29s-4-2-7.26-2H85.89V40H98.47c6.62,0,9.87-3,9.87-9.22C108.34,26.79,107,24.29,104.33,23.32Zm-9.54-8.14h1.62a1.73,1.73,0,0,1,1.63.76,5.24,5.24,0,0,1,.54,2.61A4.67,4.67,0,0,1,98.15,21a2.35,2.35,0,0,1-1.63.76H94.79Zm3.79,18.44a3.31,3.31,0,0,1-2.06.76H94.89V26.79h1.63c1,0,1.74.21,2.06.86a6.54,6.54,0,0,1,.54,3A5.41,5.41,0,0,1,98.58,33.62Z"/><path class="cls-2" d="M127.54,40H111.27V8.13h8.78V32.86H128Z"/><path class="cls-2" d="M151.18,11.28c-2-2.5-5.21-3.8-9.65-3.8s-7.7,1.3-9.65,3.91S129,18.11,129,23.86s1,9.87,2.93,12.58,5.2,4,9.65,4,7.7-1.41,9.65-4.12,2.93-6.94,2.93-12.69S153.13,13.77,151.18,11.28Zm-6,13.88q0,4.72-.66,6.18c-.43,1-1.4,1.52-2.92,1.52s-2.5-.43-3-1.52-.76-3.14-.76-6.5v-1.2a20.32,20.32,0,0,1,.65-6.29c.44-1.08,1.41-1.62,2.93-1.62a3.06,3.06,0,0,1,3,1.62c.54,1.09.76,3.26.76,6.4Z"/><path class="cls-2" d="M176.77,17.57a28.41,28.41,0,0,0-7.26-1.52A3.13,3.13,0,0,0,166.36,18a17.76,17.76,0,0,0-.86,6.29,17.58,17.58,0,0,0,.76,6.29,3.17,3.17,0,0,0,3.25,2,14.44,14.44,0,0,0,2.82-.44V28.2h-2.28V22.12h9.76V40h-6.07l-.87-1.63h-.22c-.54.44-1.08.87-1.41,1.09a6.27,6.27,0,0,1-4,1.08q-10.74,0-10.74-16.27c0-5.42,1-9.54,2.82-12.36s5.1-4.34,9.55-4.34a23.67,23.67,0,0,1,9.22,1.63Z"/><path class="cls-2" d="M203.45,17.57a28.49,28.49,0,0,0-7.26-1.52A3.12,3.12,0,0,0,193,18a17.72,17.72,0,0,0-.87,6.29,17.82,17.82,0,0,0,.76,6.29,3.19,3.19,0,0,0,3.26,2A14.44,14.44,0,0,0,199,32.1V28.2h-2.28V22.12h9.76V40h-6.07l-.87-1.63h-.22c-.54.44-1.08.87-1.41,1.09a6.27,6.27,0,0,1-4,1.08q-10.74,0-10.74-16.27c0-5.42,1-9.54,2.82-12.36s5.1-4.34,9.55-4.34a23.58,23.58,0,0,1,9.21,1.63Z"/><path class="cls-2" d="M228.18,40H210.94V8.13h17.78l-.54,7.81h-8.46v4.77h7.38v6.84h-7.38v5.31h9Z"/><path class="cls-2" d="M249.87,26.46A10.08,10.08,0,0,0,252.58,23a12.13,12.13,0,0,0,.87-4.77c0-3.58-.76-6.07-2.39-7.7s-4-2.39-7.48-2.39H231.65V40h8.68V28.52h1.19L244.66,40h9.44Zm-6.4-4.12a2.34,2.34,0,0,1-1.95.76h-1.3V15.94h1.41a2,2,0,0,1,1.84.76,5.79,5.79,0,0,1,.54,2.82A5.49,5.49,0,0,1,243.47,22.34Z"/></g><g class="cls-8"><path class="cls-1" d="M104.33,50.1c-1.84-2.06-4.56-3-8-3a10.61,10.61,0,0,0-8,3c-1.84,2-2.82,4.88-2.82,8.68s1,6.62,2.82,8.68,4.55,3,8,3,6.19-1,8-3,2.82-4.88,2.82-8.68S106.28,52.06,104.33,50.1Zm-8,16.38a5,5,0,0,1-4.33-2c-1-1.3-1.41-3.26-1.41-5.75A9.93,9.93,0,0,1,92,53a5,5,0,0,1,4.33-2c3.8,0,5.75,2.6,5.75,7.7S100.1,66.48,96.3,66.48Z"/><path class="cls-1" d="M130.36,47.39V62.14a8.72,8.72,0,0,1-1.09,4.45A7.12,7.12,0,0,1,126,69.52a12.07,12.07,0,0,1-5,1,9.66,9.66,0,0,1-6.83-2.27A8,8,0,0,1,111.81,62V47.39h4.77V61.27a5.79,5.79,0,0,0,1.09,3.91c.65.87,1.84,1.19,3.47,1.19a4.61,4.61,0,0,0,3.47-1.19,5.8,5.8,0,0,0,1.08-3.91V47.39Z"/><path class="cls-1" d="M144.78,70.17H140V51.41h-6.18v-4H151v4h-6.18V70.17Z"/><path class="cls-1" d="M165.93,60.19a7.29,7.29,0,0,0,3.14-2.49,6.07,6.07,0,0,0,1.09-3.58,5.87,5.87,0,0,0-2.28-5.1c-1.41-1.19-3.79-1.74-6.83-1.74h-6.62V70.06h4.78V61.38h2.71l5.42,8.68h5.31Zm-1.84-3.47a5.76,5.76,0,0,1-3.37.76h-1.51V51.41h1.41a7,7,0,0,1,3.47.65,2.35,2.35,0,0,1,1.08,2.27A2.66,2.66,0,0,1,164.09,56.72Z"/><path class="cls-1" d="M188.49,70.17H175.36V47.39h13.13V51.3h-8.24v5H188v3.9h-7.7v5.86h8.24Z"/><path class="cls-1" d="M204.32,47.28h-5.86l-8,22.89h5.21l1.62-5.42h8.24l1.63,5.42h5.21Zm-5.86,13.34c1.63-5.31,2.61-8.56,2.93-9.87.11.33.22.87.44,1.52s1.08,3.47,2.6,8.35Z"/><path class="cls-1" d="M224.6,51.08a4.79,4.79,0,0,0-4.23,2.06,9.83,9.83,0,0,0-1.52,5.75c0,5.1,2,7.59,5.75,7.59a18.09,18.09,0,0,0,5.75-1.19v4a16.21,16.21,0,0,1-6.29,1.19c-3.25,0-5.86-1-7.59-3s-2.61-4.88-2.61-8.68a13.61,13.61,0,0,1,1.31-6.18,9.62,9.62,0,0,1,3.68-4.12,10.6,10.6,0,0,1,5.64-1.41,14.94,14.94,0,0,1,6.62,1.62l-1.52,3.91a27.16,27.16,0,0,0-2.6-1.09A5.94,5.94,0,0,0,224.6,51.08Z"/><path class="cls-1" d="M253.88,70.17H249V60.41h-9v9.76h-4.77V47.39H240v8.9h9v-8.9h4.77l.11,22.78Z"/></g></g></g></svg>