<svg xmlns="http://www.w3.org/2000/svg" xmlns:xlink="http://www.w3.org/1999/xlink" viewBox="0 0 434.31 95.46"><defs><style>.cls-1,.cls-16{fill:#ee703f;}.cls-2{fill:#5d3694;}.cls-3{opacity:0.66;}.cls-4{fill:url(#linear-gradient);}.cls-5{fill:url(#linear-gradient-2);}.cls-6{fill:url(#linear-gradient-3);}.cls-7{fill:url(#linear-gradient-4);}.cls-8{fill:url(#linear-gradient-5);}.cls-9{fill:url(#linear-gradient-6);}.cls-10{fill:url(#linear-gradient-7);}.cls-11{fill:url(#linear-gradient-8);}.cls-12{fill:url(#linear-gradient-9);}.cls-13{fill:url(#linear-gradient-10);}.cls-14{fill:url(#linear-gradient-11);}.cls-15,.cls-16{opacity:0.72;}.cls-16{isolation:isolate;}.cls-17{fill:url(#linear-gradient-12);}.cls-18{opacity:0.22;fill:url(#linear-gradient-13);}.cls-19{fill:url(#linear-gradient-14);}.cls-20{fill:url(#linear-gradient-15);}</style><linearGradient id="linear-gradient" x1="21.35" y1="88.44" x2="21.35" y2="12.53" gradientTransform="matrix(1, 0, 0, -1, 0, 104.14)" gradientUnits="userSpaceOnUse"><stop offset="0.37" stop-color="#fff" stop-opacity="0"/><stop offset="0.52" stop-color="#dcd9e3" stop-opacity="0.13"/><stop offset="0.8" stop-color="#7f7497" stop-opacity="0.49"/><stop offset="1" stop-color="#2e1f55" stop-opacity="0.8"/></linearGradient><linearGradient id="linear-gradient-2" x1="56.59" y1="88.44" x2="56.59" y2="12.53" xlink:href="#linear-gradient"/><linearGradient id="linear-gradient-3" x1="92.64" y1="88.44" x2="92.64" y2="12.53" xlink:href="#linear-gradient"/><linearGradient id="linear-gradient-4" x1="140.01" y1="91.43" x2="140.01" y2="-4.99" xlink:href="#linear-gradient"/><linearGradient id="linear-gradient-5" x1="185.05" y1="85.1" x2="185.33" y2="28.93" gradientTransform="matrix(1, 0, 0, -1, 0, 104.14)" gradientUnits="userSpaceOnUse"><stop offset="0.37" stop-color="#fff" stop-opacity="0"/><stop offset="1" stop-color="#2e1f55" stop-opacity="0.9"/></linearGradient><linearGradient id="linear-gradient-6" x1="222.97" y1="85.24" x2="223.24" y2="29.14" xlink:href="#linear-gradient-5"/><linearGradient id="linear-gradient-7" x1="261.61" y1="85.38" x2="261.88" y2="29.29" xlink:href="#linear-gradient-5"/><linearGradient id="linear-gradient-8" x1="295.73" y1="85.59" x2="295.94" y2="29.49" xlink:href="#linear-gradient-5"/><linearGradient id="linear-gradient-9" x1="319.22" y1="85.66" x2="319.43" y2="29.56" xlink:href="#linear-gradient-5"/><linearGradient id="linear-gradient-10" x1="352.33" y1="85.8" x2="352.61" y2="29.7" xlink:href="#linear-gradient-5"/><linearGradient id="linear-gradient-11" x1="394.67" y1="86.01" x2="394.87" y2="29.91" xlink:href="#linear-gradient-5"/><linearGradient id="linear-gradient-12" x1="379.12" y1="-79.41" x2="398.15" y2="-59.27" gradientTransform="translate(16.38 47.72) rotate(5.3)" gradientUnits="userSpaceOnUse"><stop offset="0.37" stop-color="#ee703f"/><stop offset="1" stop-color="#2e1f55" stop-opacity="0.9"/></linearGradient><linearGradient id="linear-gradient-13" x1="379.62" y1="-78.93" x2="405.71" y2="-46.67" gradientTransform="translate(16.38 47.72) rotate(5.3)" gradientUnits="userSpaceOnUse"><stop offset="0.37" stop-color="#fff" stop-opacity="0"/><stop offset="0.76" stop-color="#746a8e" stop-opacity="0.6"/><stop offset="1" stop-color="#2e1f55" stop-opacity="0.9"/></linearGradient><linearGradient id="linear-gradient-14" x1="378.09" y1="-71.65" x2="384.01" y2="-46.73" gradientTransform="translate(16.38 47.72) rotate(5.3)" xlink:href="#linear-gradient-5"/><linearGradient id="linear-gradient-15" x1="394.46" y1="-67.75" x2="395.92" y2="-41.19" gradientTransform="translate(16.38 47.72) rotate(5.3)" xlink:href="#linear-gradient-5"/></defs><title>logo 2</title><g id="Layer_2" data-name="Layer 2"><g id="Layer_1-2" data-name="Layer 1"><g id="Layer_1-3" data-name="Layer 1"><path class="cls-1" d="M0,26l2.85-.56A35.16,35.16,0,0,1,7,25.16a15.45,15.45,0,0,1,3.33,0,5.2,5.2,0,0,1,2.44,1,4.25,4.25,0,0,1,1.52,2.09,8.78,8.78,0,0,1,.49,3.33V40a19.6,19.6,0,0,1,4-1.18,25.51,25.51,0,0,1,4.1,0,20.25,20.25,0,0,1,7.65,1.46,18.67,18.67,0,0,1,6.33,4.1,19.17,19.17,0,0,1,4.31,7,25.18,25.18,0,0,1,1.6,9.25,26.23,26.23,0,0,1-1.6,9.45,18.68,18.68,0,0,1-4.59,7,19.83,19.83,0,0,1-6.95,4,30.69,30.69,0,0,1-9.32,1.39,30.7,30.7,0,0,1-9.38-1.32,24.56,24.56,0,0,1-6.47-3.2A7.93,7.93,0,0,1,.7,71ZM19.54,70.48a7.4,7.4,0,0,0,6-2.64,12.44,12.44,0,0,0,2.29-7.79,11.82,11.82,0,0,0-2.16-7.85,6.91,6.91,0,0,0-5.83-2.57,8.52,8.52,0,0,0-2.85,0,14.76,14.76,0,0,0-2.65,1V69a8.28,8.28,0,0,0,2.23.9,10.22,10.22,0,0,0,3.2.63Z"/><path class="cls-1" d="M63.68,80.21,61,80.7a21.88,21.88,0,0,1-3.62,0,16.14,16.14,0,0,1-3.26,0,5.85,5.85,0,0,1-2.51-1,5.08,5.08,0,0,1-1.53-2,9.42,9.42,0,0,1-.55-3.41V25.64l2.71-.21a32.41,32.41,0,0,1,3.41-.27,15.45,15.45,0,0,1,3.33,0,5.2,5.2,0,0,1,2.44,1,4.25,4.25,0,0,1,1.52,2.09,7.44,7.44,0,0,1,.56,3.33Z"/><path class="cls-1" d="M114.56,60.05A23.76,23.76,0,0,1,113,69a18,18,0,0,1-4.45,7,17.35,17.35,0,0,1-7,4.17,25.6,25.6,0,0,1-8.89,1.46,26.11,26.11,0,0,1-9-1.53,19.62,19.62,0,0,1-7-4.31,19.21,19.21,0,0,1-4.45-7,24.09,24.09,0,0,1-1.6-9,24.91,24.91,0,0,1,1.6-9,18.91,18.91,0,0,1,4.45-7,19.62,19.62,0,0,1,7-4.31,24.72,24.72,0,0,1,9-1.53,25.43,25.43,0,0,1,8.89,1.53,19.29,19.29,0,0,1,7,4.38,18.38,18.38,0,0,1,4.45,7A22.47,22.47,0,0,1,114.56,60.05Zm-29.19,0a13.92,13.92,0,0,0,1.94,7.79,6.4,6.4,0,0,0,5.5,2.71,6,6,0,0,0,5.35-2.78A13.58,13.58,0,0,0,100,60.05a13.53,13.53,0,0,0-1.88-7.71,6.31,6.31,0,0,0-5.42-2.71,6.18,6.18,0,0,0-5.43,2.71A12.92,12.92,0,0,0,85.37,60.05Z"/><path class="cls-1" d="M141.26,38.5a28.28,28.28,0,0,1,8.62,1.25,21,21,0,0,1,7,3.13,9.12,9.12,0,0,1,2.57,2.57,5.89,5.89,0,0,1,1,3.69v29.2a16,16,0,0,1-1.66,7.57,15.37,15.37,0,0,1-4.52,5.35,18.08,18.08,0,0,1-6.95,3.13,32.67,32.67,0,0,1-8.35,1A27.8,27.8,0,0,1,127,93.35a7.42,7.42,0,0,1-1.88-12.23,30.32,30.32,0,0,0,5.49,2.29,20.89,20.89,0,0,0,6.33.9,13.77,13.77,0,0,0,7-1.53A5.06,5.06,0,0,0,146.54,78V76.67a21.4,21.4,0,0,1-8.34,1.46A21.61,21.61,0,0,1,131.25,77a15.42,15.42,0,0,1-10-9.66,22.75,22.75,0,0,1-1.6-8.9,21.37,21.37,0,0,1,1.67-8.82,16.46,16.46,0,0,1,4.52-6.26,18.3,18.3,0,0,1,7-3.62A28.6,28.6,0,0,1,141.26,38.5Zm5.21,12.1L144.73,50A8.64,8.64,0,0,0,142,50a7.66,7.66,0,0,0-6.11,2.3,9.27,9.27,0,0,0-2.09,6.53,9.65,9.65,0,0,0,2.09,7,6.91,6.91,0,0,0,5.21,2.16,8.88,8.88,0,0,0,5.42-1.6Z"/><path class="cls-2" d="M203,68.19a11.84,11.84,0,0,1-4.73,9.94,22.91,22.91,0,0,1-13.9,3.61,45.13,45.13,0,0,1-6.47-.49,18.93,18.93,0,0,1-5.14-1.59,8.54,8.54,0,0,1-3.34-2.58,6.09,6.09,0,0,1-1.25-3.75,6.37,6.37,0,0,1,.83-3.41,9.19,9.19,0,0,1,2-2.29A32,32,0,0,0,176.57,70a22.79,22.79,0,0,0,7,1.05,7.7,7.7,0,0,0,4.17-.77,2.2,2.2,0,0,0,1.39-1.94,2.13,2.13,0,0,0-1.39-1.88,9.12,9.12,0,0,0-3.33-1l-2.51-.56a22.9,22.9,0,0,1-10.77-4.45,10.86,10.86,0,0,1-3.55-8.69,11.73,11.73,0,0,1,1.32-5.63,12,12,0,0,1,3.76-4.17,19.17,19.17,0,0,1,5.77-2.57,27.94,27.94,0,0,1,7.51-.91,31.08,31.08,0,0,1,5.77.49,20.31,20.31,0,0,1,4.72,1.32,9.68,9.68,0,0,1,3.2,2.43,5.27,5.27,0,0,1,1.11,3.41,7,7,0,0,1-.69,3.34,7.58,7.58,0,0,1-1.81,2.29,13.28,13.28,0,0,0-1.95-.9L193.32,50l-3.26-.62h-2.92a11.12,11.12,0,0,0-4.24.62,2,2,0,0,0-1.53,2,1.66,1.66,0,0,0,.83,1.46,8.91,8.91,0,0,0,3.2,1.11l2.57.56a24.31,24.31,0,0,1,11.33,5.07A10.89,10.89,0,0,1,203,68.19Z"/><path class="cls-2" d="M224.05,66.38a3.34,3.34,0,0,0,1.32,3.06,6.9,6.9,0,0,0,3.89,1,15.87,15.87,0,0,0,2.58,0,16.18,16.18,0,0,0,2.36-.56,14.91,14.91,0,0,1,1.32,2,6.94,6.94,0,0,1-1.88,7.92,13.3,13.3,0,0,1-8.34,1.95A17.06,17.06,0,0,1,214,78.4a13.4,13.4,0,0,1-4-10.84V31.69a15.12,15.12,0,0,1,6.25-.56,10.86,10.86,0,0,1,5.7,1.26,6.09,6.09,0,0,1,2.09,5.49v5.35H235a19.23,19.23,0,0,1,1,2.29,10.76,10.76,0,0,1,.41,2.58,5.73,5.73,0,0,1-1.25,4.17,4.58,4.58,0,0,1-3.47,1.32h-7.58Z"/><path class="cls-2" d="M264.16,81.67A30.1,30.1,0,0,1,255,80.28,20.06,20.06,0,0,1,248,76.11a18.5,18.5,0,0,1-4.93-7,24.75,24.75,0,0,1-1.81-9.8,23.07,23.07,0,0,1,1.81-9.46,18.09,18.09,0,0,1,4.72-6.46,17.69,17.69,0,0,1,7-3.75,24.29,24.29,0,0,1,7.65-1.26,25.18,25.18,0,0,1,8.07,1.32,20,20,0,0,1,6.25,3.69,16.45,16.45,0,0,1,4.1,5.63,17,17,0,0,1,1.46,7,5.57,5.57,0,0,1-1.6,4.31,8.25,8.25,0,0,1-4.45,2L255.4,65.34a7,7,0,0,0,3.75,4.1,14.09,14.09,0,0,0,6.54,1.39,23.76,23.76,0,0,0,6.39-.84,21.73,21.73,0,0,0,5-2.08,6.87,6.87,0,0,1,2.22,2.36,5.61,5.61,0,0,1,.91,3.13A6,6,0,0,1,276.74,79a18.22,18.22,0,0,1-6,1.88A40.56,40.56,0,0,1,264.16,81.67ZM261.8,48.86a7.72,7.72,0,0,0-3.48.7A6.88,6.88,0,0,0,256,51.22a7.36,7.36,0,0,0-1.39,2.37,11.29,11.29,0,0,0-.56,2.64l14.32-2.36a6.33,6.33,0,0,0-1.88-3.34A6,6,0,0,0,261.8,48.86Z"/><path class="cls-2" d="M303,80.21l-2.71.49a21.88,21.88,0,0,1-3.62,0,16.84,16.84,0,0,1-3.33,0,5.26,5.26,0,0,1-2.44-1,4.51,4.51,0,0,1-1.53-2,8.24,8.24,0,0,1-.55-3.41V25.64l2.71-.48a27.18,27.18,0,0,1,3.61,0,14.9,14.9,0,0,1,3.27,0,5.64,5.64,0,0,1,2.5,1,4.77,4.77,0,0,1,1.53,2.09,8.77,8.77,0,0,1,.56,3.33Z"/><path class="cls-2" d="M326.31,80.21l-2.72.49a21.76,21.76,0,0,1-3.61,0,16.94,16.94,0,0,1-3.34,0,5.22,5.22,0,0,1-2.43-1,4.52,4.52,0,0,1-1.39-2,8.08,8.08,0,0,1-.56-3.41V25.64l2.71-.48a27.33,27.33,0,0,1,3.62,0,14.9,14.9,0,0,1,3.27,0,5.69,5.69,0,0,1,2.5,1,4.77,4.77,0,0,1,1.53,2.09,8.58,8.58,0,0,1,.55,3.33Z"/><path class="cls-2" d="M351.89,38.5a37.07,37.07,0,0,1,8.2.91,19,19,0,0,1,6.39,2.85,12.62,12.62,0,0,1,4,4.72,16,16,0,0,1,1.39,7V72.5A5.6,5.6,0,0,1,370.73,76a14.06,14.06,0,0,1-2.92,2.36,29.81,29.81,0,0,1-15.23,3.27,35.15,35.15,0,0,1-8-.83,18.68,18.68,0,0,1-6-2.5,11.17,11.17,0,0,1-4-4.31,12.35,12.35,0,0,1-1.39-6,11.17,11.17,0,0,1,3.47-8.83,17.83,17.83,0,0,1,10.92-3.82l10.91-1.19v-.62a3.56,3.56,0,0,0-2.08-3.41,14.59,14.59,0,0,0-6.19-1,29.22,29.22,0,0,0-6.12.62,42.94,42.94,0,0,0-5.42,1.67,5.13,5.13,0,0,1-1.88-2.29,7.41,7.41,0,0,1-.76-3.2,5.39,5.39,0,0,1,1-3.47,8.56,8.56,0,0,1,3.27-2.23,27.91,27.91,0,0,1,5.7-1.32A49.39,49.39,0,0,1,351.89,38.5Zm.69,32.81a27.24,27.24,0,0,0,3.13,0,7.37,7.37,0,0,0,2.5-.83v-7l-6,.49a9.47,9.47,0,0,0-3.82,1,2.64,2.64,0,0,0-1.53,2.5,3.26,3.26,0,0,0,1.32,2.71A6.91,6.91,0,0,0,352.58,71.31Z"/><path class="cls-2" d="M394.78,80.21a12.53,12.53,0,0,1-2.64.49,22.73,22.73,0,0,1-3.69,0,16.94,16.94,0,0,1-3.34,0,5.22,5.22,0,0,1-2.43-1,4.51,4.51,0,0,1-1.53-2,8.24,8.24,0,0,1-.55-3.41v-25a7,7,0,0,1,.69-3.27,8.56,8.56,0,0,1,2-2.5,15.22,15.22,0,0,1,3.33-1.95A39.31,39.31,0,0,1,390.81,40a28.54,28.54,0,0,1,4.73-1,27.62,27.62,0,0,1,4.8-.42,11.06,11.06,0,0,1,6.32,1.6,5.43,5.43,0,0,1,2.37,5,7.11,7.11,0,0,1-.35,2.29,9.2,9.2,0,0,1-.83,2.09,30,30,0,0,0-3.55,0l-3.61.48-3.27.7a14.42,14.42,0,0,0-2.64.9Z"/><g class="cls-3"><path class="cls-4" d="M0,25.78l2.85-.55A33.12,33.12,0,0,1,7,25a15.45,15.45,0,0,1,3.33,0,5.2,5.2,0,0,1,2.44,1A4.25,4.25,0,0,1,14.25,28a8.78,8.78,0,0,1,.49,3.33v8.48a19.6,19.6,0,0,1,4-1.18,25.69,25.69,0,0,1,4.1-.35,20.44,20.44,0,0,1,7.65,1.46,18.69,18.69,0,0,1,6.33,4.11,19.08,19.08,0,0,1,4.31,7,25.12,25.12,0,0,1,1.6,9.24,26.29,26.29,0,0,1-1.6,9.46,18.71,18.71,0,0,1-4.94,6.39,19.57,19.57,0,0,1-6.95,4,30,30,0,0,1-9.31,1.39A30.16,30.16,0,0,1,10.5,80,24.32,24.32,0,0,1,4,76.81a7.93,7.93,0,0,1-3.69-7ZM19.54,70.27a7.4,7.4,0,0,0,6-2.64,12.44,12.44,0,0,0,2.29-7.79A11.82,11.82,0,0,0,25.65,52a6.94,6.94,0,0,0-5.83-2.57,8.52,8.52,0,0,0-2.85,0,15.57,15.57,0,0,0-2.65,1V69a8.28,8.28,0,0,0,2.23.9,10.17,10.17,0,0,0,3.2.42Z"/><path class="cls-5" d="M63.68,80,61,80.49a21.88,21.88,0,0,1-3.62,0,14.81,14.81,0,0,1-3.26,0,5.73,5.73,0,0,1-2.51-1,5.08,5.08,0,0,1-1.53-2,9.42,9.42,0,0,1-.55-3.41V25.43l2.71-.2A30,30,0,0,1,55.62,25,15.45,15.45,0,0,1,59,25a5.2,5.2,0,0,1,2.44,1A4.25,4.25,0,0,1,62.91,28a7.44,7.44,0,0,1,.56,3.33Z"/><path class="cls-6" d="M114.56,59.84A23.78,23.78,0,0,1,113,69a18,18,0,0,1-4.45,7,17.35,17.35,0,0,1-7,4.17,25.6,25.6,0,0,1-8.89,1.46,26.11,26.11,0,0,1-9-1.53,19.62,19.62,0,0,1-7-4.31,19.21,19.21,0,0,1-4.45-7,24.09,24.09,0,0,1-1.6-9,24.91,24.91,0,0,1,1.6-9,18.91,18.91,0,0,1,4.45-7,19.62,19.62,0,0,1,7-4.31,24.72,24.72,0,0,1,9-1.53,25.43,25.43,0,0,1,8.89,1.53,19.29,19.29,0,0,1,7,4.38,18.38,18.38,0,0,1,4.45,7A22.36,22.36,0,0,1,114.56,59.84Zm-29.19,0a13.92,13.92,0,0,0,1.94,7.79,6.4,6.4,0,0,0,5.5,2.71,6,6,0,0,0,5.35-2.78A13.55,13.55,0,0,0,100,59.84a13.53,13.53,0,0,0-1.88-7.71,6.31,6.31,0,0,0-5.42-2.71,6.18,6.18,0,0,0-5.43,2.71A12.92,12.92,0,0,0,85.37,59.84Z"/><path class="cls-7" d="M141.26,38.29a28,28,0,0,1,8.62,1.26,20.75,20.75,0,0,1,7,3.12,9,9,0,0,1,2.57,2.58,5.85,5.85,0,0,1,1,3.68v29.2a16,16,0,0,1-1.66,7.57,15.49,15.49,0,0,1-4.52,5.36,18.21,18.21,0,0,1-6.95,3.12,32.24,32.24,0,0,1-8.35,1A27.8,27.8,0,0,1,127,93.14a7.88,7.88,0,0,1-3.69-10.29,6.84,6.84,0,0,1,1.81-1.94,30.32,30.32,0,0,0,5.49,2.29,20.58,20.58,0,0,0,6.33.9,13.86,13.86,0,0,0,7-1.52,5.09,5.09,0,0,0,2.64-4.8V76.46a21.4,21.4,0,0,1-8.34,1.46,21.88,21.88,0,0,1-6.95-1.11,17.12,17.12,0,0,1-6-3.48,17,17,0,0,1-4-6.19,22.73,22.73,0,0,1-1.6-8.89,21.39,21.39,0,0,1,1.67-8.83,16.46,16.46,0,0,1,4.52-6.26,18.14,18.14,0,0,1,7-3.61A28.28,28.28,0,0,1,141.26,38.29Zm5.21,12.1-1.74-.63a8.64,8.64,0,0,0-2.78,0,7.73,7.73,0,0,0-6.11,2.3,9.27,9.27,0,0,0-2.09,6.53,9.64,9.64,0,0,0,2.09,7,6.91,6.91,0,0,0,5.21,2.16,8.81,8.81,0,0,0,5.42-1.6Z"/><path class="cls-8" d="M203,68a11.83,11.83,0,0,1-4.73,9.94,22.91,22.91,0,0,1-13.9,3.61,46.61,46.61,0,0,1-6.47-.48,19,19,0,0,1-5.14-1.6,8.61,8.61,0,0,1-3.34-2.57,6.14,6.14,0,0,1-1.25-3.76,6.31,6.31,0,0,1,.83-3.4,9.06,9.06,0,0,1,2-2.3,31.26,31.26,0,0,0,5.56,2.36,22.79,22.79,0,0,0,7,1,7.7,7.7,0,0,0,4.17-.77,2.2,2.2,0,0,0,1.39-1.94,2.13,2.13,0,0,0-1.39-1.88,9.31,9.31,0,0,0-3.33-1l-2.51-.56a22.9,22.9,0,0,1-10.77-4.45,10.86,10.86,0,0,1-3.55-8.69,11.73,11.73,0,0,1,1.32-5.63,12,12,0,0,1,3.76-4.17,19.17,19.17,0,0,1,5.77-2.57,27.54,27.54,0,0,1,7.51-.9,31.07,31.07,0,0,1,5.77.48A20.31,20.31,0,0,1,196.38,40a9.58,9.58,0,0,1,3.2,2.44,5.23,5.23,0,0,1,1.11,3.4,7,7,0,0,1-.69,3.34,7.35,7.35,0,0,1-1.81,2.29,13.28,13.28,0,0,0-1.95-.9l-2.92-.84-3.26-.62h-2.92a11.12,11.12,0,0,0-4.24.62,2,2,0,0,0-1.53,2,1.66,1.66,0,0,0,.83,1.46,8.91,8.91,0,0,0,3.2,1.11l2.57.56a24.31,24.31,0,0,1,11.33,5.07A10.89,10.89,0,0,1,203,68Z"/><path class="cls-9" d="M224.05,66.17a3.34,3.34,0,0,0,1.32,3.06,6.9,6.9,0,0,0,3.89,1,15.87,15.87,0,0,0,2.58,0,17.55,17.55,0,0,0,2.36-.55,14.21,14.21,0,0,1,1.32,2,7,7,0,0,1-1.88,7.93,13.35,13.35,0,0,1-8.34,1.94A17.11,17.11,0,0,1,214,78.2a13.43,13.43,0,0,1-4-10.85V31.48a15.38,15.38,0,0,1,6.25-.55,10.76,10.76,0,0,1,5.7,1.25,6.09,6.09,0,0,1,2.09,5.49V43H235a18.69,18.69,0,0,1,1,2.3,10.39,10.39,0,0,1,.41,2.78,5.73,5.73,0,0,1-1.25,4.17,4.58,4.58,0,0,1-3.47,1.32h-7.58Z"/><path class="cls-10" d="M264.16,81.46A29.8,29.8,0,0,1,255,80.07,20.06,20.06,0,0,1,248,75.9a18.5,18.5,0,0,1-4.93-7,24.75,24.75,0,0,1-1.81-9.8,23.06,23.06,0,0,1,1.81-9.45,18.22,18.22,0,0,1,4.72-6.47,17.69,17.69,0,0,1,7-3.75,24,24,0,0,1,7.65-1.25,24.64,24.64,0,0,1,8.07,1.32,19.83,19.83,0,0,1,6.25,3.68,16.65,16.65,0,0,1,4.1,5.63,17,17,0,0,1,1.46,7,5.57,5.57,0,0,1-1.6,4.31,8.17,8.17,0,0,1-4.45,2L255.4,65.13a7,7,0,0,0,3.75,4.1,14,14,0,0,0,6.54,1.39,23.76,23.76,0,0,0,6.39-.84,21.73,21.73,0,0,0,5-2.08,6.87,6.87,0,0,1,2.22,2.36,5.61,5.61,0,0,1,.91,3.13,6,6,0,0,1-3.48,5.63,18.22,18.22,0,0,1-6,1.88A40.56,40.56,0,0,1,264.16,81.46ZM261.8,48.65a7.72,7.72,0,0,0-3.48.7A6.77,6.77,0,0,0,256,51a7.21,7.21,0,0,0-1.39,2.36A11.29,11.29,0,0,0,254,56l14.32-2.36a6.33,6.33,0,0,0-1.88-3.34A6.06,6.06,0,0,0,261.8,48.65Z"/><path class="cls-11" d="M303,80l-2.71.49a21.88,21.88,0,0,1-3.62,0,15.45,15.45,0,0,1-3.33,0,5.16,5.16,0,0,1-2.44-1,4.51,4.51,0,0,1-1.53-2,8.24,8.24,0,0,1-.55-3.41V25.43l2.71-.48a31.06,31.06,0,0,1,3.61,0,14.9,14.9,0,0,1,3.27,0,5.64,5.64,0,0,1,2.5,1A4.77,4.77,0,0,1,302.39,28a8.81,8.81,0,0,1,.56,3.33Z"/><path class="cls-12" d="M326.31,80l-2.72.49a21.76,21.76,0,0,1-3.61,0,15.54,15.54,0,0,1-3.34,0,5.12,5.12,0,0,1-2.43-1,4.52,4.52,0,0,1-1.39-2,8.08,8.08,0,0,1-.56-3.41V25.43L315,25a31.23,31.23,0,0,1,3.62,0,14.9,14.9,0,0,1,3.27,0,5.69,5.69,0,0,1,2.5,1A4.77,4.77,0,0,1,325.89,28a8.61,8.61,0,0,1,.55,3.33Z"/><path class="cls-13" d="M351.89,38.29a37.07,37.07,0,0,1,8.2.91,19.25,19.25,0,0,1,6.39,2.85,12.57,12.57,0,0,1,4,4.73,16,16,0,0,1,1.39,6.95V72.29a5.6,5.6,0,0,1-1.18,3.54,14.44,14.44,0,0,1-2.92,2.37,29.9,29.9,0,0,1-15.23,3.26,34.05,34.05,0,0,1-8-.83,18.46,18.46,0,0,1-6-2.5,11.17,11.17,0,0,1-4-4.31,12.32,12.32,0,0,1-1.39-6A11.19,11.19,0,0,1,336.66,59a17.89,17.89,0,0,1,10.92-4l10.91-1.18v-.49A3.56,3.56,0,0,0,356.41,50a14.75,14.75,0,0,0-6.19-1,29.23,29.23,0,0,0-6.12.63,42.89,42.89,0,0,0-5.42,1.66,5.13,5.13,0,0,1-1.88-2.29,7.38,7.38,0,0,1-.76-3.2,5.39,5.39,0,0,1,1-3.47A8.56,8.56,0,0,1,340.35,40a27.91,27.91,0,0,1,5.7-1.32A51.61,51.61,0,0,1,351.89,38.29Zm.69,32.82c1,0,2.09,0,3.13,0a7.39,7.39,0,0,0,2.5-.84V63.32l-6,.49a9.47,9.47,0,0,0-3.82,1,2.65,2.65,0,0,0-1.53,2.5,3.26,3.26,0,0,0,1.32,2.71A7,7,0,0,0,352.58,71.11Z"/><path class="cls-14" d="M394.78,80a12.53,12.53,0,0,1-2.64.49,20.67,20.67,0,0,1-3.69,0,15.54,15.54,0,0,1-3.34,0,5.12,5.12,0,0,1-2.43-1,4.51,4.51,0,0,1-1.53-2,8.24,8.24,0,0,1-.55-3.41v-25a7,7,0,0,1,.69-3.27,8.56,8.56,0,0,1,2-2.5,15.21,15.21,0,0,1,3.33-2.16,37.16,37.16,0,0,1,4.17-1.52,27.59,27.59,0,0,1,4.73-1,28.63,28.63,0,0,1,4.8-.41,11.05,11.05,0,0,1,6.32,1.59,5.43,5.43,0,0,1,2.37,5,7.11,7.11,0,0,1-.35,2.29,9.2,9.2,0,0,1-.83,2.09,30,30,0,0,0-3.55,0l-3.61.49-3.27.69a15.21,15.21,0,0,0-2.64.9Z"/></g><g class="cls-15"><path class="cls-1" d="M20.86,70.2h0a7,7,0,0,0,6-2.64,12.28,12.28,0,0,0,2.36-7.79A12,12,0,0,0,27,51.92a7,7,0,0,0-6.12-2.57A11,11,0,0,0,18,49.7h0a11.8,11.8,0,0,1,1.88,0,6.91,6.91,0,0,1,5.83,2.57,11.83,11.83,0,0,1,2.09,7.78,12.37,12.37,0,0,1-2.09,7.79A7,7,0,0,1,20.86,70.2Z"/><path class="cls-1" d="M20.86,81.39a27.59,27.59,0,0,1-9.11-1.32,23,23,0,0,1-6.53-3.19,7.93,7.93,0,0,1-3.69-7V25.78h1L0,26V70.48a7.93,7.93,0,0,0,3.69,7,24.35,24.35,0,0,0,6.46,3.2A30.46,30.46,0,0,0,19.54,82a31.91,31.91,0,0,0,5.84-.63A29.68,29.68,0,0,1,20.86,81.39Z"/><path class="cls-1" d="M15.71,39.75c1.19-.41,2.3-.69,3.34-1h-.69a22.29,22.29,0,0,0-2.65.77Z"/></g><path class="cls-16" d="M62.57,80.42a22.73,22.73,0,0,1-3.69,0,22.17,22.17,0,0,1-3.26,0,5.36,5.36,0,0,1-4-3.06A9.34,9.34,0,0,1,51.1,74V25.71H49.71V74.37a9.42,9.42,0,0,0,.55,3.41,5,5,0,0,0,1.53,2,5.75,5.75,0,0,0,2.5,1,16.24,16.24,0,0,0,3.27,0,21.88,21.88,0,0,0,3.62,0l2.71-.49h0Z"/><g class="cls-15"><path class="cls-1" d="M94.06,70.27h0a6.17,6.17,0,0,0,5.42-2.71,13.87,13.87,0,0,0,1.88-7.79,13,13,0,0,0-2-7.71A6.17,6.17,0,0,0,94,49.35a6.53,6.53,0,0,0-1.25,0,6.31,6.31,0,0,1,5.35,2.71A13.53,13.53,0,0,1,100,59.77a13.55,13.55,0,0,1-1.88,7.72A5.62,5.62,0,0,1,94.06,70.27Z"/><path class="cls-1" d="M94.06,81.39a23.9,23.9,0,0,1-8.9-1.53A18.52,18.52,0,0,1,73.83,69a23.48,23.48,0,0,1-1.6-9A22.73,22.73,0,0,1,73.83,51a18.5,18.5,0,0,1,4.45-7,19.44,19.44,0,0,1,7-4.31,20.82,20.82,0,0,1,3.47-.9A22,22,0,0,0,83.84,40a19.53,19.53,0,0,0-7,4.31,19.08,19.08,0,0,0-4.45,6.95,24.79,24.79,0,0,0-1.6,9A24.33,24.33,0,0,0,72.44,69a19.21,19.21,0,0,0,4.45,7,19.53,19.53,0,0,0,7,4.31,26.11,26.11,0,0,0,9,1.53,27.49,27.49,0,0,0,5.49-.62A27.37,27.37,0,0,1,94.06,81.39Z"/></g><g class="cls-15"><path class="cls-1" d="M145.36,82.85A5.2,5.2,0,0,0,148.07,78v-1.6a11.13,11.13,0,0,1-1.39.42V78A5.06,5.06,0,0,1,144,82.78a8,8,0,0,1-2.71,1A10.57,10.57,0,0,0,145.36,82.85Z"/><path class="cls-1" d="M144.32,67.07a7.74,7.74,0,0,0,3.47-1.39V50.39a5.71,5.71,0,0,0-1.74-.69,9.64,9.64,0,0,0-2.78-.35,9.47,9.47,0,0,0-3.61.62A11,11,0,0,1,142,50a8.64,8.64,0,0,1,2.78,0l1.74.63V66A7.71,7.71,0,0,1,144.32,67.07Z"/><path class="cls-1" d="M131.25,77a21.61,21.61,0,0,0,6.95,1.12,24,24,0,0,0,5.21-.56,22.15,22.15,0,0,1-3.82,0,22.19,22.19,0,0,1-7-1.18,15,15,0,0,1-5.91-3.48,16.89,16.89,0,0,1-4.1-6.11,23.1,23.1,0,0,1-1.53-9A23,23,0,0,1,122.7,49a16.3,16.3,0,0,1,4.52-6.19,18.35,18.35,0,0,1,6.95-3.68l3.13-.7a23.09,23.09,0,0,0-4.45,1,18.39,18.39,0,0,0-7,3.61,16.44,16.44,0,0,0-4.51,6.26,21.39,21.39,0,0,0-1.67,8.83,22.73,22.73,0,0,0,1.6,8.89,17.3,17.3,0,0,0,9.94,10Z"/><path class="cls-1" d="M140.15,95.16a29.25,29.25,0,0,1-12-2,7.54,7.54,0,0,1-3.55-10.29,4.45,4.45,0,0,1,1.32-1.6l-.83-.13a6.84,6.84,0,0,0-1.74,2.22,7.23,7.23,0,0,0,3.55,10,27.8,27.8,0,0,0,11.88,2.09,30.55,30.55,0,0,0,5.64-.56A29.62,29.62,0,0,1,140.15,95.16Z"/></g><path class="cls-2" d="M190.33,49.35l3.27.62,2.92.84a14.31,14.31,0,0,1,1.95.9l.48-.62a4,4,0,0,0-1.11-.49,17.74,17.74,0,0,0-3.2-.84,26.43,26.43,0,0,0-3.19-.62,16.59,16.59,0,0,0-3,0,13.76,13.76,0,0,0-3.27,0h2.5Z"/><path class="cls-2" d="M182.13,64.85l2.5.56a9.16,9.16,0,0,1,3.34,1,2.12,2.12,0,0,1,1,1.88,2.2,2.2,0,0,1-1.39,1.94,5.91,5.91,0,0,1-1.18.42,6.73,6.73,0,0,0,2.5-.63,2.26,2.26,0,0,0,1.39-2,2,2,0,0,0-1-1.81A8,8,0,0,0,186,65.13l-2.57-.49a23.89,23.89,0,0,1-10.77-4.45,11,11,0,0,1-3.55-8.76,11.6,11.6,0,0,1,1.32-5.56,12,12,0,0,1,3.76-4.17,17.78,17.78,0,0,1,5.84-2.57l2.29-.49a28.76,28.76,0,0,0-3.68.7,19,19,0,0,0-5.77,2.57,12,12,0,0,0-3.76,4.17,11.61,11.61,0,0,0-1.32,5.63,10.83,10.83,0,0,0,3.55,8.69A22.86,22.86,0,0,0,182.13,64.85Z"/><path class="cls-2" d="M185.54,81.46a38.91,38.91,0,0,1-6.47-.48,19.86,19.86,0,0,1-5.28-1.53,10,10,0,0,1-3.34-2.64,6.24,6.24,0,0,1-1.18-3.76,6.83,6.83,0,0,1,.84-3.4A8.3,8.3,0,0,1,171.57,68l-.84-.35a9.15,9.15,0,0,0-2,2.29,6.29,6.29,0,0,0-.84,3.41,6.09,6.09,0,0,0,1.25,3.75,8.54,8.54,0,0,0,3.34,2.58,18.93,18.93,0,0,0,5.14,1.59,45.13,45.13,0,0,0,6.47.49,35.35,35.35,0,0,0,8.2-.9A33.89,33.89,0,0,1,185.54,81.46Z"/><path class="cls-2" d="M226.62,81.32A17.11,17.11,0,0,1,215.5,78a13.42,13.42,0,0,1-4-10.85V31.41h1.32a21.35,21.35,0,0,0-2.64.56V67.35a13.4,13.4,0,0,0,4,10.85,17.11,17.11,0,0,0,11.33,3.33,19.56,19.56,0,0,0,5.28-.55A22.36,22.36,0,0,1,226.62,81.32Z"/><path class="cls-2" d="M233.23,69.92h0Z"/><path class="cls-2" d="M225.37,53.52h6.26a6,6,0,0,0,2-.35h-8.27Z"/><path class="cls-2" d="M276.05,62.35l-19.68,2.92h0l19.19-2.85Z"/><path class="cls-2" d="M265.48,81.39A29.36,29.36,0,0,1,256.37,80,20.7,20.7,0,0,1,249,75.9a19.43,19.43,0,0,1-4.94-7,25,25,0,0,1-1.81-9.73,23.1,23.1,0,0,1,1.81-9.46,18.34,18.34,0,0,1,4.73-6.53,19.64,19.64,0,0,1,6.95-3.75l2.92-.7a22.85,22.85,0,0,0-4.24,1,17.64,17.64,0,0,0-7,3.76A18,18,0,0,0,242.75,50a23.07,23.07,0,0,0-1.81,9.46A24.83,24.83,0,0,0,242.75,69a18.5,18.5,0,0,0,4.93,7,20,20,0,0,0,7,4.17,29.69,29.69,0,0,0,9.17,1.39,41,41,0,0,0,6.26-.55h.9A43.89,43.89,0,0,1,265.48,81.39Z"/><path class="cls-2" d="M267.84,50.25a6.33,6.33,0,0,0-4.72-1.67,8.69,8.69,0,0,0-1.25,0,6,6,0,0,1,4.58,1.67,6.93,6.93,0,0,1,1.88,3.34h1.32A6.09,6.09,0,0,0,267.84,50.25Z"/><path class="cls-2" d="M277,68.39h0a21.33,21.33,0,0,1-5,2.09l-2,.42a18.83,18.83,0,0,0,3.4-.7A20.07,20.07,0,0,0,277,68.39Z"/><path class="cls-2" d="M301.56,80.42a19.9,19.9,0,0,1-3.62,0,22.17,22.17,0,0,1-3.26,0,5.48,5.48,0,0,1-2.71-1,4.37,4.37,0,0,1-1.53-2,9.17,9.17,0,0,1-.56-3.4V25.71h-1.32V74.37a8.11,8.11,0,0,0,.56,3.41,4.39,4.39,0,0,0,1.52,2,5.21,5.21,0,0,0,2.44,1,16.84,16.84,0,0,0,3.33,0,21.88,21.88,0,0,0,3.62,0l2.71-.49h0Z"/><path class="cls-2" d="M324.92,80.42a19.9,19.9,0,0,1-3.62,0,22.31,22.31,0,0,1-3.27,0,5.43,5.43,0,0,1-2.5-1,5.08,5.08,0,0,1-1.53-2,9,9,0,0,1-.55-3.4V25.71h-1.33V74.37a8.11,8.11,0,0,0,.56,3.41,4.42,4.42,0,0,0,1.53,2,5.14,5.14,0,0,0,2.43,1,16.94,16.94,0,0,0,3.34,0,21.76,21.76,0,0,0,3.61,0l2.72-.49h0Z"/><path class="cls-2" d="M349.87,49.14a14.56,14.56,0,0,1,6.19,1,3.54,3.54,0,0,1,2.08,3.41v.48h1.39v-.69a3.69,3.69,0,0,0-2.15-3.48,14,14,0,0,0-6.12-1,25.84,25.84,0,0,0-6.19.7h-.55A27.39,27.39,0,0,1,349.87,49.14Z"/><path class="cls-2" d="M356.61,70.83H357a10.44,10.44,0,0,0,2.57-.77v-7l-6.05.49a11.25,11.25,0,0,0-2.29.42h1l6-.49v7A5.79,5.79,0,0,1,356.61,70.83Z"/><path class="cls-2" d="M338.33,51.43l1.18-.34a6.11,6.11,0,0,1-1.67-2.16,7,7,0,0,1-.76-3.27,5.24,5.24,0,0,1,1-3.4,7.71,7.71,0,0,1,3.2-2.23l2.5-.76a25.46,25.46,0,0,0-3.82,1,8.63,8.63,0,0,0-3.27,2.23,5.45,5.45,0,0,0-1,3.47,7.41,7.41,0,0,0,.76,3.2A5.2,5.2,0,0,0,338.33,51.43Z"/><path class="cls-2" d="M353.9,81.39a34.6,34.6,0,0,1-7.92-.83,18.91,18.91,0,0,1-6.12-2.5A10.8,10.8,0,0,1,336,73.82a12.15,12.15,0,0,1-1.39-6,11.27,11.27,0,0,1,3.4-8.83,15.07,15.07,0,0,1,7-3.2,16,16,0,0,0-8.28,3.48,11.17,11.17,0,0,0-3.47,8.83,12.35,12.35,0,0,0,1.39,6,11.17,11.17,0,0,0,4,4.31,18.68,18.68,0,0,0,6,2.5,35.15,35.15,0,0,0,8,.83,39.79,39.79,0,0,0,8.9-1A43.79,43.79,0,0,1,353.9,81.39Z"/><path class="cls-2" d="M393.46,80.49a32.45,32.45,0,0,1-3.69,0,22.31,22.31,0,0,1-3.27,0,5.75,5.75,0,0,1-2.5-1,5.05,5.05,0,0,1-1.67-2,9.16,9.16,0,0,1-.55-3.4V49a7.84,7.84,0,0,1,.69-3.27,7.64,7.64,0,0,1,2.09-2.43,15,15,0,0,1,3.4-2.16c1.33-.55,2.72-1,4.25-1.52a32.74,32.74,0,0,1,3.68-.84h-.35a28.54,28.54,0,0,0-4.73,1,39.31,39.31,0,0,0-4.17,1.53,15.22,15.22,0,0,0-3.33,1.95,8.56,8.56,0,0,0-2,2.5,7,7,0,0,0-.69,3.27v25a8.24,8.24,0,0,0,.55,3.41,4.51,4.51,0,0,0,1.53,2,5.16,5.16,0,0,0,2.43,1,15.54,15.54,0,0,0,3.34,0,20.67,20.67,0,0,0,3.69,0,11.25,11.25,0,0,0,2,0Z"/><path class="cls-2" d="M405.62,49.42A29.41,29.41,0,0,0,402,50h-.77a8,8,0,0,0,3.06-.41,30,30,0,0,1,3.55,0h0Z"/></g><path class="cls-2" d="M433.42,18.86c-.61-.42-1.27-.77-1.91-1.14l-3.2-1.82c-1.1-.64-2.18-1.34-3.31-1.93a2.65,2.65,0,0,1-1.59-2.34c-.14-2.13-.31-4.25-.48-6.38-.08-1.12-.17-2.25-.29-3.38A2.07,2.07,0,0,0,419.22.5l-.47.41L411.89,7.1a2.52,2.52,0,0,1-2.27.67c-.78-.16-1.54-.37-2.31-.57-1.24-.31-2.48-.64-3.72-.94s-2.44-.55-3.66-.84a1.88,1.88,0,0,0-1.85.45l-.5.44-.29.71a6,6,0,0,0,.7,2.31c1.17,2.61,2.3,5.24,3.5,7.83a2.67,2.67,0,0,1-.15,2.64c-.64,1.08-1.3,2.14-2,3.21-.88,1.41-1.77,2.81-2.64,4.22a11.65,11.65,0,0,0-.72,1.35,2,2,0,0,0,1.08,2.51,4.08,4.08,0,0,0,2,.1c3-.3,6-.63,9-.94a2.21,2.21,0,0,1,2,.81l1.54,1.82,4.5,5.27a7.81,7.81,0,0,0,.75.77,2,2,0,0,0,3.18-.82,12.36,12.36,0,0,0,.41-1.56c.28-1.33.54-2.65.82-4s.58-2.8.89-4.2a2.52,2.52,0,0,1,1.37-2l3.85-1.63c1.87-.78,3.76-1.53,5.63-2.33A2,2,0,0,0,433.42,18.86ZM422.56,20.4l-2.42,1-1.66.7a1.07,1.07,0,0,0-.59.87c-.13.6-.26,1.2-.38,1.8s-.23,1.15-.35,1.71c-.05.23-.11.46-.18.68a.87.87,0,0,1-1.37.35,3.31,3.31,0,0,1-.32-.33l-1.94-2.27-.66-.78a.93.93,0,0,0-.86-.35l-3.88.41a1.8,1.8,0,0,1-.89-.05.87.87,0,0,1-.46-1.08,6.45,6.45,0,0,1,.31-.58l1.14-1.82q.42-.68.84-1.38a1.14,1.14,0,0,0,.06-1.13c-.51-1.12-1-2.25-1.5-3.37-.15-.33-.41-.79-.25-1.16a.66.66,0,0,1,.14-.2.94.94,0,0,1,.94-.32l1.58.36,1.6.4c.33.09.66.18,1,.25a1.11,1.11,0,0,0,1-.29l2.95-2.66.2-.18a.9.9,0,0,1,1.48.59c.05.48.08,1,.12,1.45.07.92.14,1.83.2,2.75a1.18,1.18,0,0,0,.69,1c.49.25.95.55,1.42.82l1.38.79c.28.16.56.31.82.49A.88.88,0,0,1,422.56,20.4Z"/><path class="cls-17" d="M403.27,25.15a8.52,8.52,0,0,1,.46-.84c.54-.88,1.09-1.76,1.64-2.64.41-.66.82-1.32,1.22-2a1.67,1.67,0,0,0,.09-1.65c-.74-1.61-1.45-3.25-2.17-4.88a6.66,6.66,0,0,1-.31-.73,1.26,1.26,0,0,1,0-1,1.35,1.35,0,0,1,.43-.49,1.26,1.26,0,0,1,1.12-.24l2.28.52,2.32.59c.48.12,1,.25,1.44.35a1.56,1.56,0,0,0,1.42-.42l4.27-3.86.29-.25a1.31,1.31,0,0,1,1.76.07A1.29,1.29,0,0,0,417.38,7l-.29.25-4.28,3.86a1.56,1.56,0,0,1-1.42.42c-.48-.1-1-.23-1.44-.35l-2.31-.59L405.36,10a1.24,1.24,0,0,0-.74,0,1.79,1.79,0,0,0-.59.39,1.18,1.18,0,0,0-.3.6,1.47,1.47,0,0,0,.13.71c.08.25.19.48.29.72.73,1.62,1.43,3.26,2.18,4.87a1.65,1.65,0,0,1-.1,1.65c-.39.67-.81,1.33-1.22,2-.54.87-1.1,1.75-1.64,2.63a6.78,6.78,0,0,0-.45.84,1.24,1.24,0,0,0,.3,1.3A1.07,1.07,0,0,1,403.27,25.15Z"/><path class="cls-1" d="M433.42,18.86c-.61-.42-1.27-.77-1.91-1.14l-3.2-1.82c-1.1-.64-2.18-1.34-3.31-1.93a2.65,2.65,0,0,1-1.59-2.34c-.14-2.13-.31-4.25-.48-6.38-.08-1.12-.17-2.25-.29-3.38A2.07,2.07,0,0,0,419.22.5l-.47.41L411.89,7.1a2.52,2.52,0,0,1-2.27.67c-.78-.16-1.54-.37-2.31-.57-1.24-.31-2.48-.64-3.72-.94s-2.44-.55-3.66-.84a1.88,1.88,0,0,0-1.85.45l-.5.44-.29.71a6,6,0,0,0,.7,2.31c1.17,2.61,2.3,5.24,3.5,7.83a2.67,2.67,0,0,1-.15,2.64c-.64,1.08-1.3,2.14-2,3.21-.88,1.41-1.77,2.81-2.64,4.22a11.65,11.65,0,0,0-.72,1.35,2,2,0,0,0,1.08,2.51,4.08,4.08,0,0,0,2,.1c3-.3,6-.63,9-.94a2.21,2.21,0,0,1,2,.81l1.54,1.82,4.5,5.27a7.81,7.81,0,0,0,.75.77,2,2,0,0,0,3.18-.82,12.36,12.36,0,0,0,.41-1.56c.28-1.33.54-2.65.82-4s.58-2.8.89-4.2a2.52,2.52,0,0,1,1.37-2l3.85-1.63c1.87-.78,3.76-1.53,5.63-2.33A2,2,0,0,0,433.42,18.86Zm-7.5,1.73L422.44,22c-.79.32-1.58.66-2.37,1a1.55,1.55,0,0,0-.85,1.24c-.19.86-.36,1.72-.54,2.59s-.33,1.63-.51,2.45a8,8,0,0,1-.25,1,1.24,1.24,0,0,1-2,.5,2.93,2.93,0,0,1-.46-.47q-1.39-1.62-2.78-3.25l-1-1.12a1.34,1.34,0,0,0-1.22-.5L405,26a2.46,2.46,0,0,1-1.26-.06,1.26,1.26,0,0,1-.66-1.55c.13-.28.28-.56.44-.83l1.63-2.6c.4-.66.81-1.31,1.21-2a1.63,1.63,0,0,0,.09-1.63c-.74-1.6-1.44-3.21-2.16-4.82-.22-.52-.62-1.23-.29-1.78a1.36,1.36,0,0,1,1.5-.58c.32.11.7.2,1,.28l4.08,1a5.22,5.22,0,0,0,1.24.17,1.6,1.6,0,0,0,1.05-.46c1.41-1.27,2.78-2.56,4.19-3.83l.29-.25a1.28,1.28,0,0,1,2.11.85c.07.69.13,1.39.18,2.08.1,1.31.21,2.62.29,3.93a1.66,1.66,0,0,0,1,1.45c.7.36,1.36.79,2,1.18l2,1.13c.39.23.8.44,1.18.7A1.26,1.26,0,0,1,425.92,20.59Z"/><path class="cls-18" d="M433.42,18.86c-.61-.42-1.27-.77-1.91-1.14l-3.2-1.82c-1.1-.64-2.18-1.34-3.31-1.93a2.65,2.65,0,0,1-1.59-2.34c-.14-2.13-.31-4.25-.48-6.38-.08-1.12-.17-2.25-.29-3.38A2.07,2.07,0,0,0,419.22.5l-.47.41L411.89,7.1a2.52,2.52,0,0,1-2.27.67c-.78-.16-1.54-.37-2.31-.57-1.24-.31-2.48-.64-3.72-.94s-2.44-.55-3.66-.84a1.88,1.88,0,0,0-1.85.45l-.5.44c-.1.23-.19.47-.29.71a6,6,0,0,0,.7,2.31c1.17,2.61,2.3,5.24,3.5,7.83a2.67,2.67,0,0,1-.15,2.64c-.64,1.08-1.3,2.14-2,3.21-.88,1.41-1.77,2.81-2.64,4.22a11.65,11.65,0,0,0-.72,1.35,2,2,0,0,0,1.08,2.51,4.08,4.08,0,0,0,2,.1c3-.3,6-.63,9-.94a2.21,2.21,0,0,1,2,.81l1.54,1.82,4.5,5.27a7.81,7.81,0,0,0,.75.77,2,2,0,0,0,3.18-.82,12.36,12.36,0,0,0,.41-1.56c.28-1.33.54-2.65.82-4s.58-2.8.89-4.2a2.52,2.52,0,0,1,1.37-2l3.85-1.63c1.87-.78,3.76-1.53,5.63-2.33A2,2,0,0,0,433.42,18.86Z"/><path class="cls-19" d="M401.5,17.16a2.92,2.92,0,0,1,.25.95,2.61,2.61,0,0,0-.16-2c-1.19-2.59-2.32-5.22-3.49-7.83a7.89,7.89,0,0,1-.63-1.7L397.3,7a6,6,0,0,0,.7,2.31C399.17,11.94,400.3,14.57,401.5,17.16Z"/><path class="cls-20" d="M433.22,21.36c-1.87.8-3.76,1.55-5.64,2.33l-3.84,1.63a2.48,2.48,0,0,0-1.37,2c-.32,1.4-.6,2.8-.89,4.2s-.54,2.65-.82,4a13.59,13.59,0,0,1-.41,1.55,2,2,0,0,1-3.18.83,6.06,6.06,0,0,1-.75-.77l-4.51-5.27c-.51-.61-1-1.22-1.54-1.82a2.19,2.19,0,0,0-2-.81c-3,.31-6,.64-9,.94a4.09,4.09,0,0,1-2.05-.1,2.09,2.09,0,0,1-1.16-1.5v0a2,2,0,0,0,1.08,2.51,4.08,4.08,0,0,0,2.05.1c3-.3,6-.63,9-.94a2.2,2.2,0,0,1,2,.81l1.54,1.82,4.5,5.27a7.81,7.81,0,0,0,.75.77,2,2,0,0,0,3.19-.82,14.28,14.28,0,0,0,.4-1.56c.29-1.33.55-2.65.82-4s.58-2.8.89-4.2a2.52,2.52,0,0,1,1.37-2l3.85-1.63c1.88-.77,3.77-1.53,5.64-2.33a2,2,0,0,0,1.15-2.16A1.9,1.9,0,0,1,433.22,21.36Z"/></g></g></svg>