<svg xmlns="http://www.w3.org/2000/svg" xmlns:xlink="http://www.w3.org/1999/xlink" viewBox="0 0 876.66 219.13"><defs><style>.cls-1{fill:#fff;}.cls-2{fill:url(#linear-gradient);}.cls-3{fill:url(#linear-gradient-2);}</style><linearGradient id="linear-gradient" x1="176.9" y1="187.72" x2="29.96" y2="40.78" gradientUnits="userSpaceOnUse"><stop offset="0" stop-color="#3224e9"/><stop offset="0.56" stop-color="#ff9800"/><stop offset="1" stop-color="#ff7d00"/></linearGradient><linearGradient id="linear-gradient-2" x1="177.12" y1="187.5" x2="30.18" y2="40.56" xlink:href="#linear-gradient"/></defs><g id="Layer_2" data-name="Layer 2"><g id="Layer_1-2" data-name="Layer 1"><path class="cls-1" d="M435,66.41h30c6.06,15.14,12,30.11,19,47.47C493,97.69,497.12,82.07,504.31,67h28c2.37,9.81,2.39,68.29,0,87.8H510.64V104C502,117,500,130.09,493.56,141.68H474.67c-6.33-10-7.43-22.1-16.77-33.48-.38,17-.7,31.33-1,46.41H435Z"/><path class="cls-1" d="M296.15,63.6V84.05c-8.19,0-15.7-.42-23.15.08-19.66,1.32-29.47,16.79-22.77,35.39,3.35,9.3,11.73,13.39,25,11.74.3-6.49.61-13.14.94-20.26,7.47-3,14.79-1.53,22.1-.36v41.82c-18.06,3.24-34.86,3.85-51.44-2.62-11.31-4.41-18.49-12.59-21.87-23.74a57,57,0,0,1,2.17-39.72,35.94,35.94,0,0,1,18-18.46C261.21,60.16,278,59.6,296.15,63.6Z"/><path class="cls-1" d="M613.88,150.21a2.59,2.59,0,0,1-.76-.75,4.31,4.31,0,0,1-.5-2.33,66.47,66.47,0,0,1,1.28-14.35c.09-.43,10.32,1.68,11.19,1.72q8.34.28,16.68,0c2.64-.08,5.63-.59,7-3.18,2.91-5.58-1.46-8.93-6.17-10.66-3.38-1.23-6.94-1.79-10.37-2.84-16.11-4.93-23.14-15.77-20.55-31.34,1.57-9.4,6.62-16.18,15.55-19.51,13.47-5,27.12-4.68,41.55-.78,2,.56.77,9.27.66,10.69-.29,3.84.65,9.64-4.48,9.21-8.45-.7-16.91-3.71-25.26-.63-2.23.82-4.53,2.33-4.93,4.67A5.35,5.35,0,0,0,636,94.3c4.82,5.83,13.83,4.63,20.29,7,12.24,4.57,17.77,12.81,17.43,25.41-.52,18.59-16.35,27.25-33.36,28A68.77,68.77,0,0,1,615.55,151,7,7,0,0,1,613.88,150.21Z"/><path class="cls-1" d="M817.78,91a5.35,5.35,0,0,1,2.89-1.07c6-.72,12.81-.28,17.35,4.15,4-1.64,7.49-3.58,11.28-4.61,11.24-3.07,22,2.82,25.25,14a54.88,54.88,0,0,1,2,14c.27,12.18.09,24.37.09,37H863.14c-1.74,0-5.47.73-7,0-1.87-.88-1.26-3.56-1.35-5.8q-.42-9.57-.67-19.14c-.09-3.28-.24-6.58-.22-9.86,0-1.93.63-5.32-.88-6.83a5.53,5.53,0,0,0-2.26-1.54,9.12,9.12,0,0,0-9.37,1.34c-2.57,2.23-2.5,5.2-2.5,8.38l0,32.94c-6.8.46-13.74.07-20.55.07-4.86,0-2.21-54.69-2-59.38A4.72,4.72,0,0,1,817.78,91Z"/><path class="cls-1" d="M603.76,127.64H568.17a34.44,34.44,0,0,0,3.61,5.45,13,13,0,0,0,5.93,2.23c7.1,1.19,15.1.35,22.31.48.41,1.7.68,15.86.14,16-10.48,3.2-22,4.14-32.71,1.4-7.19-1.84-14-5.75-18.3-11.81-4-5.71-5.49-12.92-5.31-19.9.37-13.61,4.27-27.52,17.8-33.17,11.14-4.65,24.25-3.75,33.37,4.7C605.39,102.66,603.76,114.91,603.76,127.64Zm-21.15-15.46c-.56-2.2-.62-4.54-1.47-6.66a7,7,0,0,0-3.88-4.1,6.27,6.27,0,0,0-3.49-.12c-5.09,1.18-6.46,6.36-5.62,10.88A60.82,60.82,0,0,0,582.61,112.18Z"/><path class="cls-1" d="M409.55,85.87,423.86,88v18.41c-7.54,1.18-13.69-.33-14.62,6.57a46.41,46.41,0,0,0,.53,12.73c.73,3.15,2.64,6.21,5.61,7.5,2.54,1.11,5.52.81,8.06,1.91.11,3.4,2.11,15.45-.8,17.95-1.3,1.1-3.1,1.32-4.8,1.47-8.89.79-18.89.55-25.32-5.64-4.89-4.71-6.56-11.88-6.77-18.67s-.1-14.16.37-21a77.68,77.68,0,0,0-9.11-2.85V88.28c0-.33,4.66-1.6,5.13-1.81,3.16-1.47,3.19-.34,4.74-3.44,1.95-3.88,1.56-18.71,2.06-19.2.7-.66,20.61,1,20.61.41Z"/><path class="cls-1" d="M367.57,127.64H332a35,35,0,0,0,3.6,5.45,13,13,0,0,0,5.94,2.23c7.1,1.19,15.1.35,22.3.48.42,1.7.69,15.86.15,16-10.48,3.2-22,4.14-32.72,1.4-7.18-1.84-14-5.75-18.29-11.81-4-5.71-5.49-12.92-5.31-19.9.36-13.61,4.27-27.52,17.8-33.17,11.14-4.65,24.25-3.75,33.37,4.7C369.2,102.66,367.57,114.91,367.57,127.64Zm-21.15-15.46c-.57-2.2-.62-4.54-1.47-6.66a7,7,0,0,0-3.88-4.1,6.27,6.27,0,0,0-3.49-.12c-5.09,1.18-6.47,6.36-5.62,10.88A60.82,60.82,0,0,0,346.42,112.18Z"/><path class="cls-1" d="M741,127.64H705.4a34.44,34.44,0,0,0,3.61,5.45,13,13,0,0,0,5.93,2.23c7.1,1.19,15.1.35,22.31.48.41,1.7.68,15.86.14,16-10.48,3.2-22,4.14-32.71,1.4-7.19-1.84-14-5.75-18.3-11.81-4-5.71-5.49-12.92-5.31-19.9.37-13.61,4.27-27.52,17.8-33.17,11.14-4.65,24.25-3.75,33.37,4.7C742.62,102.66,741,114.91,741,127.64Zm-21.15-15.46c-.56-2.2-.62-4.54-1.47-6.66a7,7,0,0,0-3.88-4.1,6.27,6.27,0,0,0-3.49-.12c-5.09,1.18-6.46,6.36-5.62,10.88A60.82,60.82,0,0,0,719.84,112.18Z"/><path class="cls-1" d="M808.35,127.64H772.77a35,35,0,0,0,3.6,5.45,13,13,0,0,0,5.94,2.23c7.1,1.19,15.1.35,22.3.48.42,1.7.69,15.86.14,16-10.47,3.2-22,4.14-32.71,1.4-7.18-1.84-14-5.75-18.3-11.81-4-5.71-5.48-12.92-5.3-19.9.36-13.61,4.27-27.52,17.8-33.17,11.13-4.65,24.25-3.75,33.37,4.7C810,102.66,808.35,114.91,808.35,127.64Zm-21.14-15.46c-.57-2.2-.62-4.54-1.47-6.66a7,7,0,0,0-3.88-4.1,6.27,6.27,0,0,0-3.49-.12c-5.09,1.18-6.47,6.36-5.62,10.88A60.82,60.82,0,0,0,787.21,112.18Z"/><path class="cls-1" d="M3.63,1.06V120.19S21.3,235.83,127.63,210c0,0,94.43-36,55.26-148.79,0,0-15.39-73.66-165.79-53.38Z"/><path class="cls-2" d="M3.63,1.06C8.2.67,12.46,0,16.71,0c27.5.34,55,1,82.51,1.26,47.92.38,81.22,33.1,93.1,69.54,13.16,40.4,7.41,78.13-19.41,111.18C126.6,239,45.43,228.26,12.38,164.18,4.28,148.47-.3,131.63,0,113.81.63,79.23,1.44,44.66,2.25,10.09,2.31,7.41,3.05,4.74,3.63,1.06Zm9.94,12.36c-.25,4.34-.61,8.21-.68,12.09-.48,27.41-.57,54.83-1.45,82.23-.65,20,3.7,38.54,13.66,55.89,28.59,49.83,94.44,57.65,134.53,16.55,30.58-31.34,36.87-82.85,15.84-120.48-15.59-27.91-39.22-44.75-72-46.07-27.46-1.11-55-1.06-82.44-1.43C18.81,12.17,16.53,12.92,13.57,13.42Z"/><path class="cls-3" d="M33.23,32.88c6.06,0,11.55,0,17.05,0,16,.08,31.92,0,47.87.33,30.1.68,51.27,15.18,64.16,42,15.23,31.73,7.4,83.05-34,104.12A65.36,65.36,0,0,1,52.21,167c-14.51-14.6-22-32.47-22.41-52.53-.47-25,.92-50.1,1.59-75.15C31.43,37.84,32.21,36.36,33.23,32.88ZM43,45.81a45.68,45.68,0,0,0-.88,5.55c-.4,21-1,42.06-1,63.1,0,14.37,5.42,27.16,14.25,38.3,20,25.22,55,28.75,79.64,8.28,13.18-10.93,20.33-25.4,22.76-41.93C162.9,84,140.87,48.22,103.46,46,83.66,44.85,63.73,45.81,43,45.81Z"/></g></g></svg>