<svg xmlns="http://www.w3.org/2000/svg" viewBox="0 0 30.16 21.01"><defs><style>.cls-1{fill:#00b5fb;}.cls-2{fill:#25efac;}</style></defs><title>parents magazine</title><g id="Layer_2" data-name="Layer 2"><g id="Layer_1-2" data-name="Layer 1"><path class="cls-1" d="M10.2.83c0,.45-.25.93-.71.93A1,1,0,0,1,8.55.83a.83.83,0,1,1,1.65,0Z"/><path class="cls-1" d="M8.39,5.36a4.84,4.84,0,0,1-.27,1.11c-.17.34-.31.36-.47-.24a7.18,7.18,0,0,1,.14-2.68c.19-.87.92-2.1,2-2.19a4.14,4.14,0,0,1,3.18,1.7c.86,1.05,1.1,1.69.81,1.69s-1.28-1-1.61-1.1-1-.26-1.08.7S10.87,7.44,10.88,8s0,2.09-.07,2.44-.37.43-.53-.05a13.91,13.91,0,0,1-.14-2.51c0-.7-.53-.77-.52,0,0,.3.37,3-.09,2.84-.08,0-.12-.12-.16-.19A13.49,13.49,0,0,1,8.39,5.36Z"/><path class="cls-1" d="M19.76,1.71c0,.45.25.93.71.93a1,1,0,0,0,.94-.93.83.83,0,1,0-1.65,0Z"/><path class="cls-1" d="M21.84,5.9a4.75,4.75,0,0,0,.25,1c.15.3.28.32.42-.22a6.33,6.33,0,0,0-.12-2.41c-.18-.79-.83-1.89-1.76-2a3.76,3.76,0,0,0-2.86,1.54c-.78.94-1,1.51-.74,1.52s1.16-.89,1.45-1,.93-.24,1,.63.15,2.78.15,3.32a21.15,21.15,0,0,0,.06,2.2c.06.32.33.39.48,0a13.07,13.07,0,0,0,.13-2.27c0-.4.07-.64.35-.49s.05,1.07,0,1.84-.06,1.2.13,1.22.57-.85.76-1.82S21.84,5.9,21.84,5.9Z"/><path class="cls-2" d="M14.1,4.83s-.62-.49-.36.18a4.66,4.66,0,0,1,.74,2.29c-.06,1.08.19,2,.4,1.6s.15-1.49.42-1.32S16.37,9,16.53,8.92s-.83-1.64-.45-2.34,1-1,1-1.34-.76.29-1.3.53a.88.88,0,0,1-1-.18C14.51,5.43,14.24,4.92,14.1,4.83Z"/><path class="cls-2" d="M15,5c0,.29.24.57.53.54A.66.66,0,0,0,16,4.91.53.53,0,1,0,15,5Z"/><path class="cls-2" d="M1.63,21H1.44V19.91a1.9,1.9,0,0,1,0-.31h0a.6.6,0,0,1-.05.16L.86,21H.77L.22,19.77a1.08,1.08,0,0,1,0-.17h0a2.64,2.64,0,0,1,0,.32V21H0V19.39H.25L.74,20.5c0,.09.06.15.07.19h0a1.67,1.67,0,0,1,.07-.19l.5-1.11h.24Z"/><path class="cls-2" d="M6,21H5.8l-.17-.44H5L4.8,21H4.59l.61-1.59h.2Zm-.44-.61-.25-.68a.89.89,0,0,0,0-.11h0a.31.31,0,0,1,0,.11L5,20.37Z"/><path class="cls-2" d="M10.14,20.87a1.08,1.08,0,0,1-.53.14.73.73,0,0,1-.56-.22.81.81,0,0,1-.21-.58.82.82,0,0,1,.24-.61.78.78,0,0,1,.59-.24,1,1,0,0,1,.44.09v.2a.85.85,0,0,0-.46-.12.55.55,0,0,0-.44.19.68.68,0,0,0-.17.47.66.66,0,0,0,.16.48.56.56,0,0,0,.43.17.66.66,0,0,0,.32-.07v-.45H9.6v-.17h.54Z"/><path class="cls-2" d="M14.48,21h-.21l-.17-.44h-.68l-.15.44h-.21l.61-1.59h.19ZM14,20.37l-.25-.68a.53.53,0,0,1,0-.11h0a.81.81,0,0,1,0,.11l-.24.68Z"/><path class="cls-2" d="M18.55,19.43l-.94,1.38h.92V21H17.34v-.05l.92-1.37h-.85v-.17h1.14Z"/><path class="cls-2" d="M21.73,21h-.19V19.39h.19Z"/><path class="cls-2" d="M26.16,21h-.23l-.82-1.27-.05-.1h0V21h-.18V19.39h.24l.8,1.25.06.11h0a1.49,1.49,0,0,1,0-.24V19.39h.18Z"/><path class="cls-2" d="M30.16,21h-.85V19.39h.81v.17H29.5v.53h.58v.17H29.5v.55h.66Z"/><path class="cls-1" d="M3.62,12.15a2,2,0,0,1,.64,1.55A2.57,2.57,0,0,1,4,14.77a1.81,1.81,0,0,1-.73.8A2.39,2.39,0,0,1,2,15.89H1.06v2.29H0v-6.6H1.87A2.53,2.53,0,0,1,3.62,12.15Zm-.91,2.54a1,1,0,0,0,.38-.46A1.26,1.26,0,0,0,2.94,13,1.08,1.08,0,0,0,2,12.6h-1v2.27H2A1.23,1.23,0,0,0,2.71,14.69Z"/><path class="cls-1" d="M9.33,14.35v3.83h-1v-.56a2,2,0,0,1-.56.45,1.59,1.59,0,0,1-.82.21A2,2,0,0,1,6,18a1.67,1.67,0,0,1-.69-.68A2.2,2.2,0,0,1,5,16.27a2.16,2.16,0,0,1,.26-1.1,1.85,1.85,0,0,1,.7-.74,1.9,1.9,0,0,1,1-.26,1.56,1.56,0,0,1,1.39.69l.07-.51ZM7.92,17.23a1.12,1.12,0,0,0,.4-.6v-.84a1.07,1.07,0,0,0-.42-.57A1.27,1.27,0,0,0,7.18,15a1.11,1.11,0,0,0-.82.34,1.17,1.17,0,0,0-.33.86,1.23,1.23,0,0,0,.16.63,1.32,1.32,0,0,0,.44.44,1.09,1.09,0,0,0,.59.16A1.16,1.16,0,0,0,7.92,17.23Z"/><path class="cls-1" d="M12.16,14.68a2.3,2.3,0,0,1,.57-.37,1.27,1.27,0,0,1,.5-.14l-.05,1a1.16,1.16,0,0,0-.74.15,1.29,1.29,0,0,0-.51.5,1.42,1.42,0,0,0-.18.69v1.65h-1V14.35h.91l.07.88A1.91,1.91,0,0,1,12.16,14.68Z"/><path class="cls-1" d="M16.8,17.11l.47.75a2.69,2.69,0,0,1-.67.3,2.06,2.06,0,0,1-.67.12A2.3,2.3,0,0,1,14.78,18a1.77,1.77,0,0,1-.74-.72,2.16,2.16,0,0,1-.26-1.06,2,2,0,0,1,.29-1,2,2,0,0,1,.79-.75,2.23,2.23,0,0,1,1.08-.28,1.93,1.93,0,0,1,1.3.46,2.37,2.37,0,0,1,.69,1.29l-3,1a1.09,1.09,0,0,0,.41.36,1.32,1.32,0,0,0,.56.13A1.5,1.5,0,0,0,16.8,17.11Zm-1.72-1.8a1.24,1.24,0,0,0-.3.87v.15l2-.72a1.11,1.11,0,0,0-.34-.46.92.92,0,0,0-.59-.18A1,1,0,0,0,15.08,15.31Z"/><path class="cls-1" d="M22.31,14.5a1.11,1.11,0,0,1,.37.83v2.85h-1V15.7a.87.87,0,0,0-.18-.48A.7.7,0,0,0,21,15a.93.93,0,0,0-.77.41,1.65,1.65,0,0,0-.3,1v1.71h-1V14.35h.92l.07.68a1.44,1.44,0,0,1,.6-.62,1.81,1.81,0,0,1,.91-.23A1.3,1.3,0,0,1,22.31,14.5Z"/><path class="cls-1" d="M25.46,12.66v1.69h1v.79h-1v3h-1v-3h-.66v-.79h.66V12.66Z"/><path class="cls-1" d="M27.76,18.1a1.68,1.68,0,0,1-.64-.45l.42-.57a1.43,1.43,0,0,0,1,.47.88.88,0,0,0,.45-.1.36.36,0,0,0,.17-.32.35.35,0,0,0-.18-.32,2.1,2.1,0,0,0-.4-.18l-.29-.08a1.61,1.61,0,0,1-.74-.45,1.07,1.07,0,0,1-.24-.69,1.15,1.15,0,0,1,.16-.6,1.17,1.17,0,0,1,.48-.45,1.67,1.67,0,0,1,.78-.17,2.72,2.72,0,0,1,.75.1,1.88,1.88,0,0,1,.61.32l-.39.61a1.09,1.09,0,0,0-.4-.25,1.14,1.14,0,0,0-.42-.09.71.71,0,0,0-.39.11.32.32,0,0,0-.15.28.31.31,0,0,0,.15.31,2.16,2.16,0,0,0,.53.22l.2.07a1.64,1.64,0,0,1,.7.4.92.92,0,0,1,.26.67,1.23,1.23,0,0,1-.41.94,1.61,1.61,0,0,1-1.15.38A2.37,2.37,0,0,1,27.76,18.1Z"/></g></g></svg>