<svg xmlns="http://www.w3.org/2000/svg" viewBox="0 0 1608.36 516.22"><defs><style>.cls-1{fill:#eb2228;}.cls-2{fill:#fff;}</style></defs><g id="Layer_2" data-name="Layer 2"><g id="Layer_1-2" data-name="Layer 1"><path class="cls-1" d="M77.18,210.61V340.3H5.51V0H104C149.92,0,183.91,10.67,206,27.39S239,69.51,239,103.57q0,29.82-16.42,53.05T176.13,193q76.29,114,99.4,147.26H196L115.32,210.61Zm0-58.26H100.3q34,0,50.16-11.33t16.19-35.6q0-24-16.53-34.22T98.91,61H77.18Z"/><path class="cls-1" d="M429.5,344.92q-62.42,0-97.56-34.45T296.8,212.92q0-65,32.49-100.45T419.1,77q54.79,0,85.31,31.21t30.51,86.23v34.22H368.24q1.15,30,17.8,46.93t46.7,16.87a193.74,193.74,0,0,0,44.16-4.85,221.28,221.28,0,0,0,43.46-15.49v54.56a165.62,165.62,0,0,1-39.53,13.76Q459.79,344.92,429.5,344.92Zm-9.94-217.77q-22.43,0-35.14,14.22t-14.56,40.34H468.8q-.46-26.13-13.64-40.34T419.56,127.15Z"/><path class="cls-1" d="M674.1,344.92q-45.55,0-71.55-35.37t-26-98q0-63.57,26.47-99.06T676,77q48.76,0,74.44,37.91h2.31Q747.38,86,747.38,63.34V0h70.75V340.3H764l-13.64-33.52h-3Q723.34,344.92,674.1,344.92Zm24.73-56.17q27.06,0,39.65-15.72t13.76-53.41V212q0-41.61-12.83-59.64t-41.73-18q-23.58,0-36.64,20T648,212.45q0,38.16,13.18,57.22T698.83,288.75Z"/><path class="cls-2" d="M1095,340.3h-71.44V194.42H889.74V340.3H818.07V0h71.67V134.78l133.85-2.31V0H1095Z"/><path class="cls-2" d="M1333.25,340.3l-13.64-35.14h-1.85q-17.8,22.43-36.64,31.1T1232,344.92q-37.23,0-58.61-21.27T1152,263.08q0-41.14,28.78-60.68t86.81-21.62l44.85-1.38V168.07q0-39.3-40.22-39.31-31,0-72.83,18.73L1176,99.87q44.63-23.36,99-23.35,52,0,79.76,22.65t27.74,68.9V340.3Zm-20.81-119.76-27.28.93q-30.75.93-45.77,11.1t-15,31q0,29.83,34.21,29.83,24.51,0,39.19-14.1t14.68-37.45Z"/><path class="cls-2" d="M1564,288.75q18.49,0,44.39-8.1v52.48q-26.35,11.79-64.73,11.79-42.32,0-61.61-21.38t-19.31-64.16V134.78H1429V105l38.84-23.58,20.34-54.55h45.08v55h72.36v53h-72.36v124.6q0,15,8.44,22.2T1564,288.75Z"/><path class="cls-2" d="M82.54,415.29,61.94,475a137.56,137.56,0,0,0-4,14.59h-.43a81.19,81.19,0,0,0-3.59-14.43L33.3,415.29H0V516.22H20.49V460.39c0-7.51-.33-16.19-.91-26.17h.64c1.45,7.56,2.47,12.23,3.16,14.11l24,67.89H66l23.65-68.65a109.46,109.46,0,0,0,3.16-13.35h.54c-.54,7.88-.8,15.07-.8,21.61v60.39H115V415.29Z"/><path class="cls-2" d="M448.94,497.77V474.71h33V456.26h-33V433.79h35.44v-18.5H426.2V516.22h60.49V497.77Z"/><path class="cls-2" d="M826.92,415.29H791.15V516.22h35.77q24.38,0,39.09-14.1t14.65-37.65Q880.66,415.31,826.92,415.29Zm21.4,73.63q-8.37,8.85-23.17,8.85H813.89v-64H825c10.08,0,17.86,2.79,23.43,8.26s8.32,13.09,8.32,22.74C856.74,474.93,854,483,848.32,488.92Z"/><path class="cls-2" d="M1216.86,432.88V415.29h-39.63v17.59h8.47v65.75h-8.47v17.59h39.63V498.63h-8.42V432.88Z"/><path class="cls-2" d="M1572.48,415.29h-27l-36.73,100.93h24.67l7.08-22.47h35.88l7.18,22.47h24.78Zm-27.08,61,10.94-34.22a36.48,36.48,0,0,0,1.77-8.79h.59a43,43,0,0,0,1.66,9.06l10.83,33.95Z"/></g></g></svg>