<?xml version="1.0" encoding="utf-8"?>
<!-- Generator: Adobe Illustrator 23.0.2, SVG Export Plug-In . SVG Version: 6.00 Build 0)  -->
<svg version="1.1" id="Layer_1" xmlns="http://www.w3.org/2000/svg" xmlns:xlink="http://www.w3.org/1999/xlink" x="0px" y="0px"
	 viewBox="0 0 311 311" style="enable-background:new 0 0 311 311;" xml:space="preserve">
<style type="text/css">
	.st0{fill:#3D57DC;}
	.st1{fill:none;stroke:#453936;stroke-width:2.92;stroke-miterlimit:10;}
	.st2{fill:#6E615C;}
	.st3{fill:#5D514E;}
	.st4{fill:#AEAEAE;}
	.st5{fill:#FBBEA3;}
	.st6{fill:#D6A08B;}
	.st7{fill:#16343D;}
	.st8{fill:#223E45;}
	.st9{fill:#664133;}
	.st10{fill:#222328;}
	.st11{fill:#FFFFFF;}
	.st12{fill:#D8CAC7;}
	.st13{fill:#EDE0DC;}
	.st14{fill:#B76364;}
	.st15{clip-path:url(#SVGID_2_);}
	.st16{fill:#854747;}
</style>
<title>work-men</title>
<circle class="st0" cx="155.5" cy="155.5" r="155.5"/>
<path class="st1" d="M194,230.7c0,0-1.3-4.1,5.4-6.1s10.4,0.9,11.6,5.9"/>
<path class="st2" d="M175,233l51.6-7.3l8.3,36.7c0,0-18.6,9.5-55.6,7.8L175,233z"/>
<path class="st3" d="M186.6,251.8c0,0,29-2.2,44.3-6.9l-0.4-2c0,0-13.4,5-44.2,7.2L186.6,251.8z"/>
<polygon class="st4" points="205.1,246.5 205.7,250.4 218.7,248 218.2,244.7 "/>
<path class="st5" d="M206.9,225.8v-0.1c1.2-5.4-1.9-6.8-1.9-6.8l-4-34.7l-9.7,7.2l1.4-0.5l4,27.3c0,0-4.9,2.7-2.2,7.8l2.6-1.6
	c0.6,0.6,0.7,1.5,0.2,2.1c0,0-0.9-0.3-1.4,1.1c0.6,1,1.9,1.3,2.9,0.7c0.1-0.1,0.3-0.2,0.4-0.3l0,0c0.9,0.8,2.3,0.8,3.1,0
	c1.6,0.6,3.5-0.1,4.2-1.7l0,0c0.1-0.1,0.1-0.3,0.2-0.4C206.8,225.9,206.9,225.9,206.9,225.8z"/>
<path class="st3" d="M182.5,231.9L175,233l4.3,37.3c3.9,0.2,7.6,0.2,11.1,0.2L182.5,231.9z"/>
<path class="st5" d="M105.3,165.1l-10.7-30.4c-2.3,0.3-4.7,0.1-7-0.5c0,0-2.9-2-1.2-3c0,0-2.4-0.7-1.3-3c0,0-2.5-2.2-0.6-3.7
	c0,0-2-1.9,1.4-3.2s8.4-0.4,8.4-0.4s-2.4-5.5-0.5-8.1c1.5-2.1,4.1,8.1,4.1,8.1l17.4,46.4L105.3,165.1z"/>
<path class="st6" d="M193.2,194c2.8-1.5,5.6-3,8.5-4.4l-0.6-5.4l-9.7,7.2l1.4-0.5L193.2,194z"/>
<path class="st6" d="M108.5,149.6c-2.2,2-4.4,4-6.6,6l3.4,9.6l9.9,2.2L108.5,149.6z"/>
<path class="st7" d="M184.4,308.3c-4.4,0.8-8.9,1.5-13.4,1.9c-3.9-27.3-11.3-87.4-11.3-87.4c-1.8,0.1-3.2,0.3-4.5,0.4H155
	c-2.3,0.3-4.6,0.2-6.9-0.2c-2.9,20.3-3.4,60.5,0.1,87.8c-4.2-0.2-8.3-0.5-12.4-1.1c-7.1-46.8-2.9-89.3-0.9-105.1
	c0.2-1.4,0.3-2.5,0.5-3.4c0-0.4,0.1-0.7,0.1-1c0.2-1.1,0.3-1.8,0.3-2l2.9,0.4c4.3-2.4,8.8-4.5,13.5-6.2l0.9-0.3
	c7.8-2.5,15.8-3.2,18.8,3l0.7-0.1l0.6,5.9l0.2,1.5l0.3,3.3l2.8,27l3.9,37.6L184.4,308.3z"/>
<polygon class="st8" points="156,207.9 156,208.4 155.3,223.2 155.1,223.2 154.5,223.3 154.6,220.3 150.9,220 151.1,208 
	151.1,207.8 151.1,207.3 "/>
<polygon class="st6" points="153.8,114.2 153.4,136.9 168.6,131.3 169.1,107.9 "/>
<path class="st5" d="M181.9,84.5c-3.1-0.8-5.1,1.3-6.4,3.4c-0.5-7.6-0.9-14.5-0.9-14.5s-2.8-8.1-16.5-6.9l-12.4,1.1
	c0,0-5.4,37.4-2.8,41.6c2.2,3.5,8.3,8.4,14.9,7.8s18.6-4.1,18.6-10.8c0-1.5-0.1-4-0.2-6.9C184.9,100.7,187.6,86,181.9,84.5z"/>
<path class="st6" d="M181.2,86.9c-3.2-1-4.7,3.9-4.9,4.7c1.9,0.9,2.8,3.2,1.9,5.1c-0.1,0.1-0.1,0.3-0.2,0.4
	C183.1,97.5,184.7,87.9,181.2,86.9z"/>
<path class="st9" d="M176.4,87.3l-0.9,4.5h-2.6V76.4c0,0-5.5-3-5.1-8.6c-3.5,1.5-7.2,2.6-10.9,3.3c-4.2,0.7-20.2,2.8-19.9-12
	c0,0,2.7,5,6.2,5.4c0,0-8.6-4.6-2.5-13c0,0-0.8,4.4,2.5,4s13.6-10,22.8-6.8s9.5,8.8,9.5,8.8s9.4-0.1,10,4.8s-5.8,21.9-5.8,21.9
	S176.4,85,176.4,87.3z"/>
<path class="st9" d="M158.9,79.1c0,0,7.3-1.5,9.2,1.7c0,0,2.1-3.2-0.9-4.4c-2.5-1-5.3-1.1-7.9-0.3C157.8,76.5,157.1,78.8,158.9,79.1
	z"/>
<path class="st9" d="M152.3,79.1c0,0-6.3-2-8.3,1.1c0,0-1.2-3.4,1.7-4.1c2.3-0.6,4.8-0.6,7.1,0C154.1,76.7,153.8,79.1,152.3,79.1z"
	/>
<ellipse class="st10" cx="165.1" cy="84.7" rx="1.8" ry="2.9"/>
<ellipse class="st10" cx="150.9" cy="84.7" rx="1.8" ry="2.9"/>
<polygon class="st6" points="155.5,81.8 149.8,96.9 157.5,98.4 "/>
<path class="st11" d="M151.1,102.1l15.8-2.1c-1.2,3.6-4.2,6.2-7.9,6.9C155.5,107.5,152.1,105.5,151.1,102.1z"/>
<path class="st11" d="M132.1,133.9c0,0,1.7,45.6,3.5,66.3c0,0,7.6,3.4,23.3,3.3c11.1,0,14.3-2.3,14.3-2.3l20.8-71.3
	c0,0-10.1-2.5-26.9-3.1l-8.1,7.1c0,0-1.9-5.8-6.1-7.1c-6.4,0.2-13.3,0.7-20.8,1.7L132.1,133.9z"/>
<polygon class="st11" points="192.3,190.3 182.3,132.1 194,129.9 202.3,185.9 "/>
<path class="st11" d="M132.1,128.4l-17.9,29.8l-2.2-3.9c-2.8,3-5.6,6-8.5,8.9c3.1,8.5,6.4,15.6,8.6,14.9c5.2-1.8,22.6-28,22.6-28
	L132.1,128.4z"/>
<path class="st2" d="M140.9,202.7c-1.7-0.4-3.4-0.8-5.1-1.4c-0.9-0.3-1.3,0.5-1.4,1.4c-0.2,1.2-0.3,1.7,0.5,2
	c1.7,0.6,3.4,1.2,5.2,1.6C140.4,205,140.7,203.9,140.9,202.7z"/>
<path class="st2" d="M163.8,204c-3.9,0.2-7.8,0.3-11.7,0.1c-2.9-0.1-5.8-0.4-8.6-0.9c0,1.2-0.1,2.5-0.4,3.7c2.9,0.5,5.9,0.9,8.8,1
	c1.4,0,2.7,0.1,4,0.1c2.9,0,5.6-0.1,8.2-0.3C163.9,206.4,163.8,205.2,163.8,204z"/>
<path class="st2" d="M174.3,203.9c-0.2-0.9-0.3-1.7-1.2-1.4c-2.3,0.7-4.6,1.1-6.9,1.3c0.1,1.2,0.2,2.3,0.4,3.5
	c2.5-0.3,4.9-0.8,7.2-1.6C174.4,205.6,174.4,204.8,174.3,203.9z"/>
<path class="st4" d="M149.7,203.5v4.4l1.4,0.1l4.9,0.3l2,0.1v-4.8L149.7,203.5z M151.1,204.4l5.5,0.1v3.2l-5.5-0.4V204.4z"/>
<polygon class="st12" points="159,133.8 161.3,126.7 165.7,129 "/>
<polygon class="st12" points="158.6,127.2 159,133.8 155.5,129 "/>
<polygon class="st13" points="148.5,126.4 153.7,134.2 158.6,127.2 151.5,122 "/>
<polygon class="st13" points="172.2,126.3 164.9,134.2 161.3,126.7 169.5,121.7 "/>
<path class="st14" d="M162.5,129.3c-1.8,0.3-3.5,0.3-5.3,0l-1.4,2l1.4,4.1l-10,50.4l5.3,6.8l7.1-5.6l1.2-51l2.4-5L162.5,129.3z"/>
<path class="st13" d="M164.7,150.3l18.6,1.4c0,0-0.9,16.7-11.1,15.6C159.6,165.9,164.7,150.3,164.7,150.3z"/>
<path class="st14" d="M178.7,151.4c0,0,0.5-7.8,1.8-7.9s0.5,13.8-0.9,14c-0.1-2,0-4,0.3-6L178.7,151.4z"/>
<g>
	<defs>
		<path id="SVGID_1_" d="M162.5,129.3c-1.8,0.3-3.5,0.3-5.3,0l-1.4,2l1.4,4.1l-10,50.4l5.3,6.8l7.1-5.6l1.2-51l2.4-5L162.5,129.3z"
			/>
	</defs>
	<clipPath id="SVGID_2_">
		<use xlink:href="#SVGID_1_"  style="overflow:visible;"/>
	</clipPath>
	<g class="st15">
		<polygon class="st16" points="144.8,139.8 143.7,137 169.3,128.2 170.4,130.9 		"/>
		<polygon class="st16" points="144.8,147 143.7,144.3 169.3,135.4 170.4,138.1 		"/>
		<polygon class="st16" points="144.8,154.2 143.7,151.5 169.3,142.6 170.4,145.4 		"/>
		<polygon class="st16" points="144.8,161.5 143.7,158.7 169.3,149.9 170.4,152.6 		"/>
		<polygon class="st16" points="144.8,168.7 143.7,166 169.3,157.1 170.4,159.9 		"/>
		<polygon class="st16" points="144.8,175.9 143.7,173.2 169.3,164.3 170.4,167.1 		"/>
		<polygon class="st16" points="144.8,183.2 143.7,180.4 169.3,171.6 170.4,174.3 		"/>
		<polygon class="st16" points="144.8,190.4 143.7,187.7 169.3,178.8 170.4,181.5 		"/>
	</g>
</g>
<polygon class="st13" points="188.8,183.5 203,179.4 204.1,186.8 190.9,191.5 "/>
<path class="st13" d="M110.6,151.7l3.6,5.7c0,0-5.3,11.5-9.5,14.1l-4.2-9.9L110.6,151.7z"/>
</svg>
