<svg xmlns="http://www.w3.org/2000/svg" xmlns:xlink="http://www.w3.org/1999/xlink" viewBox="0 0 121.45 54.37"><defs><style>.cls-1{fill:url(#GradientFill_1);}.cls-2{fill:url(#GradientFill_1-2);}.cls-3{fill:url(#GradientFill_1-3);}.cls-4{fill:url(#GradientFill_1-4);}.cls-5{fill:url(#linear-gradient);}.cls-6{fill:url(#linear-gradient-2);}.cls-7{fill:url(#linear-gradient-3);}.cls-8{fill:url(#linear-gradient-4);}.cls-9{fill:url(#linear-gradient-5);}.cls-10{fill:url(#linear-gradient-6);}.cls-11{fill:url(#linear-gradient-7);}.cls-12{fill:url(#linear-gradient-8);}.cls-13{fill:url(#linear-gradient-9);}.cls-14{fill:url(#linear-gradient-10);}.cls-15{fill:url(#GradientFill_1-5);}.cls-16{fill:url(#linear-gradient-11);}.cls-17{fill:url(#GradientFill_1-6);}.cls-18{fill:url(#linear-gradient-12);}.cls-19{fill:url(#linear-gradient-13);}.cls-20{fill:url(#linear-gradient-14);}.cls-21{fill:url(#linear-gradient-15);}.cls-22{fill:url(#linear-gradient-16);}.cls-23{fill:url(#linear-gradient-17);}.cls-24{fill:url(#linear-gradient-18);}</style><linearGradient id="GradientFill_1" x1="57.74" y1="40.64" x2="43.18" y2="46.83" gradientUnits="userSpaceOnUse"><stop offset="0" stop-color="#571787"/><stop offset="1" stop-color="#f2238e"/></linearGradient><linearGradient id="GradientFill_1-2" x1="58.8" y1="43.12" x2="44.24" y2="49.32" xlink:href="#GradientFill_1"/><linearGradient id="GradientFill_1-3" x1="59.76" y1="45.38" x2="45.2" y2="51.57" xlink:href="#GradientFill_1"/><linearGradient id="GradientFill_1-4" x1="60.96" y1="48.2" x2="46.39" y2="54.39" xlink:href="#GradientFill_1"/><linearGradient id="linear-gradient" x1="130.67" y1="25.44" x2="78.61" y2="44.69" gradientUnits="userSpaceOnUse"><stop offset="0" stop-color="#202e91"/><stop offset="1" stop-color="#08c2f4"/></linearGradient><linearGradient id="linear-gradient-2" x1="131.63" y1="28.04" x2="79.57" y2="47.29" xlink:href="#linear-gradient"/><linearGradient id="linear-gradient-3" x1="132.37" y1="30.03" x2="80.31" y2="49.28" xlink:href="#linear-gradient"/><linearGradient id="linear-gradient-4" x1="133.3" y1="32.56" x2="81.24" y2="51.81" xlink:href="#linear-gradient"/><linearGradient id="linear-gradient-5" x1="134.11" y1="34.73" x2="82.05" y2="53.99" xlink:href="#linear-gradient"/><linearGradient id="linear-gradient-6" x1="134.86" y1="36.76" x2="82.79" y2="56.01" xlink:href="#linear-gradient"/><linearGradient id="linear-gradient-7" x1="135.68" y1="39" x2="83.62" y2="58.25" xlink:href="#linear-gradient"/><linearGradient id="linear-gradient-8" x1="136.54" y1="41.32" x2="84.48" y2="60.57" xlink:href="#linear-gradient"/><linearGradient id="linear-gradient-9" x1="137.34" y1="43.49" x2="85.28" y2="62.74" xlink:href="#linear-gradient"/><linearGradient id="linear-gradient-10" x1="138.07" y1="45.44" x2="86" y2="64.69" xlink:href="#linear-gradient"/><linearGradient id="GradientFill_1-5" x1="28.49" y1="23.77" x2="63.74" y2="23.77" xlink:href="#GradientFill_1"/><linearGradient id="linear-gradient-11" x1="156.81" y1="22.48" x2="42.67" y2="24.9" xlink:href="#linear-gradient"/><linearGradient id="GradientFill_1-6" x1="17.11" y1="26.59" x2="23.5" y2="47.29" gradientTransform="translate(7.03 -0.01) rotate(20.57)" xlink:href="#GradientFill_1"/><linearGradient id="linear-gradient-12" x1="20.72" y1="32.38" x2="12.35" y2="36.39" gradientTransform="translate(48.7 22.74) rotate(88.89)" xlink:href="#linear-gradient"/><linearGradient id="linear-gradient-13" x1="14.13" y1="11.13" x2="12.63" y2="35.91" xlink:href="#linear-gradient"/><linearGradient id="linear-gradient-14" x1="26.03" y1="10.34" x2="19.67" y2="35.62" xlink:href="#linear-gradient"/><linearGradient id="linear-gradient-15" x1="98.27" y1="0.79" x2="7.2" y2="19.87" xlink:href="#linear-gradient"/><linearGradient id="linear-gradient-16" x1="9.49" y1="15.72" x2="0.33" y2="28.88" gradientTransform="matrix(1, 0.03, -0.03, 1, 5.85, -8.52)" xlink:href="#linear-gradient"/><linearGradient id="linear-gradient-17" x1="20.83" y1="2.35" x2="14.13" y2="5.36" xlink:href="#GradientFill_1"/><linearGradient id="linear-gradient-18" x1="16.41" y1="14.07" x2="8.2" y2="20.6" xlink:href="#linear-gradient"/></defs><title>logo</title><g id="Layer_2" data-name="Layer 2"><g id="Layer_1-2" data-name="Layer 1"><path class="cls-1" d="M31.9,51.5a.85.85,0,0,1-.52.86,1,1,0,0,1,.65.58.89.89,0,0,1,.07.38.93.93,0,0,1-.74.93,1.91,1.91,0,0,1-.57.08H29V50.48h1.73a1.26,1.26,0,0,1,.94.34A.93.93,0,0,1,31.9,51.5Zm-2.5.7h1.29a.72.72,0,0,0,.71-.36.68.68,0,0,0,.07-.28.67.67,0,0,0,0-.26.51.51,0,0,0-.12-.2.74.74,0,0,0-.57-.2H29.4Zm1.43,1.71a1,1,0,0,0,.62-.16.57.57,0,0,0,.21-.47.59.59,0,0,0-.21-.47.93.93,0,0,0-.66-.21H29.4v1.31Z"/><path class="cls-2" d="M36.14,50.48v3.43h2.1v.42H35.71V50.48Z"/><path class="cls-3" d="M43.24,50.44a1.88,1.88,0,0,1,1.41.57,2.07,2.07,0,0,1,0,2.79,2,2,0,0,1-2.82,0,2.07,2.07,0,0,1,0-2.79A1.88,1.88,0,0,1,43.24,50.44Zm0,3.51a1.45,1.45,0,0,0,1.11-.45,1.7,1.7,0,0,0,0-2.19,1.59,1.59,0,0,0-2.22,0,1.7,1.7,0,0,0,0,2.19A1.45,1.45,0,0,0,43.24,54Z"/><path class="cls-4" d="M49.65,50.59a1.79,1.79,0,0,1,.72-.15,2.51,2.51,0,0,1,.65.08,2,2,0,0,1,.49.22,1.71,1.71,0,0,1,.67.79h-.47a1.28,1.28,0,0,0-.49-.49,1.35,1.35,0,0,0-.7-.18,1.72,1.72,0,0,0-.68.12,1.43,1.43,0,0,0-.47.33,1.73,1.73,0,0,0,0,2.19,1.4,1.4,0,0,0,1.09.45,1.38,1.38,0,0,0,.94-.34,1.15,1.15,0,0,0,.42-.93H50.41v-.4h1.81v2h-.4v-.68a1.59,1.59,0,0,1-.92.66,2.16,2.16,0,0,1-.57.06A1.83,1.83,0,0,1,49,53.8a2.16,2.16,0,0,1,0-2.79A1.67,1.67,0,0,1,49.65,50.59Z"/><path class="cls-5" d="M59.62,50.48v3.85h-.43V51.15L57.77,53l-1.45-1.82v3.18h-.43V50.48h.5l1.38,1.83,1.35-1.83Z"/><path class="cls-6" d="M66.82,54.33h-.48l-.47-1.12H64l-.47,1.12H63l1.63-3.85h.55ZM65.7,52.81l-.78-1.87-.79,1.87Z"/><path class="cls-7" d="M73.52,50.48v3.85H73l-2.38-3.25v3.25h-.43V50.48h.5l2.38,3.24V50.48Z"/><path class="cls-8" d="M80.72,54.33h-.48l-.47-1.12H77.86l-.47,1.12h-.48l1.63-3.85h.55ZM79.6,52.81l-.79-1.87L78,52.81Z"/><path class="cls-9" d="M84.9,50.59a1.79,1.79,0,0,1,.72-.15,2.43,2.43,0,0,1,.64.08,1.83,1.83,0,0,1,.49.22,1.8,1.8,0,0,1,.68.79H87a1.33,1.33,0,0,0-.48-.49,1.41,1.41,0,0,0-.71-.18,1.67,1.67,0,0,0-.67.12,1.33,1.33,0,0,0-.47.33,1.52,1.52,0,0,0-.4,1.1,1.55,1.55,0,0,0,.39,1.09A1.42,1.42,0,0,0,85.7,54a1.36,1.36,0,0,0,.94-.34,1.15,1.15,0,0,0,.42-.93h-1.4v-.4h1.8v2h-.4v-.68a1.59,1.59,0,0,1-.92.66,2.12,2.12,0,0,1-.56.06,1.73,1.73,0,0,1-.7-.15,1.67,1.67,0,0,1-.59-.42,2,2,0,0,1-.5-1.39A2,2,0,0,1,84.3,51,1.71,1.71,0,0,1,84.9,50.59Z"/><path class="cls-10" d="M91.56,50.9v1.29H93.7v.42H91.56v1.3H94v.42H91.13V50.48H94v.42Z"/><path class="cls-11" d="M101.3,50.48v3.85h-.44V51.15L99.44,53,98,51.15v3.18h-.43V50.48h.5l1.38,1.83,1.35-1.83Z"/><path class="cls-12" d="M105.57,50.9v1.29h2.14v.42h-2.14v1.3H108v.42h-2.82V50.48H108v.42Z"/><path class="cls-13" d="M114.88,50.48v3.85h-.5L112,51.08v3.25h-.43V50.48h.5l2.38,3.24V50.48Z"/><path class="cls-14" d="M121.45,50.9h-1.34v3.43h-.44V50.9h-1.34v-.42h3.12Z"/><path class="cls-15" d="M61.74,26.39c-1.34-1.84-3.51-3.09-6.53-3.76V22.3A8,8,0,0,0,60.53,19a11.48,11.48,0,0,0,2-7A13.77,13.77,0,0,0,62.3,9.4,9.35,9.35,0,0,0,58,2.88Q53.4,0,43.29,0H28.49V47.53H46.28c5.37,0,9.63-1.21,12.75-3.64a12.1,12.1,0,0,0,4.71-10.14A12.34,12.34,0,0,0,61.74,26.39ZM38.57,8.25h5.3q4.32,0,6.32,1.2a4.18,4.18,0,0,1,2,3.91,4.72,4.72,0,0,1-1.83,4.19q-1.84,1.27-5.94,1.27H38.57ZM51.28,37.61q-2,1.61-6.14,1.6H38.57V26.82h6.25a17.14,17.14,0,0,1,2,.09q6.49.64,6.5,5.83A5.89,5.89,0,0,1,51.28,37.61Z"/><path class="cls-16" d="M107.73,0,95.8,36.34h-.2L84.36,0H70.63L62.3,9.4,46.77,26.91q6.49.64,6.5,5.83a5.89,5.89,0,0,1-2,4.87q-2,1.61-6.14,1.6H38.57v-3L28.49,47.53H79.64V25.43q0-3.81-.62-15.19h.3L90.76,47.53H100L112.25,10.3h.29q-.39,9-.44,11.06c0,1.39,0,2.61,0,3.67v22.5h9.39V0Z"/><path class="cls-17" d="M12.64,54.33c8.24-11.6,3.48-17,3.48-17l-2.92-.09h0l-2.92-.1s-5.11,5,2.36,17.16v0Z"/><g id="rocket"><rect class="cls-18" x="11.6" y="32.61" width="2.33" height="7.18" transform="translate(-23.68 48.25) rotate(-88.89)"/><path class="cls-19" d="M12.77,25.11A12.43,12.43,0,0,0,0,37.18a12,12,0,0,0,.78,4.49,12.51,12.51,0,0,1,11.82-7.6,12.52,12.52,0,0,1,11.52,8.06,12.07,12.07,0,0,0,.95-4.46A12.44,12.44,0,0,0,12.77,25.11Z"/><path class="cls-20" d="M15.79,34.54a12.46,12.46,0,0,1,8.33,7.59,12.07,12.07,0,0,0,.95-4.46A12.37,12.37,0,0,0,16,25.58Z"/><path class="cls-21" d="M5.1,21a34.38,34.38,0,0,0,3,15.29,14.52,14.52,0,0,1,4.44-.58,14.94,14.94,0,0,1,4.41.75,34.27,34.27,0,0,0,3.61-15.16C20.76,12.05,17.77,4,13.25,0,8.58,3.82,5.28,11.74,5.1,21Z"/><path class="cls-22" d="M7.36,8.8,7,9.86a55.34,55.34,0,0,1,12.29.36L18.79,9S11.18,8,7.36,8.8Z"/><path class="cls-23" d="M7.36,8.8c1.87-.08,3.77-.11,5.72-.08s3.85.15,5.71.31a21,21,0,0,0-5.54-9A21,21,0,0,0,7.36,8.8Z"/><path class="cls-24" d="M13,13.47h0a3.5,3.5,0,0,0-2.45.95,3.31,3.31,0,0,0-1,2.36,3.43,3.43,0,0,0,3.32,3.44h0A3.37,3.37,0,1,0,13,13.47Z"/></g></g></g></svg>