<svg xmlns="http://www.w3.org/2000/svg" xmlns:xlink="http://www.w3.org/1999/xlink" viewBox="0 0 118.99 61.67"><defs><style>.cls-1{fill:#fff;}.cls-2{fill:url(#linear-gradient);}.cls-3{fill:url(#linear-gradient-2);}.cls-4{fill:url(#linear-gradient-3);}.cls-5{fill:url(#linear-gradient-4);}.cls-6{fill:url(#linear-gradient-5);}.cls-7{fill:url(#linear-gradient-6);}.cls-8{fill:url(#linear-gradient-7);}.cls-9{fill:url(#linear-gradient-8);}.cls-10{fill:url(#linear-gradient-9);}.cls-11{fill:url(#linear-gradient-10);}.cls-12{fill:url(#linear-gradient-11);}.cls-13{fill:url(#linear-gradient-12);}.cls-14{fill:url(#linear-gradient-13);}</style><linearGradient id="linear-gradient" x1="61.94" y1="1.57" x2="59.07" y2="64.15" gradientUnits="userSpaceOnUse"><stop offset="0.14" stop-color="#9ccd5b"/><stop offset="0.94" stop-color="#5fa645"/></linearGradient><linearGradient id="linear-gradient-2" x1="18.28" y1="44.54" x2="17.62" y2="16.44" gradientUnits="userSpaceOnUse"><stop offset="0.37" stop-color="#ffce04"/><stop offset="0.94" stop-color="#f8961d"/></linearGradient><linearGradient id="linear-gradient-3" x1="29.09" y1="44.29" x2="28.44" y2="16.19" xlink:href="#linear-gradient-2"/><linearGradient id="linear-gradient-4" x1="42.38" y1="43.98" x2="41.73" y2="15.88" xlink:href="#linear-gradient-2"/><linearGradient id="linear-gradient-5" x1="59.45" y1="43.59" x2="58.79" y2="15.48" xlink:href="#linear-gradient-2"/><linearGradient id="linear-gradient-6" x1="77.44" y1="43.17" x2="76.78" y2="15.07" xlink:href="#linear-gradient-2"/><linearGradient id="linear-gradient-7" x1="93.8" y1="42.79" x2="93.15" y2="14.69" xlink:href="#linear-gradient-2"/><linearGradient id="linear-gradient-8" x1="109.15" y1="42.43" x2="108.49" y2="14.33" xlink:href="#linear-gradient-2"/><linearGradient id="linear-gradient-9" x1="37.68" y1="48.26" x2="37.28" y2="25.56" xlink:href="#linear-gradient"/><linearGradient id="linear-gradient-10" x1="62.07" y1="47.83" x2="61.67" y2="25.13" xlink:href="#linear-gradient"/><linearGradient id="linear-gradient-11" x1="95.86" y1="47.24" x2="95.46" y2="24.54" xlink:href="#linear-gradient"/><linearGradient id="linear-gradient-12" x1="18.56" y1="48.59" x2="18.16" y2="25.9" xlink:href="#linear-gradient"/><linearGradient id="linear-gradient-13" x1="18.25" y1="55.76" x2="18.21" y2="30.98" gradientUnits="userSpaceOnUse"><stop offset="0.06" stop-color="#9ccc5a"/><stop offset="0.37" stop-color="#ffce04"/><stop offset="0.94" stop-color="#f8961d"/></linearGradient></defs><title>finance team</title><g id="Layer_2" data-name="Layer 2"><g id="Layer_1-2" data-name="Layer 1"><path class="cls-1" d="M116.7,52.86a.79.79,0,0,1-.22-.32,4,4,0,0,1-.15-1.23V39.77c0-3.81-.8-6.7-2.44-8.85-.15-.19-.32-.37-.48-.55a8.65,8.65,0,0,0,3.13-2.23,6.7,6.7,0,0,0,1.68-4.47,5.14,5.14,0,0,0-1.59-3.82A8.19,8.19,0,0,0,118.8,14,8,8,0,0,0,116,7.59a9.44,9.44,0,0,0-6.34-2.15,10.43,10.43,0,0,0-7.84,3.05,6.89,6.89,0,0,0-1.71-1.55,10.42,10.42,0,0,0-5.7-1.5A10.21,10.21,0,0,0,85.7,9.6l0,0A7.63,7.63,0,0,0,85,8.5c-1-1.4-3-3.06-6.85-3.06A9.37,9.37,0,0,0,73.71,6.5a5.21,5.21,0,0,0-3-.54h0a5.17,5.17,0,0,0-3.78,2.57,7.17,7.17,0,0,0-2.43-2,11.08,11.08,0,0,0-5.15-1,13.44,13.44,0,0,0-6.63,1.49A7.54,7.54,0,0,0,50.27,9,5.29,5.29,0,0,0,50,8.5c-1-1.4-3-3.06-6.84-3.06A9.37,9.37,0,0,0,38.64,6.5a5.23,5.23,0,0,0-3-.54h0a5.18,5.18,0,0,0-2.05.76A5.37,5.37,0,0,0,32,2.9a5.28,5.28,0,0,0-3.83-1.54,5.57,5.57,0,0,0-1.36.18V1H8.39V30.52H11L2.13,41.21H10.6V52.6a8.79,8.79,0,0,0,2.23,6.28,8.33,8.33,0,0,0,6.28,2.42,9.32,9.32,0,0,0,4.52-1.12A7.17,7.17,0,0,0,27,56.43l.19-.52c2.64,3.13,6.45,4.72,11.33,4.72a16,16,0,0,0,5.34-.92,11.58,11.58,0,0,0,4.7-3c.17-.18.32-.36.46-.54A10,10,0,0,0,50.89,58a13.42,13.42,0,0,0,8.31,2.62,12.87,12.87,0,0,0,5.28-1.07h0a9.83,9.83,0,0,0,1-.5,9,9,0,0,0,4.76,1.23,9.79,9.79,0,0,0,3.23-.55,6.72,6.72,0,0,0,3-2.06,7.13,7.13,0,0,0,4.85,1.9h7.11v-5a6.51,6.51,0,0,0,6.31,5h7.8V55.13a7.49,7.49,0,0,0,1.82,2.9,8.55,8.55,0,0,0,6.22,2.26,10.29,10.29,0,0,0,3.24-.54,6.82,6.82,0,0,0,3.23-2.17l2-2.52Z" transform="translate(-0.36 -0.63)"/><path class="cls-2" d="M116.64,52.93a1.08,1.08,0,0,1-.34-.69,3.78,3.78,0,0,1-.07-.74l0-1.46v-2.9l0-5.82a25.53,25.53,0,0,0-.44-5.74,10.18,10.18,0,0,0-2.51-5l-.25-.26.34-.15a7.5,7.5,0,0,0,4.21-4.38,6.2,6.2,0,0,0,.21-3,4.45,4.45,0,0,0-1.41-2.55l-.34-.31.32-.34a8,8,0,0,0,1.89-6.37,7.29,7.29,0,0,0-3.29-5.59,9.91,9.91,0,0,0-6.5-1.31,9.41,9.41,0,0,0-6,2.8l-.66.7L101.2,9a6.74,6.74,0,0,0-3.38-2.21,11.45,11.45,0,0,0-4.22-.43,10.45,10.45,0,0,0-4.07,1.07,8.68,8.68,0,0,0-3.14,2.7l-.74,1L84.9,10a9.94,9.94,0,0,0-.8-1.29,5.86,5.86,0,0,0-1.07-1,7.18,7.18,0,0,0-2.8-1.2,10.46,10.46,0,0,0-3.16-.14,8.56,8.56,0,0,0-3,.88l-.39.2-.36-.19a4.4,4.4,0,0,0-2.57-.5h0a4.41,4.41,0,0,0-3.26,2.16L67,9.82,66.33,9a6.68,6.68,0,0,0-3.4-2.4,13.27,13.27,0,0,0-4.38-.52,13.71,13.71,0,0,0-4.37.77,7.75,7.75,0,0,0-3.52,2.47l-.45.59-.35-.63a6.12,6.12,0,0,0-2.07-2.19A7.84,7.84,0,0,0,44.91,6a9.71,9.71,0,0,0-6.1.85l-.17.09-.17-.09a4.84,4.84,0,0,0-2.82-.52h0a4.84,4.84,0,0,0-1.91.7l-.53.33V6.73a5.06,5.06,0,0,0-1.91-4,5.13,5.13,0,0,0-4.41-.86l-.37.1V1l.3.31L8.39,1.37,8.76,1l.31,29.52-.68-.68,2.62,0,1.51,0-1,1.18L2.77,41.74l-.64-1.36,8.47-.06h.89v.9l0,8.89v2.22a11.48,11.48,0,0,0,.15,2.06,7.34,7.34,0,0,0,1.59,3.54,6.45,6.45,0,0,0,3.22,2,9.83,9.83,0,0,0,4,.23,8,8,0,0,0,3.59-1.51,6,6,0,0,0,1.3-1.37,5.59,5.59,0,0,0,.47-.82c.07-.15.13-.29.18-.43l.19-.51.61-1.7L28,55.23a11.69,11.69,0,0,0,4.51,3.26,15.49,15.49,0,0,0,5.59,1.08,14.87,14.87,0,0,0,5.62-.91,10.28,10.28,0,0,0,4.51-3.14l.82-1,.8,1a10.93,10.93,0,0,0,6.54,3.82,13.15,13.15,0,0,0,7.71-.7l.19-.08h.21l-.4.08.87-.44.56-.28.46.29a8.46,8.46,0,0,0,5.16,1.1,8.86,8.86,0,0,0,2.61-.66,5.77,5.77,0,0,0,2.08-1.53l.59-.7.66.62a6.33,6.33,0,0,0,2.34,1.39,5.55,5.55,0,0,0,1.33.29c.44.05,1,0,1.48.05l6.22.1-.7.7.08-5,.09-5.19,1.13,5a5.93,5.93,0,0,0,5.32,4.6c1.31.06,2.72.06,4.08.08l4.11.07-.35.35.07-4.45,0-1.72.52,1.63a7,7,0,0,0,3,3.85,9.29,9.29,0,0,0,4.85,1.22,9.46,9.46,0,0,0,4.84-1.34,6.84,6.84,0,0,0,1.8-1.76L119,55v.16Zm.13-.14L119.13,55l.08.08-.07.09-1.59,2A7.08,7.08,0,0,1,115.69,59a10.13,10.13,0,0,1-10.07.24,7.67,7.67,0,0,1-3.33-4l.55-.09.06,4.45v.34h-.36L98.44,60c-1.38,0-2.71.07-4.14,0a7.08,7.08,0,0,1-6.46-5.27l1.22-.15.08,5v.69h-.71l-6.22.1c-.51,0-1,0-1.63,0A7.54,7.54,0,0,1,78.9,60a8.08,8.08,0,0,1-3-1.71l1.25-.08a7.62,7.62,0,0,1-2.67,2,10.92,10.92,0,0,1-3.16.87,11.51,11.51,0,0,1-3.26-.11,9.2,9.2,0,0,1-3.12-1.15h1l-1.07.57-.17.09h-.24l.41-.09a13.44,13.44,0,0,1-4.42,1.11A16.9,16.9,0,0,1,56,61.34a14,14,0,0,1-4.27-1.57,11.64,11.64,0,0,1-3.51-3h1.62a12.22,12.22,0,0,1-5.39,3.81A17,17,0,0,1,38,61.67a17.51,17.51,0,0,1-6.35-1.22,13.43,13.43,0,0,1-5.31-3.87l1.79-.31-.2.53a6.21,6.21,0,0,1-.26.59,8.08,8.08,0,0,1-.64,1.1,8.22,8.22,0,0,1-1.76,1.82,9.86,9.86,0,0,1-4.54,1.87,11.62,11.62,0,0,1-4.83-.32,8.44,8.44,0,0,1-4.15-2.69,9.21,9.21,0,0,1-2-4.48,13.72,13.72,0,0,1-.15-2.37V50.1l0-8.89.89.89L2.13,42,.36,42l1.13-1.34,9-10.62L11,31.23l-2.62,0H7.7v-.67L8,1V.63h.37L26.82.69h.31v.84l-.37-.3a5.83,5.83,0,0,1,4.94,1,5.41,5.41,0,0,1,1.63,2,6.31,6.31,0,0,1,.58,2.52l-.53-.29a5.43,5.43,0,0,1,2.19-.82h0a5.49,5.49,0,0,1,3.25.57h-.34a10.53,10.53,0,0,1,6.57-1,8.73,8.73,0,0,1,3.22,1.13,7.09,7.09,0,0,1,2.43,2.44l-.81,0a8.81,8.81,0,0,1,3.91-2.9,14.81,14.81,0,0,1,4.72-1,14.35,14.35,0,0,1,4.81.47,8.06,8.06,0,0,1,4.13,2.77l-1.17.09a5.85,5.85,0,0,1,4.29-3h0a6,6,0,0,1,3.5.59h-.75a9.57,9.57,0,0,1,3.55-1.12,12.27,12.27,0,0,1,3.68.14A8.63,8.63,0,0,1,84,6.29a7.36,7.36,0,0,1,1.4,1.33,12.55,12.55,0,0,1,1,1.62L85,9.12a10.52,10.52,0,0,1,3.74-3.27,11.86,11.86,0,0,1,4.77-1.28,13.28,13.28,0,0,1,4.87.59,9.77,9.77,0,0,1,2.26,1.08A7.51,7.51,0,0,1,102.51,8l-1.25-.07a11.87,11.87,0,0,1,14.41-1.47,8.57,8.57,0,0,1,2.62,2.9,9,9,0,0,1,1,3.73,10.61,10.61,0,0,1-.42,3.79,8.09,8.09,0,0,1-2,3.3l0-.65a5.41,5.41,0,0,1,1.59,3.08,7,7,0,0,1-.34,3.4,8.11,8.11,0,0,1-4.68,4.61l.09-.41a11.28,11.28,0,0,1,2.51,5.3,25.3,25.3,0,0,1,.38,5.82l0,5.82v4.35a4.17,4.17,0,0,0,.07.71A.92.92,0,0,0,116.77,52.79Z" transform="translate(-0.36 -0.63)"/><path class="cls-3" d="M23.32,4.5h0A2.52,2.52,0,0,1,20.8,7H15.88v7.65H22.3a2.52,2.52,0,0,1-2.53,2.52H15.88v7.67A2.16,2.16,0,0,1,13.72,27H11.89V4.5Z" transform="translate(-0.36 -0.63)"/><path class="cls-4" d="M29.54,5.37a2,2,0,0,1,.52,1.49,2.08,2.08,0,0,1-.54,1.54,1.94,1.94,0,0,1-1.41.54,1.83,1.83,0,0,1-1.35-.52,2,2,0,0,1-.51-1.49,2.08,2.08,0,0,1,.55-1.54,2.06,2.06,0,0,1,2.74,0Zm.47,19a2.19,2.19,0,0,0,1.06,2.15,1.81,1.81,0,0,1-.89.75,3.43,3.43,0,0,1-1.33.26,2.49,2.49,0,0,1-2-.72,2.92,2.92,0,0,1-.65-2V12.21a1.84,1.84,0,0,1,1.88-1.8h0A1.84,1.84,0,0,1,30,12.21Z" transform="translate(-0.36 -0.63)"/><path class="cls-5" d="M36.06,9.43h0A1.62,1.62,0,0,1,37.88,11L38,12.28a5,5,0,0,1,2-2.49,5.77,5.77,0,0,1,3.16-.85c1.91,0,3.24.52,4,1.58a8.4,8.4,0,0,1,1.13,4.83v8.87a2.32,2.32,0,0,0,1.05,2.25,1.85,1.85,0,0,1-.88.79,3.22,3.22,0,0,1-1.3.27,2.47,2.47,0,0,1-2-.75,3.16,3.16,0,0,1-.65-2.12V15.83A8.16,8.16,0,0,0,44,12.62a2.06,2.06,0,0,0-2.11-1.06,2.71,2.71,0,0,0-2.78,1.85,13.39,13.39,0,0,0-.7,4.74V25.4A1.63,1.63,0,0,1,36.78,27h-.51a1.62,1.62,0,0,1-1.62-1.62V11A1.63,1.63,0,0,1,36.06,9.43Z" transform="translate(-0.36 -0.63)"/><path class="cls-6" d="M60,27.21a6.84,6.84,0,0,1-2.81.56,5.65,5.65,0,0,1-3.94-1.44,4.75,4.75,0,0,1-1.59-3.71q0-5.53,9.86-5.53v-3A5,5,0,0,0,61,11.58a2.09,2.09,0,0,0-1.94-.84,3.05,3.05,0,0,0-2,.63,2.13,2.13,0,0,0-.79,1.76,5,5,0,0,0,.27,1.54,2.14,2.14,0,0,1-1.36.37,2.86,2.86,0,0,1-1.94-.61,2.21,2.21,0,0,1-.72-1.78A3,3,0,0,1,54.4,10a9.92,9.92,0,0,1,4.91-1,7.91,7.91,0,0,1,3.55.66,3.82,3.82,0,0,1,1.86,2.05,9.89,9.89,0,0,1,.56,3.7v8.87a2.33,2.33,0,0,0,1.06,2.25,1.91,1.91,0,0,1-.8.79,2.63,2.63,0,0,1-1.21.27A2.43,2.43,0,0,1,62.69,27a2.39,2.39,0,0,1-.78-1.52A4,4,0,0,1,60,27.21Zm.77-2.87a5.08,5.08,0,0,0,.75-2.85v-2.7q-5.76,0-5.76,3.69a3.12,3.12,0,0,0,.73,2.18,2.57,2.57,0,0,0,2,.82A2.51,2.51,0,0,0,60.78,24.34Z" transform="translate(-0.36 -0.63)"/><path class="cls-7" d="M71.13,9.43h0A1.62,1.62,0,0,1,73,11L73,12.28a5,5,0,0,1,2-2.49,5.77,5.77,0,0,1,3.16-.85c1.91,0,3.24.52,4,1.58a8.4,8.4,0,0,1,1.13,4.83v8.87a2.32,2.32,0,0,0,1,2.25,1.8,1.8,0,0,1-.88.79,3.19,3.19,0,0,1-1.3.27,2.47,2.47,0,0,1-2-.75,3.16,3.16,0,0,1-.65-2.12V15.83a8.38,8.38,0,0,0-.47-3.21A2.09,2.09,0,0,0,77,11.56a2.71,2.71,0,0,0-2.78,1.85,13.39,13.39,0,0,0-.7,4.74V25.4A1.62,1.62,0,0,1,71.85,27h-.51a1.62,1.62,0,0,1-1.62-1.62V11A1.63,1.63,0,0,1,71.13,9.43Z" transform="translate(-0.36 -0.63)"/><path class="cls-8" d="M90.53,18.39a13,13,0,0,0,.77,4.89,2.92,2.92,0,0,0,3,1.86,4.23,4.23,0,0,0,2.58-.8,3.9,3.9,0,0,0,1.45-2.27,2,2,0,0,1,.83.63A1.86,1.86,0,0,1,99.38,24a3.35,3.35,0,0,1-.79,1.84,5,5,0,0,1-2,1.42,7.11,7.11,0,0,1-2.6.5,6.49,6.49,0,0,1-5.56-2.44,10.85,10.85,0,0,1-1.81-6.57,11.92,11.92,0,0,1,2-7.11,6.82,6.82,0,0,1,5.92-2.71,7,7,0,0,1,3.82,1,3.24,3.24,0,0,1,1.51,2.94,2.2,2.2,0,0,1-.72,1.77,3.28,3.28,0,0,1-2.71.51,2,2,0,0,1-.63-.27A5,5,0,0,0,96,13.3c0-1.57-.68-2.35-2-2.35Q90.54,11,90.53,18.39Z" transform="translate(-0.36 -0.63)"/><path class="cls-9" d="M114.72,23.67a3.17,3.17,0,0,1-.82,2.17,5.2,5.2,0,0,1-2.11,1.43,7.39,7.39,0,0,1-2.63.5,6.48,6.48,0,0,1-5.56-2.44,10.78,10.78,0,0,1-1.81-6.57,11.85,11.85,0,0,1,2-7.11,6.85,6.85,0,0,1,6-2.71,6,6,0,0,1,4.06,1.31A4.6,4.6,0,0,1,115.3,14a4.39,4.39,0,0,1-2.07,4.16,11.13,11.13,0,0,1-5.61,1.2c-.66,0-1.28,0-1.87-.07a10.55,10.55,0,0,0,.9,4.3,2.9,2.9,0,0,0,2.85,1.6,4.55,4.55,0,0,0,2.64-.77,5.12,5.12,0,0,0,1.79-2.16A1.46,1.46,0,0,1,114.72,23.67Zm-8.16-10.86a13.88,13.88,0,0,0-.81,4.72c.68,0,1.18.07,1.5.07,2.86,0,4.3-1.15,4.3-3.44a4.24,4.24,0,0,0-.6-2.34,2,2,0,0,0-1.79-.94A2.65,2.65,0,0,0,106.56,12.81Z" transform="translate(-0.36 -0.63)"/><path class="cls-10" d="M47.28,51A4.7,4.7,0,0,1,46,54.31a8.08,8.08,0,0,1-3.31,2.1,12.36,12.36,0,0,1-4.17.72q-5.73,0-8.66-3.48t-2.93-9.54q0-6.24,3.17-9.77t9.18-3.53a10.9,10.9,0,0,1,6.39,1.77,5.92,5.92,0,0,1,2.53,5.19c0,2.83-1,4.79-3,5.87A17.37,17.37,0,0,1,37,45.26a16.25,16.25,0,0,1-2.52-.15,11.26,11.26,0,0,0,1.31,5.34,4.2,4.2,0,0,0,3.93,2,7.35,7.35,0,0,0,3.74-1A6.44,6.44,0,0,0,46,48.64,2.3,2.3,0,0,1,47.28,51ZM35.39,36.41a22.49,22.49,0,0,0-.93,6.51h.95A7.35,7.35,0,0,0,40,41.82c1-.76,1.55-2.06,1.55-3.91a5.91,5.91,0,0,0-.74-3,2.42,2.42,0,0,0-2.21-1.24C37,33.62,36,34.55,35.39,36.41Z" transform="translate(-0.36 -0.63)"/><path class="cls-11" d="M63.06,56.36a9.4,9.4,0,0,1-3.86.77A10,10,0,0,1,53,55.22a6.24,6.24,0,0,1-2.53-5.29,6,6,0,0,1,4.15-6.1,29,29,0,0,1,10.44-1.62V38.06a7.69,7.69,0,0,0-.62-3.44A2.48,2.48,0,0,0,62,33.43a3.49,3.49,0,0,0-2.67,1,3.9,3.9,0,0,0-1,2.79,13.61,13.61,0,0,0,.28,2.29,2.45,2.45,0,0,1-1,.35,7,7,0,0,1-1.24.12,5.4,5.4,0,0,1-3.24-.93,3.1,3.1,0,0,1-1.29-2.69q0-2.72,3.08-4.15a17.38,17.38,0,0,1,7.36-1.43c3.44,0,6,.68,7.58,2.05s2.43,3.67,2.43,6.91V51.31a7.5,7.5,0,0,0,.34,2.34,4.25,4.25,0,0,0,1.14,1.76,3.23,3.23,0,0,1-1.55,1,6.43,6.43,0,0,1-2.07.35,5.46,5.46,0,0,1-3-.74,3.7,3.7,0,0,1-1.62-2.12A5.15,5.15,0,0,1,63.06,56.36Zm1.12-4a7.26,7.26,0,0,0,.88-3.72v-4Q58,44.59,58,49.74a4.66,4.66,0,0,0,.88,2.95,3,3,0,0,0,2.55,1.15A2.94,2.94,0,0,0,64.18,52.31Z" transform="translate(-0.36 -0.63)"/><path class="cls-12" d="M83.61,31.19h0l.33,4.29q1.82-4.66,7.48-4.67a8.36,8.36,0,0,1,4.44,1,6.12,6.12,0,0,1,2.48,3.07q1.91-4.09,7-4.1,4.1,0,5.81,2.24t1.72,6.72V51.31a7.51,7.51,0,0,0,.33,2.34,4.27,4.27,0,0,0,1.15,1.76,3.25,3.25,0,0,1-1.6,1,6.87,6.87,0,0,1-2.12.35,5.19,5.19,0,0,1-3.77-1.26,5,5,0,0,1-1.28-3.74V40.15a13.27,13.27,0,0,0-.53-4.24,2.24,2.24,0,0,0-2.38-1.47,2.8,2.8,0,0,0-2.89,2.19,19.07,19.07,0,0,0-.69,5.62V56.08h-4.3a3,3,0,0,1-3-3V40.15a13.19,13.19,0,0,0-.53-4.26,2.32,2.32,0,0,0-2.48-1.45,3,3,0,0,0-3.07,2.14,17.91,17.91,0,0,0-.74,5.67V56.08H81.33a3.68,3.68,0,0,1-3.68-3.68V37.75A6.6,6.6,0,0,1,83.61,31.19Z" transform="translate(-0.36 -0.63)"/><path class="cls-13" d="M21.94,54.15a4,4,0,0,1-.55-2.27V37.71h5.75l-2.51-3L23,32.77l-1.6-1.93-2.3-2.77-.77-.93-3.68,4.43L12,34.85,9.6,37.71h4.5V52.6a5.42,5.42,0,0,0,1.26,3.86,4.93,4.93,0,0,0,3.75,1.34A5.85,5.85,0,0,0,22,57.1a3.67,3.67,0,0,0,1.76-1.93A2.7,2.7,0,0,1,21.94,54.15Z" transform="translate(-0.36 -0.63)"/><path class="cls-14" d="M18.22,30.51,13.68,36h3.68V54.5a.83.83,0,0,0,1.43.59A.8.8,0,0,0,19,54.5V36h3.71Z" transform="translate(-0.36 -0.63)"/></g></g></svg>