<svg xmlns="http://www.w3.org/2000/svg" viewBox="0 0 1682.42 562.6"><defs><style>.cls-1{fill:#eb2228;}.cls-2{fill:#020202;}</style></defs><g id="Layer_2" data-name="Layer 2"><g id="Layer_1-2" data-name="Layer 1"><path class="cls-1" d="M80,246.45v139H3.1V23.28H108.71q73.86,0,109.32,26.88t35.45,81.61q0,31.95-17.6,56.85t-49.83,39Q267.86,349.75,292.64,385.4H207.37L120.85,246.45ZM80,184h24.79q36.44,0,53.79-12.13t17.35-38.15q0-25.75-17.72-36.66T103.25,86.2H80Z"/><path class="cls-1" d="M457.74,390.36q-66.93,0-104.61-36.91T315.45,248.93q0-69.6,34.83-107.62t96.31-38q58.76,0,91.47,33.43t32.73,92.39v36.66H392.05q1.24,32.21,19.09,50.28t50.08,18.08a207.83,207.83,0,0,0,47.34-5.2,237.53,237.53,0,0,0,46.61-16.59v58.45a177.7,177.7,0,0,1-42.39,14.74Q490.22,390.36,457.74,390.36ZM447.09,157Q423,157,409.4,172.27t-15.61,43.22h106.1q-.51-28-14.63-43.22T447.09,157Z"/><path class="cls-1" d="M720,390.36q-48.84,0-76.72-37.9t-27.89-105q0-68.12,28.38-106.13t78.21-38q52.31,0,79.83,40.62h2.47q-5.7-31-5.7-55.24V0h75.86V385.4h-58l-14.62-35.91H798.6Q772.82,390.37,720,390.36Zm26.53-60.19q29,0,42.51-16.84t14.75-57.22v-8.17q0-44.59-13.76-63.91t-44.74-19.32q-25.29,0-39.3,21.43t-14,62.29q0,40.88,14.13,61.31T746.55,330.17Z"/><path d="M1130.17,385.4h-75.61V223.66q0-59.94-44.62-59.94-31.74,0-45.86,21.55T950,255.12V385.4H874.34V0H950V78.52q0,9.17-1.74,43.1l-1.73,22.29h4q25.29-40.62,80.32-40.62,48.84,0,74.12,26.25t25.29,75.3Z"/><path d="M1384,385.4l-14.63-37.64h-2q-19.1,24-39.3,33.31t-52.67,9.29q-39.92,0-62.85-22.79t-22.93-64.89q0-44.08,30.87-65t93.08-23.16l48.1-1.49V200.88q0-42.1-43.14-42.11-33.22,0-78.09,20.06l-25-51q47.83-25,106.1-25,55.77,0,85.52,24.27t29.75,73.82V385.4Zm-22.31-128.3-29.26,1q-33,1-49.08,11.89t-16.11,33.19q0,31.95,36.68,31.95,26.28,0,42-15.11t15.75-40.12Z"/><path d="M1631.42,330.17q19.83,0,47.59-8.67v56.23q-28.26,12.63-69.41,12.63-45.36,0-66.06-22.91t-20.7-68.74V165.21h-36.2v-32L1528.29,108l21.82-58.45h48.34v59H1676v56.72h-77.59v133.5q0,16.11,9,23.78T1631.42,330.17Z"/><path class="cls-2" d="M86.34,457,64.79,519.45a143.25,143.25,0,0,0-4.2,15.26h-.45a85.39,85.39,0,0,0-3.76-15.09L34.84,457H0V562.6H21.43V504.2c0-7.86-.34-16.95-.95-27.38h.67c1.51,7.91,2.58,12.79,3.31,14.75l25.13,71H69.06L93.8,490.79a116.05,116.05,0,0,0,3.31-14h.56c-.56,8.25-.84,15.76-.84,22.61V562.6h23.45V457Z"/><path class="cls-2" d="M469.61,543.3V519.17h34.5V499.88h-34.5V476.37h37.08V457H445.82V562.6H509.1V543.3Z"/><path class="cls-2" d="M865,457H827.58V562.6H865q25.5,0,40.9-14.76t15.32-39.38Q921.21,457,865,457Zm22.39,77q-8.76,9.26-24.24,9.26H851.36V476.37H863c10.55,0,18.69,2.92,24.52,8.64s8.7,13.69,8.7,23.79C896.19,519.4,893.27,527.87,887.38,534Z"/><path class="cls-2" d="M1272.89,475.42V457h-41.46v18.4h8.87v68.77h-8.87V562.6h41.46V544.19h-8.81V475.42Z"/><path class="cls-2" d="M1644.89,457h-28.22L1578.24,562.6h25.81l7.4-23.51H1649l7.52,23.51h25.92Zm-28.33,63.84L1628,485.07a37.57,37.57,0,0,0,1.85-9.2h.62a44.57,44.57,0,0,0,1.74,9.48l11.33,35.51Z"/></g></g></svg>