<svg xmlns="http://www.w3.org/2000/svg" viewBox="0 0 386.57 62.4"><defs><style>.cls-1{fill:#231f20;}.cls-2{fill:#57bb62;}</style></defs><title>finl logo</title><g id="Layer_2" data-name="Layer 2"><g id="Layer_1-2" data-name="Layer 1"><path class="cls-1" d="M215.53,17.71v6.9a22.37,22.37,0,0,1,5.85-5.4A14.3,14.3,0,0,1,229.26,17a20.93,20.93,0,0,1,7.61,1.24A15.37,15.37,0,0,1,242.45,22q5.49,5.4,5.49,14.25V62H241.3V36.39q0-6.12-3.46-9.74A11.78,11.78,0,0,0,228.9,23a13.2,13.2,0,0,0-9.47,3.72,13,13,0,0,0-3.9,9.73V62h-6.64V17.71Z"/><path class="cls-1" d="M265.64,62H259V0h6.64Z"/><path class="cls-1" d="M284.05,1.59v8.68h-7.17V1.59Zm-6.9,16.12h6.64V62h-6.64Z"/><path class="cls-2" d="M178.17,62.4a22.69,22.69,0,0,1-15.93-6q-6.51-6-6.5-16.37t6.5-16.38a24.28,24.28,0,0,1,31.89,0q6.48,6,6.48,16.38,0,10.26-6.41,16.3A22.47,22.47,0,0,1,178.17,62.4Zm0-9.63a8.16,8.16,0,0,0,6.64-3.14q2.55-3.15,2.55-9.86,0-5.9-2.48-9.21a7.93,7.93,0,0,0-6.71-3.31q-9.1,0-9.1,13.14a16.12,16.12,0,0,0,2.26,8.88A7.58,7.58,0,0,0,178.13,52.77Z"/><path class="cls-1" d="M301.94,17.71v6.9a22.33,22.33,0,0,1,5.84-5.4A14.33,14.33,0,0,1,315.66,17a20.89,20.89,0,0,1,7.61,1.24A15.2,15.2,0,0,1,328.85,22q5.49,5.4,5.49,14.25V62H327.7V36.39q0-6.12-3.45-9.74A11.82,11.82,0,0,0,315.3,23a13.22,13.22,0,0,0-9.47,3.72,13,13,0,0,0-3.89,9.73V62H295.3V17.71Z"/><path class="cls-1" d="M365.15,56q8.94,0,12.83-7.43h7.26a21.36,21.36,0,0,1-7.3,9.73q-5,3.72-12.88,3.72-10,0-16.29-6.64a22.67,22.67,0,0,1-6.11-16.2q0-9.83,5.84-16.2,6.19-6.64,16.12-6.64t16.11,6.64q5.83,6.38,5.84,16.2v2.66H349.48a16,16,0,0,0,4.87,10.09A15,15,0,0,0,365.15,56Zm-.53-33.64a14.62,14.62,0,0,0-10.27,3.81,15.69,15.69,0,0,0-4.78,9.47h30.1a15.8,15.8,0,0,0-4.78-9.47A14.66,14.66,0,0,0,364.62,22.31Z"/><path class="cls-1" d="M6.53,61.71H0V4.11H27.58q8.79,0,14.1,4.87T47,22.12q0,10.79-9,14.7a24.51,24.51,0,0,1-5,1.66L48.2,61.71H40.46L26.54,39.61h-20Zm0-28.28H26.45q9.23,0,12.71-5.74a10.71,10.71,0,0,0,1.3-5.57,10.77,10.77,0,0,0-3.74-8.66Q33,10.28,26.8,10.28H6.53Z"/><path class="cls-1" d="M64.82,12.94a7.15,7.15,0,0,0-2.22,3.17,12.18,12.18,0,0,0-.56,3.7,5,5,0,0,0,1.69,3.61,13.83,13.83,0,0,0,4.49,2.79,45.91,45.91,0,0,0,6.35,2L81.83,30q3.7.92,7.27,2.09a26.61,26.61,0,0,1,6.35,3q6.18,3.91,6.18,10.7,0,8.1-6,12.36T78.83,62.4q-12.09,0-18.45-5Q54.72,52.83,54,44.48h6.78a10.69,10.69,0,0,0,5.75,9.05q4.69,2.7,12.44,2.7,16.18,0,16.18-10.18a6.33,6.33,0,0,0-2.91-5.49,26.11,26.11,0,0,0-7.31-3.3q-4.39-1.3-9.49-2.44a59.07,59.07,0,0,1-9.48-2.91,21.78,21.78,0,0,1-7.31-4.7,10.67,10.67,0,0,1-2.91-7.88A14.16,14.16,0,0,1,61.08,7.85q5.4-4.44,16.27-4.44t17,5.05a15.06,15.06,0,0,1,5.83,11.4h-6.7q-.87-7.14-9.22-9.49a26.55,26.55,0,0,0-7.36-.87,23.79,23.79,0,0,0-7.39,1A13.68,13.68,0,0,0,64.82,12.94Z"/><path class="cls-1" d="M118.25,4.11V55.44h31.41v6.27H111.72V4.11Z"/></g></g></svg>