<?xml version="1.0" encoding="utf-8"?>
<svg id="Layer_1" data-name="Layer 1" xmlns="http://www.w3.org/2000/svg" viewBox="0 0 777 251"><defs><style>.cls-1{fill:#22215c;}.cls-2{fill:#4db966;}.cls-3{fill:#399e4a;}.cls-4{fill:#fff;}</style></defs><title>logo1</title><path class="cls-1" d="M315.59,107.34a12.56,12.56,0,0,1-4.81,10.44q-4.81,3.8-13.28,3.79c-5.65,0-10.26-.88-13.86-2.63v-7.71a38.1,38.1,0,0,0,7.25,2.53,31,31,0,0,0,7.15.92q4.86,0,7.15-1.85a6,6,0,0,0,2.31-4.94,6.22,6.22,0,0,0-2.12-4.75q-2.11-2-8.74-4.61-6.83-2.76-9.62-6.31a13.36,13.36,0,0,1-2.8-8.53,12,12,0,0,1,4.44-9.84q4.44-3.59,11.91-3.58a35.09,35.09,0,0,1,14.27,3.14l-2.6,6.66a31,31,0,0,0-11.87-2.8c-2.64,0-4.65.57-6,1.72a5.66,5.66,0,0,0-2.05,4.56,6.42,6.42,0,0,0,.82,3.33,8.26,8.26,0,0,0,2.7,2.61,45.25,45.25,0,0,0,6.75,3.24A36.74,36.74,0,0,1,310.64,97a12.58,12.58,0,0,1,3.76,4.47A13.54,13.54,0,0,1,315.59,107.34Z"/><path class="cls-1" d="M356.21,120.89h-8.06V97.61c0-2.89-.54-5-1.64-6.47A6,6,0,0,0,341.39,89c-3.09,0-5.36,1-6.81,3s-2.16,5.36-2.16,10v18.81h-8V83.14h6.28l1.12,5h.41a10.5,10.5,0,0,1,4.56-4.17,14.67,14.67,0,0,1,6.57-1.47c5.8,0,9.65,2,11.54,5.94h.54A11.6,11.6,0,0,1,360.14,84a15,15,0,0,1,7-1.57c4.5,0,7.79,1.15,9.84,3.42S380,91.61,380,96.28v24.61h-8V97.61c0-2.89-.55-5-1.66-6.47A6.08,6.08,0,0,0,365.22,89q-4.68,0-6.85,2.92t-2.16,9Z"/><path class="cls-1" d="M414.85,120.89l-1.61-5.26H413a15.52,15.52,0,0,1-5.5,4.7,17.34,17.34,0,0,1-7.09,1.24q-5.56,0-8.69-3c-2.08-2-3.13-4.84-3.13-8.5q0-5.83,4.34-8.81T406.11,98l6.52-.21v-2c0-2.41-.56-4.22-1.69-5.41s-2.87-1.79-5.24-1.79a18,18,0,0,0-5.56.85,40.37,40.37,0,0,0-5.12,2l-2.6-5.74a28,28,0,0,1,6.73-2.44,30.75,30.75,0,0,1,6.89-.84q7.2,0,10.87,3.14t3.67,9.87v25.43Zm-12-5.46a10,10,0,0,0,7-2.44,8.87,8.87,0,0,0,2.64-6.85v-3.27l-4.85.2q-5.65.21-8.24,1.9a5.75,5.75,0,0,0-2.58,5.17,5,5,0,0,0,1.51,3.9A6.38,6.38,0,0,0,402.9,115.43Z"/><path class="cls-1" d="M439.8,120.89h-8V67.78h8Z"/><path class="cls-1" d="M459.29,120.89h-8V67.78h8Z"/><path class="cls-1" d="M489.77,71h14.81q10.31,0,14.9,3t4.59,9.49a11.52,11.52,0,0,1-2.25,7.27,10,10,0,0,1-6.49,3.65v.34c3.51.66,6.08,2,7.74,3.91a11.83,11.83,0,0,1,2.47,7.9q0,6.74-4.69,10.53t-13.06,3.81h-18Zm8.16,20.61h7.85q5.12,0,7.47-1.62t2.36-5.51a5.54,5.54,0,0,0-2.54-5.09q-2.55-1.57-8.08-1.57h-7.06Zm0,6.63V114h8.67c3.41,0,6-.66,7.73-2s2.61-3.38,2.61-6.2a6.61,6.61,0,0,0-2.66-5.77c-1.78-1.25-4.47-1.87-8.09-1.87Z"/><path class="cls-1" d="M561.69,120.89l-1.13-5h-.41a11.35,11.35,0,0,1-4.76,4.13,15.94,15.94,0,0,1-7,1.5q-6.86,0-10.24-3.41t-3.38-10.34V83.14h8.09v23.28q0,4.33,1.78,6.5c1.18,1.45,3,2.17,5.56,2.17q5.05,0,7.42-3T560,101.94V83.14h8v37.75Z"/><path class="cls-1" d="M604.8,110.14a9.87,9.87,0,0,1-4,8.48q-4,3-11.53,2.95t-12.12-2.29v-6.93a29.72,29.72,0,0,0,12.39,3.08q7.41,0,7.41-4.47a3.55,3.55,0,0,0-.82-2.39,9.69,9.69,0,0,0-2.7-2,45.87,45.87,0,0,0-5.22-2.32q-6.52-2.53-8.83-5a9.41,9.41,0,0,1-2.3-6.56A8.61,8.61,0,0,1,581,85.13q3.9-2.67,10.63-2.68a30.25,30.25,0,0,1,12.6,2.7l-2.6,6a28,28,0,0,0-10.27-2.52c-4.23,0-6.35,1.2-6.35,3.62a3.63,3.63,0,0,0,1.66,3,35.84,35.84,0,0,0,7.21,3.38,33.56,33.56,0,0,1,6.8,3.31,9.84,9.84,0,0,1,3.14,3.46A10.09,10.09,0,0,1,604.8,110.14Z"/><path class="cls-1" d="M613,73.14a4.41,4.41,0,0,1,1.18-3.31,4.54,4.54,0,0,1,3.36-1.16A4.07,4.07,0,0,1,622,73.14a4.33,4.33,0,0,1-1.18,3.22,4.42,4.42,0,0,1-3.29,1.18,4.51,4.51,0,0,1-3.36-1.18A4.33,4.33,0,0,1,613,73.14Zm8.5,47.75h-8V83.14h8Z"/><path class="cls-1" d="M666.17,120.89h-8V97.68c0-2.91-.59-5.09-1.76-6.52s-3-2.15-5.58-2.15c-3.4,0-5.87,1-7.44,3S641,97.37,641,102.08v18.81h-8V83.14h6.28l1.13,5h.41a11.13,11.13,0,0,1,4.84-4.17,16.21,16.21,0,0,1,7-1.47q13.57,0,13.58,13.83Z"/><path class="cls-1" d="M693.82,121.57q-8.8,0-13.78-5.13t-5-14.15q0-9.26,4.6-14.54t12.67-5.3q7.47,0,11.81,4.55t4.33,12.49v4.33H683.34c.11,3.67,1.1,6.48,3,8.45s4.49,3,7.88,3a29.16,29.16,0,0,0,6.23-.63,32.65,32.65,0,0,0,6.2-2.1V119a25,25,0,0,1-5.94,2A36.22,36.22,0,0,1,693.82,121.57Zm-1.47-33A8.09,8.09,0,0,0,686.22,91,11.62,11.62,0,0,0,683.47,98h17.14q-.08-4.68-2.25-7.08A7.7,7.7,0,0,0,692.35,88.53Z"/><path class="cls-1" d="M743,110.14a9.87,9.87,0,0,1-4,8.48q-4,3-11.54,2.95t-12.11-2.29v-6.93a29.68,29.68,0,0,0,12.39,3.08q7.4,0,7.4-4.47a3.51,3.51,0,0,0-.82-2.39,9.47,9.47,0,0,0-2.69-2,46.69,46.69,0,0,0-5.22-2.32q-6.52-2.53-8.83-5a9.41,9.41,0,0,1-2.3-6.56,8.61,8.61,0,0,1,3.91-7.53q3.9-2.67,10.63-2.68a30.29,30.29,0,0,1,12.6,2.7l-2.6,6a28.06,28.06,0,0,0-10.27-2.52c-4.23,0-6.35,1.2-6.35,3.62a3.64,3.64,0,0,0,1.65,3A36,36,0,0,0,732,98.67a33.56,33.56,0,0,1,6.8,3.31,9.81,9.81,0,0,1,3.13,3.46A10,10,0,0,1,743,110.14Z"/><path class="cls-1" d="M777,110.14a9.87,9.87,0,0,1-4,8.48q-4,3-11.54,2.95t-12.11-2.29v-6.93a29.68,29.68,0,0,0,12.39,3.08q7.39,0,7.4-4.47a3.51,3.51,0,0,0-.82-2.39,9.47,9.47,0,0,0-2.69-2,46.69,46.69,0,0,0-5.22-2.32q-6.52-2.53-8.83-5a9.41,9.41,0,0,1-2.3-6.56,8.61,8.61,0,0,1,3.91-7.53q3.9-2.67,10.63-2.68a30.29,30.29,0,0,1,12.6,2.7l-2.6,6a28.06,28.06,0,0,0-10.27-2.52c-4.23,0-6.35,1.2-6.35,3.62a3.64,3.64,0,0,0,1.65,3A36,36,0,0,0,766,98.67a33.56,33.56,0,0,1,6.8,3.31,9.81,9.81,0,0,1,3.13,3.46A10,10,0,0,1,777,110.14Z"/><path class="cls-2" d="M307.05,180h-5.63L287.6,157.64h-.15l.09,1.25q.27,3.57.27,6.53V180h-4.17v-28.1h5.58L303,174.21h.11c0-.3-.07-1.37-.15-3.22s-.12-3.3-.12-4.34V151.93h4.21Z"/><path class="cls-2" d="M361.87,180H346v-28.1h15.9v3.88h-11.3v7.65h10.59v3.85H350.57v8.82h11.3Z"/><path class="cls-2" d="M425.37,180h-5l-4.77-16.76c-.21-.73-.46-1.79-.77-3.16s-.49-2.34-.56-2.88c-.13.82-.33,1.89-.62,3.19s-.53,2.29-.72,2.93L408.28,180h-5L399.65,166l-3.69-14h4.69l4,16.38a70.17,70.17,0,0,1,1.35,6.95c.14-1.08.35-2.3.63-3.65s.54-2.43.77-3.27L412,151.93h4.56l4.69,16.49a62,62,0,0,1,1.42,6.84,51.51,51.51,0,0,1,1.39-7l4-16.34h4.65Z"/><path class="cls-2" d="M484.38,172.4a7.06,7.06,0,0,1-2.71,5.88,11.82,11.82,0,0,1-7.48,2.14,17.9,17.9,0,0,1-7.8-1.48v-4.35a20.92,20.92,0,0,0,4.08,1.42,17.14,17.14,0,0,0,4,.52,6.44,6.44,0,0,0,4-1,3.42,3.42,0,0,0,1.29-2.79,3.47,3.47,0,0,0-1.19-2.67,17.8,17.8,0,0,0-4.92-2.6,13,13,0,0,1-5.42-3.56,7.51,7.51,0,0,1-1.58-4.8,6.76,6.76,0,0,1,2.5-5.54,10.4,10.4,0,0,1,6.71-2,19.74,19.74,0,0,1,8,1.77L482.5,157a17.59,17.59,0,0,0-6.69-1.58,5.13,5.13,0,0,0-3.39,1,3.17,3.17,0,0,0-1.15,2.56,3.61,3.61,0,0,0,.46,1.88,4.87,4.87,0,0,0,1.52,1.47,24.83,24.83,0,0,0,3.81,1.82,20.53,20.53,0,0,1,4.53,2.41,7.11,7.11,0,0,1,2.12,2.51A7.58,7.58,0,0,1,484.38,172.4Z"/><path class="cls-2" d="M567.63,168.81V180H563v-28.1H571q5.44,0,8,2t2.62,6.15c0,3.49-1.82,6-5.46,7.47L584.13,180H578.9l-6.73-11.22Zm0-3.81h3.19a7.32,7.32,0,0,0,4.66-1.19,4.34,4.34,0,0,0,1.44-3.54,3.8,3.8,0,0,0-1.56-3.42,8.55,8.55,0,0,0-4.69-1h-3Z"/><path class="cls-2" d="M644.65,165.94q0,6.87-3.43,10.67t-9.72,3.81q-6.36,0-9.77-3.78t-3.41-10.74q0-7,3.43-10.69t9.79-3.73q6.27,0,9.69,3.79T644.65,165.94Zm-21.45,0c0,3.46.7,6.09,2.09,7.87a8.53,8.53,0,0,0,12.39,0q2.09-2.66,2.09-7.9t-2.07-7.84a7.31,7.31,0,0,0-6.16-2.67,7.48,7.48,0,0,0-6.24,2.67Q623.2,160.77,623.2,165.94Z"/><path class="cls-2" d="M707.14,165.94q0,6.87-3.43,10.67T694,180.42q-6.36,0-9.78-3.78T680.8,165.9q0-7,3.43-10.69t9.8-3.73q6.26,0,9.69,3.79T707.14,165.94Zm-21.46,0c0,3.46.7,6.09,2.1,7.87a8.53,8.53,0,0,0,12.39,0q2.08-2.66,2.08-7.9t-2.06-7.84a7.31,7.31,0,0,0-6.16-2.67,7.46,7.46,0,0,0-6.24,2.67Q685.68,160.77,685.68,165.94Z"/><path class="cls-2" d="M756.82,180l-8.15-23.47h-.16c.22,3.49.33,6.75.33,9.8V180h-4.17v-28.1h6.48l7.8,22.35h.12l8-22.35h6.5V180h-4.42v-13.9c0-1.39,0-3.21.11-5.46s.13-3.6.18-4.07h-.16L760.88,180Z"/><circle class="cls-1" cx="125.5" cy="125.5" r="125.5"/><polygon class="cls-3" points="132.96 8.04 16.08 135.5 58.88 134.25 19.14 246.38 141.58 102.01 105.54 101.72 132.96 8.04"/><polygon class="cls-2" points="100.71 115.23 67.9 115.23 132.96 8.04 16.08 135.5 58.88 134.25 19.14 246.38 100.71 115.23"/><path class="cls-4" d="M238.56,167q-8.66-12.79-24.7-18.34a38.58,38.58,0,0,0,17.64-16.32,48.92,48.92,0,0,0,6-24.22q0-17.44-10.1-30.38T204.1,61.6q-13.22-3.18-39.65-3.18H100.38c24.64,11.38,23.47,23.67,23.47,24,0,5.86.19,12,.19,17.85V215.05c0,8.19.32,17.3-4.93,24.16a22,22,0,0,1-11,7.34,38.17,38.17,0,0,1-8.59,1.6A127.23,127.23,0,0,0,125.84,251l1.66,0q.83,0,1.65,0a125.54,125.54,0,0,0,112.69-78.32A49.2,49.2,0,0,0,238.56,167ZM153.11,82.5h18.12q37.23,0,37.23,27.4,0,14.11-8.23,21.38t-29,7.26H153.11Zm58.6,132.09a27.55,27.55,0,0,1-16.26,10.1q-10,2.15-31.41,2.14H153.11V162.35h16.6q17.29,0,26.78,2.56A28.65,28.65,0,0,1,212,175.15q6,7.68,6,19Q218,206.64,211.71,214.59Z"/></svg>