<svg xmlns="http://www.w3.org/2000/svg" xmlns:xlink="http://www.w3.org/1999/xlink" viewBox="0 0 36.83 5.72"><defs><style>.cls-1{fill:url(#linear-gradient);}.cls-2{fill:url(#linear-gradient-2);}.cls-3{fill:url(#linear-gradient-3);}.cls-4{fill:url(#linear-gradient-4);}.cls-5{fill:url(#linear-gradient-5);}.cls-6{fill:url(#linear-gradient-6);}.cls-7{fill:url(#linear-gradient-7);}.cls-8{fill:url(#linear-gradient-8);}.cls-9{fill:url(#linear-gradient-9);}.cls-10{fill:url(#linear-gradient-10);}.cls-11{fill:url(#linear-gradient-11);}.cls-12{fill:url(#linear-gradient-12);}.cls-13{fill:url(#linear-gradient-13);}.cls-14{fill:url(#linear-gradient-14);}.cls-15{fill:url(#linear-gradient-15);}.cls-16{fill:url(#linear-gradient-16);}.cls-17{fill:url(#linear-gradient-17);}</style><linearGradient id="linear-gradient" x1="5.96" y1="-1.67" x2="5.87" y2="5.22" gradientUnits="userSpaceOnUse"><stop offset="0" stop-color="#400aab"/><stop offset="1" stop-color="#f384f2"/></linearGradient><linearGradient id="linear-gradient-2" x1="9.14" y1="-1.63" x2="9.06" y2="5.26" xlink:href="#linear-gradient"/><linearGradient id="linear-gradient-3" x1="14.72" y1="-1.56" x2="14.64" y2="5.32" xlink:href="#linear-gradient"/><linearGradient id="linear-gradient-4" x1="14.73" y1="-1.56" x2="14.65" y2="5.32" xlink:href="#linear-gradient"/><linearGradient id="linear-gradient-5" x1="20.41" y1="-1.49" x2="20.33" y2="5.39" xlink:href="#linear-gradient"/><linearGradient id="linear-gradient-6" x1="20.85" y1="-1.49" x2="20.77" y2="5.4" xlink:href="#linear-gradient"/><linearGradient id="linear-gradient-7" x1="29.35" y1="-1.39" x2="29.27" y2="5.5" xlink:href="#linear-gradient"/><linearGradient id="linear-gradient-8" x1="6.09" y1="11.94" x2="5.9" y2="-0.73" xlink:href="#linear-gradient"/><linearGradient id="linear-gradient-9" x1="14.86" y1="11.81" x2="14.66" y2="-0.87" xlink:href="#linear-gradient"/><linearGradient id="linear-gradient-10" x1="20.52" y1="11.72" x2="20.33" y2="-0.95" xlink:href="#linear-gradient"/><linearGradient id="linear-gradient-11" x1="29.56" y1="11.58" x2="29.37" y2="-1.09" xlink:href="#linear-gradient"/><linearGradient id="linear-gradient-12" x1="36.97" y1="0.98" x2="34.76" y2="0.79" xlink:href="#linear-gradient"/><linearGradient id="linear-gradient-13" x1="36.81" y1="2.85" x2="34.6" y2="2.66" xlink:href="#linear-gradient"/><linearGradient id="linear-gradient-14" x1="36.64" y1="4.84" x2="34.43" y2="4.64" xlink:href="#linear-gradient"/><linearGradient id="linear-gradient-15" x1="32.32" y1="0.66" x2="36.29" y2="0.92" xlink:href="#linear-gradient"/><linearGradient id="linear-gradient-16" x1="32.2" y1="2.52" x2="36.17" y2="2.78" xlink:href="#linear-gradient"/><linearGradient id="linear-gradient-17" x1="32.07" y1="4.51" x2="36.04" y2="4.77" xlink:href="#linear-gradient"/></defs><title>sports mag</title><g id="Layer_2" data-name="Layer 2"><g id="Layer_1-2" data-name="Layer 1"><path class="cls-1" d="M11.51.55A1,1,0,0,0,11,.18a2.08,2.08,0,0,0-.66,0L9,.15,6.25.21,4.9.24H2.54a1.72,1.72,0,0,0-.32,0A.94.94,0,0,0,1.7.52a1.44,1.44,0,0,0-.33.53V1l-.18.73c0,.12-.06.25-.08.36a1.3,1.3,0,0,0,0,.34.92.92,0,0,0,.27.6.91.91,0,0,0,.58.3,1,1,0,0,0,.17,0h2a.24.24,0,0,1,.15.05.22.22,0,0,1,.1.13.3.3,0,0,1,0,.16l0,.18-.09.36h0a.29.29,0,0,1-.11.14.18.18,0,0,1-.09,0H.45l.11-.09L.41,5l-.15.63L.15,5.49H4a1.76,1.76,0,0,0,.33,0,1.08,1.08,0,0,0,.87-.81h0l.06-.27.06-.26.07-.26,0-.13,0-.11v0a1.17,1.17,0,0,0,0-.49,1.08,1.08,0,0,0-.22-.44.9.9,0,0,0-.38-.29.86.86,0,0,0-.23-.06H2.45a.27.27,0,0,1-.2-.11A.29.29,0,0,1,2.2,2h0l.13-.54h0a.41.41,0,0,1,.05-.09l0,0,0,0a.2.2,0,0,1,.11,0H6.77l0,.14-1,4.24-.11-.15H7l-.11.09c.08-.29.15-.59.22-.89l.21-.9,0-.08h.09c.58,0,1.16,0,1.74,0l.86,0h.43a1.12,1.12,0,0,0,.39-.13A1.19,1.19,0,0,0,11.35,3c.08-.28.15-.56.22-.84l.11-.42a3.15,3.15,0,0,0,.09-.42A1.06,1.06,0,0,0,11.51.55Zm0,0a1,1,0,0,1,.27.8,3.1,3.1,0,0,1-.08.42l-.1.43c-.07.28-.12.56-.2.84a1.24,1.24,0,0,1-.54.69,1.3,1.3,0,0,1-.43.15.82.82,0,0,1-.22,0H9.12c-.57,0-1.15,0-1.73,0l.11-.08L7.08,5.64l0,.08H5.44l0-.14,1-4.23.11.14h-4s0,0,0,0h0l0,0h0l-.13.54h0s0,.06,0,.06H4.64a1,1,0,0,1,.29.08,1,1,0,0,1,.47.36,1.15,1.15,0,0,1,.26.53,1.3,1.3,0,0,1,0,.59v0l0,.16,0,.13-.06.26-.07.26-.06.25v0a1.34,1.34,0,0,1-1,1,2.35,2.35,0,0,1-.37,0H0l0-.14.15-.64q.09-.32.15-.63l0-.09H4s0,0,0,0H4l.09-.37,0-.18a.08.08,0,0,0,0,0h-2l-.2,0a1.11,1.11,0,0,1-.72-.36A1.36,1.36,0,0,1,1,2.88a1.12,1.12,0,0,1-.1-.4,1.76,1.76,0,0,1,0-.4c0-.14.06-.25.09-.37L1.15,1h0a1.91,1.91,0,0,1,.38-.6A1.2,1.2,0,0,1,2.19,0a2.11,2.11,0,0,1,.35,0H4.9L6.25,0,9,.09l1.35,0A2.42,2.42,0,0,1,11,.17,1.12,1.12,0,0,1,11.51.55Z"/><path class="cls-2" d="M10.22,2.45a.16.16,0,0,1-.1.11H10l-.31.06a1.75,1.75,0,0,1-.32,0c-.1,0-.21,0-.31,0H7.62l0-.15.21-.9,0-.12v0a.43.43,0,0,1,0-.05l0-.08a.28.28,0,0,1,.17-.09h2.26a.32.32,0,0,1,.15.13.26.26,0,0,1,0,.19h0a3.79,3.79,0,0,1-.18.42A3.16,3.16,0,0,0,10.22,2.45Zm0,0A3.4,3.4,0,0,0,10.3,2c0-.15,0-.3,0-.45h0s0,0,0,0,0,0,0,0H8.16l0,0s0,0,0,0h0v0l0,.11-.21.91-.11-.14H9.33l.32,0,.31.06a.86.86,0,0,0,.16,0A.13.13,0,0,0,10.22,2.45Z"/><path class="cls-3" d="M17.68,1.9c0-.15.07-.29.09-.43a1,1,0,0,0,0-.43A1.12,1.12,0,0,0,17.22.4a1,1,0,0,0-.38-.14,1.82,1.82,0,0,0-.41,0H13.79a1.84,1.84,0,0,0-.41,0A1,1,0,0,0,13,.43a1.28,1.28,0,0,0-.47.64v0L12,3.46l-.15.6,0,.15a.68.68,0,0,0,0,.14.87.87,0,0,0,0,.28,1,1,0,0,0,.25.49,1.12,1.12,0,0,0,.47.3,1.18,1.18,0,0,0,.27.06h3.08a1.26,1.26,0,0,0,.28,0,1,1,0,0,0,.47-.29,1.42,1.42,0,0,0,.29-.49h0c0-.11.05-.23.09-.35l.1-.34.21-.69.21-.7C17.56,2.36,17.62,2.13,17.68,1.9Zm0,0c-.06.23-.11.47-.16.7s-.09.47-.13.71-.08.48-.13.71,0,.24-.07.36-.06.23-.08.35h0a1.57,1.57,0,0,1-.33.57,1.22,1.22,0,0,1-.57.35,1.91,1.91,0,0,1-.33.06h-2.8a1.74,1.74,0,0,1-.32,0,1.36,1.36,0,0,1-.89-.44,1.28,1.28,0,0,1-.31-.6,1.29,1.29,0,0,1,0-.34,1.11,1.11,0,0,1,0-.17l0-.15.15-.6L12.33,1h0a1.63,1.63,0,0,1,.56-.74,1.25,1.25,0,0,1,.44-.2,2.45,2.45,0,0,1,.46,0h2.64a1.39,1.39,0,0,1,.88.27,1.24,1.24,0,0,1,.31.34,1.28,1.28,0,0,1,.17.42,1.08,1.08,0,0,1,0,.44C17.75,1.61,17.71,1.76,17.68,1.9Z"/><path class="cls-4" d="M16.2,2.08a4.69,4.69,0,0,0-.11.54L16,3.17c0,.09,0,.18-.05.27a2.61,2.61,0,0,1-.06.27l-.13.53h0a.39.39,0,0,1-.06.11.34.34,0,0,1-.12.09H13.23a.23.23,0,0,1-.12-.06.12.12,0,0,1,0-.05.21.21,0,0,1,0-.06.39.39,0,0,1,0-.15h0l.64-2.64h0a.34.34,0,0,1,.06-.12.23.23,0,0,1,.12-.08l.07,0h1.52a2,2,0,0,1,.34,0l.34,0s.14,0,.19.07a.18.18,0,0,1,.05.19h0a1.83,1.83,0,0,1-.08.25Zm0,0c0-.09,0-.17.05-.26a2.34,2.34,0,0,0,0-.26h0a.11.11,0,0,0-.05-.11.21.21,0,0,0-.14,0l-.34,0a2,2,0,0,1-.34,0H14s-.13,0-.13,0l0,0h0l-.65,2.66h0s0,0,0,0h2.28s0,0,0-.05h0l.13-.54c0-.09,0-.18.07-.26a2.76,2.76,0,0,1,.08-.27c.07-.17.14-.34.2-.52S16.15,2.25,16.2,2.08Z"/><path class="cls-5" d="M22.27.12l-1.06,0L20.15.2l-.53,0a1.2,1.2,0,0,0-.47.11,1,1,0,0,0-.36.29,1.67,1.67,0,0,0-.23.44h0L17.45,5.63l-.11-.15H18.7l-.11.09L19,3.79l0-.07h1l0,0,1.06,1.78L21,5.49h1.45l-.09.18L21.32,3.89l-.11-.17h.89a1,1,0,0,0,.56-.28A1,1,0,0,0,23,2.88c.05-.23.11-.46.18-.68l.19-.67a1.14,1.14,0,0,0,0-.66,1.18,1.18,0,0,0-.41-.55A1.12,1.12,0,0,0,22.27.12Zm0,0a1.16,1.16,0,0,1,.67.19,1.34,1.34,0,0,1,.47.53,1.26,1.26,0,0,1,.08.72l-.14.69c0,.11,0,.23-.07.34l-.08.35a1.39,1.39,0,0,1-.38.65,1.3,1.3,0,0,1-.68.34h-.72l.1-.18,1.05,1.78.11.17H21l0,0L19.86,3.89,20,4h-.84l.11-.08-.42,1.76,0,.09h-1.6l0-.15L18.34,1h0a2.17,2.17,0,0,1,.26-.5,1.22,1.22,0,0,1,.45-.36,1.13,1.13,0,0,1,.57-.1l.53,0L21.21.1Z"/><path class="cls-6" d="M21.91,2.44a.16.16,0,0,1-.1.11l-.08,0h-.08l-.3,0a1.76,1.76,0,0,1-.31,0H19.35l0-.14.2-.9,0-.11a.26.26,0,0,1,.06-.15l.07-.06.08,0h2.26l.08.05.06.07a.27.27,0,0,1,0,.19h0a3.3,3.3,0,0,1-.19.43A3,3,0,0,0,21.91,2.44Zm0,0A3,3,0,0,0,22,2c0-.15,0-.31,0-.46h0v0l0,0H19.85a.82.82,0,0,0,0,.18l-.21.89-.11-.14H21a1.76,1.76,0,0,1,.31,0l.3,0a.45.45,0,0,0,.16,0A.13.13,0,0,0,21.91,2.44Z"/><path class="cls-7" d="M34,.12c-.8,0-1.6,0-2.4,0H31a2.2,2.2,0,0,0-.58.06A1,1,0,0,0,30,.53a1.89,1.89,0,0,0-.28.5h0l-.15.67L29.47,2a1.65,1.65,0,0,0,0,.32.94.94,0,0,0,.17.57.94.94,0,0,0,.46.38,1.09,1.09,0,0,0,.3.07c.1,0,.22,0,.33,0h1.8a.27.27,0,0,1,.14.07l0,.05a.11.11,0,0,1,0,.08.19.19,0,0,1,0,.15v0l-.13.54h0a.28.28,0,0,1-.08.12.3.3,0,0,1-.15.07H26.25l0-.14.74-3,0-.09h1.84l-.11.09L29.09.09l.11.14H24.35l.11-.08L24.15,1.4,24,1.25h2l0,.15L24.89,5.64l-.11-.15h7.83a1.11,1.11,0,0,0,.25-.05,1.16,1.16,0,0,0,.43-.3,1.13,1.13,0,0,0,.24-.46h0l.06-.27.07-.26.06-.26,0-.13,0-.11v0a1.17,1.17,0,0,0,0-.49,1.06,1.06,0,0,0-.21-.44A.9.9,0,0,0,33,2.35H30.82a.26.26,0,0,1-.2-.11.25.25,0,0,1,0-.2h0l.14-.54h0a.43.43,0,0,1,0-.07.2.2,0,0,1,.07-.06l.08,0h.77l.92,0,1.85,0h0L34.75.12H34Zm0,0h.73l-.15.63c0,.21-.1.42-.14.63h0l-1.85,0-.92,0h-.76a0,0,0,0,1,0,0l0,0h0l-.13.55h0a.05.05,0,0,0,0,.07H33a1,1,0,0,1,.29.08,1.13,1.13,0,0,1,.48.36,1.24,1.24,0,0,1,.25.53,1.46,1.46,0,0,1,0,.59v0l0,.16,0,.13-.06.26-.06.26-.06.25v0a1.34,1.34,0,0,1-.81.91,1.08,1.08,0,0,1-.31.07h-8l0-.14,1.07-4.24.12.14h-2l0-.14.3-1.25,0-.09h5.09l0,.15L29,1.4l0,.08H27.14l.11-.08-.74,3-.11-.14h5.93l0,0h0l.13-.54H30.34A1.17,1.17,0,0,1,30,3.51,1.15,1.15,0,0,1,29.41,3a1.13,1.13,0,0,1-.18-.71A2.25,2.25,0,0,1,29.29,2l.08-.32L29.55,1h0a1.82,1.82,0,0,1,.33-.53,1.12,1.12,0,0,1,.53-.32,1.67,1.67,0,0,1,.31,0H31l.61,0Z"/><path class="cls-8" d="M11.51.55a1.12,1.12,0,0,0-.93-.43H2.43A1.2,1.2,0,0,0,1.26,1s0,.13-.07.27-.07.28-.1.43S1,2,1,2a1.15,1.15,0,0,0,.19,1,1.08,1.08,0,0,0,.89.42h2a.15.15,0,0,1,.13.06.17.17,0,0,1,0,.14c0,.1,0,.2-.07.29a1.76,1.76,0,0,1-.06.25.15.15,0,0,1-.16.11H.45l-.06.26c0,.13-.07.28-.11.43s-.08.35-.13.59h4a1.21,1.21,0,0,0,.75-.25,1.27,1.27,0,0,0,.43-.66s0-.11,0-.21.06-.23.09-.36L5.5,3.8q0-.13,0-.15a1.14,1.14,0,0,0-.2-1,1.07,1.07,0,0,0-.88-.43h-2a.17.17,0,0,1-.12-.05.23.23,0,0,1,0-.14.53.53,0,0,0,0-.11c0-.06,0-.12.05-.19a2.07,2.07,0,0,1,.06-.24.14.14,0,0,1,0-.08.17.17,0,0,1,.1,0h4l-.12.5c-.12.47-.24,1-.38,1.56s-.32,1.3-.53,2.17H7s0-.16.09-.34.09-.4.15-.63.09-.41.13-.57.06-.23.06-.24h2.85A1.15,1.15,0,0,0,11,3.58a1.19,1.19,0,0,0,.43-.65l.14-.6c0-.21.12-.48.2-.8A1.08,1.08,0,0,0,11.51.55Zm-1.29,1.9a.15.15,0,0,1-.16.11H7.76c.07-.31.13-.55.17-.72L8,1.51a.17.17,0,0,1,.07-.1.16.16,0,0,1,.09,0h2.13a.21.21,0,0,1,.13.05.17.17,0,0,1,0,.14Z"/><path class="cls-9" d="M17.68,1.9l.09-.37a1.07,1.07,0,0,0-.26-1,1.25,1.25,0,0,0-1-.43H13.69A1.27,1.27,0,0,0,12.44,1l-.15.61c-.07.32-.16.68-.26,1.07s-.21.89-.36,1.49a1.1,1.1,0,0,0,.27,1,1.24,1.24,0,0,0,1,.43h2.81A1.22,1.22,0,0,0,17,4.7c0-.08.08-.3.16-.64s.17-.72.27-1.13S17.61,2.18,17.68,1.9Zm-1.48.18c-.07.27-.14.57-.22.9s-.18.74-.3,1.24a.17.17,0,0,1-.18.13H13.29a.18.18,0,0,1-.13-.06.12.12,0,0,1,0-.13q0-.11.12-.51c.07-.27.14-.57.22-.9l.21-.85q.09-.37.09-.39a.17.17,0,0,1,.17-.13h2.22a.2.2,0,0,1,.14.05.17.17,0,0,1,0,.14Q16.29,1.67,16.2,2.08Z"/><path class="cls-10" d="M22.27.12H19.61a1.17,1.17,0,0,0-1.16.9L17.34,5.6H18.7s0-.15.08-.34.09-.39.15-.62.1-.42.13-.58l.06-.23H20L21,5.61h1.45l-1-1.78h.49a1.19,1.19,0,0,0,.75-.25,1.23,1.23,0,0,0,.42-.65c0-.19.09-.39.14-.6s.12-.48.2-.8a1.11,1.11,0,0,0-.23-1A1.13,1.13,0,0,0,22.27.12Zm-.36,2.32a.15.15,0,0,1-.16.12H19.49l.24-1a.21.21,0,0,1,.06-.1.16.16,0,0,1,.1,0H22a.16.16,0,0,1,.12.06.16.16,0,0,1,0,.13Z"/><path class="cls-11" d="M34,.12H30.8A1.2,1.2,0,0,0,29.62,1l-.06.27c0,.14-.07.28-.11.43s-.06.25-.08.31a1.15,1.15,0,0,0,.2,1,1.06,1.06,0,0,0,.88.42h2a.15.15,0,0,1,.13.06.17.17,0,0,1,0,.14.53.53,0,0,0,0,.11c0,.06,0,.12-.05.18s0,.15,0,.25a.16.16,0,0,1-.16.11H26.4l.74-3h1.75L29.2.12H24.35L24,1.37h1.82L24.78,5.61h7.68a1.24,1.24,0,0,0,.76-.25,1.26,1.26,0,0,0,.42-.66s0-.11,0-.21l.09-.36.08-.33q0-.13,0-.15a1.13,1.13,0,0,0-.19-1,1.08,1.08,0,0,0-.88-.43h-2a.17.17,0,0,1-.12-.05.17.17,0,0,1,0-.14.36.36,0,0,1,0-.11,1.62,1.62,0,0,1,0-.19,2.07,2.07,0,0,1,.06-.24.22.22,0,0,1,.05-.08.17.17,0,0,1,.1,0h3.49l.06-.26c0-.13.07-.27.11-.42s.08-.35.13-.58Z"/><path class="cls-12" d="M36.36,1.65h-.3c.07-.28.14-.56.2-.85l0,0c-.08.12-.16.25-.25.37l-.25.36h0a.27.27,0,0,1-.22-.12.49.49,0,0,1,0-.11l0-.11L35.41.78h0l-.22.87h-.39L35.16.29h0a.75.75,0,0,1,.07-.12A.31.31,0,0,1,35.36.1h.29v0l.17.85-.06,0,.6-.84h.47v0c-.14.51-.27,1-.4,1.53h-.07Zm0,0h.07c.12-.51.23-1,.35-1.54l0,0h-.39l-.6.84,0,.06V1L35.6.12l0,0h-.26A.22.22,0,0,0,35.2.3h0l-.34,1.35h.35l.2-.88,0-.08,0,.08.09.45a.59.59,0,0,0,.06.2.19.19,0,0,0,.17.09h0L36.26.8l.06-.08,0,.09-.22.84h.29Z"/><path class="cls-13" d="M34.68,2.12a.59.59,0,0,1,.12-.2.35.35,0,0,1,.2-.1h1.4v0l-.21.9-.23.9v0h-.46l.18-.7.16-.7,0,0h-.76s0,.1,0,.15l-.08.3,0,0h1.17v0l-.1.42v0H34.86l0,0-.13.5h-.47v0l.19-.76Zm0,0-.18.76-.18.75v0h.4l.11-.49v0H36l0,0,.1-.42,0,0H34.93v0l.08-.3a1.24,1.24,0,0,1,0-.16l0,0s0,0,0,0h.72v0l-.17.69-.17.7h.41v0l.21-.91c.07-.3.15-.6.22-.9l0,0h-.91c-.15,0-.31,0-.46,0a.35.35,0,0,0-.2.1A.45.45,0,0,0,34.69,2.12Z"/><path class="cls-14" d="M34.14,4.1a.72.72,0,0,1,.12-.21.36.36,0,0,1,.22-.09h1.46v0l-.1.42v0H34.61a.05.05,0,0,0,0,0h0l-.21.87h0a0,0,0,0,0,0,0h.7l0,0h0l.06-.24h-.7v0l.09-.42v0h1.2v0c-.06.27-.13.55-.2.82h0a.44.44,0,0,1-.28.3.71.71,0,0,1-.2,0h-.8a.45.45,0,0,1-.2,0,.39.39,0,0,1-.22-.33.44.44,0,0,1,0-.2L34,4.87Zm0,0L34,4.87l0,.2a.58.58,0,0,0,0,.19.35.35,0,0,0,.22.29.37.37,0,0,0,.18,0h.8a.52.52,0,0,0,.18,0,.41.41,0,0,0,.25-.26h0l.2-.81,0,0H34.59l0,0-.1.41,0,0h.71l-.06.24h0a.1.1,0,0,1,0,0h-.77a.14.14,0,0,1,0-.06h0l.21-.88h0a.07.07,0,0,1,.08,0h1.2l0,0,.1-.42,0,0H35c-.16,0-.32,0-.48,0a.33.33,0,0,0-.21.09A.41.41,0,0,0,34.15,4.1Z"/><path class="cls-15" d="M36.36,1.65h-.3s0-.1,0-.19,0-.18.08-.28.05-.23.09-.37c-.06.09-.14.19-.21.31l-.3.42a.27.27,0,0,1-.15-.05.22.22,0,0,1-.08-.13s0-.05,0-.11l0-.2c0-.07,0-.16,0-.27l0,.19c0,.1,0,.2-.07.3s-.06.23-.09.38h-.37s0-.11.06-.25S35,1.11,35,.94l.15-.65a.24.24,0,0,1,.23-.17h.22l0,.15c0,.09,0,.18.06.29l.08.4.6-.84h.41s0,.13-.07.28-.08.33-.12.52l-.18.73Z"/><path class="cls-16" d="M34.68,2.12a.4.4,0,0,1,.38-.3h1.31l-.44,1.81h-.42l.12-.5.22-.89h-.76l0,0L35,2.72h1.13l-.1.41H34.86l-.12.5h-.42Z"/><path class="cls-17" d="M34.14,4.1a.4.4,0,0,1,.39-.3h1.38l-.1.41H34.6l0,0s0,0,0,0l-.21.87s0,0,0,0,0,0,0,0h.73a0,0,0,0,0,0,0l.06-.24H34.5l.09-.41h1.15c0,.06,0,.15-.06.27l-.09.34a1.34,1.34,0,0,1-.05.2.39.39,0,0,1-.38.3h-.89a.37.37,0,0,1-.3-.14.36.36,0,0,1-.08-.33Z"/></g></g></svg>