<svg xmlns="http://www.w3.org/2000/svg" viewBox="0 0 923.29 162.56"><defs><style>.cls-1{fill:#7635f3;}.cls-2{fill:#61ce70;}</style></defs><g id="Layer_2" data-name="Layer 2"><g id="Layer_1-2" data-name="Layer 1"><path class="cls-1" d="M294.1,44.2l-.73,8.32H278.32v61.14H260.85V52.52H245.27V44.2Z"/><path class="cls-1" d="M336.3,102.4a10.41,10.41,0,0,1-2.84,7.37,17.91,17.91,0,0,1-7.31,4.62,27.32,27.32,0,0,1-9.21,1.58q-12.63,0-19.1-7.68t-6.47-21.05q0-13.78,7-21.57t20.25-7.79q8.53,0,14.1,3.9t5.58,11.47q0,9.36-6.63,12.94t-18.1,3.58a38,38,0,0,1-5.58-.32c.21,5,1.18,8.91,2.9,11.79s4.61,4.31,8.68,4.31a16.19,16.19,0,0,0,8.26-2.15,14.38,14.38,0,0,0,5.74-6.16Q336.3,98.5,336.3,102.4ZM310.05,70.25A49.76,49.76,0,0,0,308,84.61h2.11q6.63.11,10-2.42t3.42-8.63a13,13,0,0,0-1.63-6.73,5.35,5.35,0,0,0-4.9-2.74C313.68,64.09,311.34,66.14,310.05,70.25Z"/><path class="cls-1" d="M360.4,86.4q0,8.85,2.42,14t9.16,5.15a12.25,12.25,0,0,0,7.52-2.31,13.38,13.38,0,0,0,4.58-6.52,5.25,5.25,0,0,1,2.73,2,5.75,5.75,0,0,1,.95,3.31,11.28,11.28,0,0,1-2.63,7.53,16.52,16.52,0,0,1-6.84,4.73,24.5,24.5,0,0,1-8.94,1.63q-12.63,0-19.1-7.68t-6.48-21.05q0-13.68,6.84-21.52t20-7.84q8,0,13.21,3T389,70.51a6.84,6.84,0,0,1-2.85,6,12.33,12.33,0,0,1-7.26,2,15.25,15.25,0,0,1-2.68-.26,5.53,5.53,0,0,1-2.16-.79,27,27,0,0,0,.63-4.95q0-8.31-5.68-8.31Q360.41,64.2,360.4,86.4Z"/><path class="cls-1" d="M413.33,50.52q0,10.73-1.05,15.26a15.23,15.23,0,0,1,6.37-6,19.78,19.78,0,0,1,8.89-1.95q9.15,0,13,4.9t3.89,14.89v25.46a16.33,16.33,0,0,0,.74,5.16,9.38,9.38,0,0,0,2.52,3.9,7.26,7.26,0,0,1-3.52,2.26,14.93,14.93,0,0,1-4.68.79q-5.48,0-8.32-2.79t-2.84-8.26V78.51a28.1,28.1,0,0,0-1.21-9.37c-.81-2.17-2.61-3.26-5.42-3.26A6.54,6.54,0,0,0,415,70.62a39.29,39.29,0,0,0-1.63,12.52v30.52h-16.1V40l16.1-1.68Z"/><path class="cls-1" d="M498.68,44.2l-.74,8.32H482.89v61.14H465.42V52.52H449.85V44.2Z"/><path class="cls-1" d="M521.09,71.2a56.7,56.7,0,0,0-1.05,12v30.41h-16.1V60l13.15-1.26.74,9.47a15.22,15.22,0,0,1,5.47-7.58,14.92,14.92,0,0,1,9-2.74c4,0,7.17,1.15,9.52,3.42s3.53,5.39,3.53,9.32q0,4.95-2.64,7.57c-1.75,1.76-4.24,2.63-7.47,2.63a14.15,14.15,0,0,1-2.73-.31,6.16,6.16,0,0,1-2.32-.84,18.19,18.19,0,0,0,.74-5.47q0-7.7-5-7.69C523.41,66.51,521.79,68.08,521.09,71.2Z"/><path class="cls-1" d="M592.65,102.4a10.45,10.45,0,0,1-2.84,7.37,18,18,0,0,1-7.32,4.62,27.26,27.26,0,0,1-9.2,1.58q-12.63,0-19.1-7.68t-6.48-21.05q0-13.78,7-21.57T575,57.88q8.52,0,14.1,3.9t5.58,11.47q0,9.36-6.63,12.94t-18.1,3.58a37.81,37.81,0,0,1-5.58-.32c.21,5,1.17,8.91,2.9,11.79s4.61,4.31,8.68,4.31a16.21,16.21,0,0,0,8.26-2.15,14.3,14.3,0,0,0,5.73-6.16Q592.66,98.5,592.65,102.4ZM566.39,70.25a49.78,49.78,0,0,0-2,14.36h2.11q6.63.11,10-2.42t3.41-8.63a12.91,12.91,0,0,0-1.63-6.73,5.33,5.33,0,0,0-4.89-2.74Q568.34,64.09,566.39,70.25Z"/><path class="cls-1" d="M602.86,60,616,58.73l.73,9.47q4-10.32,16.53-10.32,9.15,0,13,4.95t3.85,14.84v25.46a16.35,16.35,0,0,0,.73,5.16,9.41,9.41,0,0,0,2.53,3.9,7.34,7.34,0,0,1-3.53,2.26,14.88,14.88,0,0,1-4.68.79q-5.48,0-8.31-2.79c-1.9-1.86-2.84-4.61-2.84-8.26V78.51a29.3,29.3,0,0,0-1.16-9.42q-1.17-3.21-5.47-3.21c-3.44,0-5.71,1.58-6.79,4.74A39.29,39.29,0,0,0,619,83.14v30.52h-16.1Z"/><path class="cls-1" d="M709.35,108.29a9.41,9.41,0,0,0,2.53,3.9,7.27,7.27,0,0,1-3.42,2.26,14,14,0,0,1-4.58.79,12.11,12.11,0,0,1-6.52-1.64,8.09,8.09,0,0,1-3.58-4.68,12.39,12.39,0,0,1-5.74,5.32,19.72,19.72,0,0,1-8.36,1.73q-10.84,0-15.68-8.15t-4.84-21.21q0-13.58,6.52-21.15t19.57-7.58a26.91,26.91,0,0,1,7.27.85V40l16.1-1.68v64.82A16.35,16.35,0,0,0,709.35,108.29ZM684.94,64.2q-5.58,0-7.26,6A60.42,60.42,0,0,0,676,86.09,61.59,61.59,0,0,0,677.73,102q1.74,6.38,7.1,6.37a6.22,6.22,0,0,0,5.79-3.37,16.56,16.56,0,0,0,1.9-8.21V66.72A13,13,0,0,0,684.94,64.2Z"/><path class="cls-1" d="M736.34,65.25a5.58,5.58,0,0,0-1.63,4.21,8.51,8.51,0,0,0,2.95,6.63,46.31,46.31,0,0,0,9,5.79q4.73,2.63,7.57,4.57a18.12,18.12,0,0,1,4.84,5,12.64,12.64,0,0,1,2,7.21q0,8.73-6.31,13T738.4,116a34.26,34.26,0,0,1-14.1-2.63q-5.91-2.62-5.9-8.84a6.91,6.91,0,0,1,2.79-6,12.1,12.1,0,0,1,7.21-2c2.31,0,4,.36,5,1.06a18.32,18.32,0,0,0-.64,4.94,8.56,8.56,0,0,0,1.69,5.63,6,6,0,0,0,4.94,2.06,6.66,6.66,0,0,0,5.16-2,7.74,7.74,0,0,0,1.79-5.42,8.48,8.48,0,0,0-2.95-6.63,47.16,47.16,0,0,0-8.84-5.79,79.65,79.65,0,0,1-7.63-4.52A18.15,18.15,0,0,1,722,80.82a13,13,0,0,1-2-7.26q0-7.89,6.31-11.78t15.58-3.9a32.7,32.7,0,0,1,13.36,2.53c3.79,1.68,5.69,4.46,5.69,8.31a6.72,6.72,0,0,1-2.9,5.84,12.14,12.14,0,0,1-7.21,2.06,18.39,18.39,0,0,1-2.68-.21,5,5,0,0,1-2.16-.74,22.66,22.66,0,0,0,.64-5,7.84,7.84,0,0,0-1.53-5.05,5.27,5.27,0,0,0-4.37-1.9A6,6,0,0,0,736.34,65.25Z"/><path class="cls-2" d="M815.85,79.4q-5.69,5.75-15,5.74a14.93,14.93,0,0,1-7.15-1.53,5.13,5.13,0,0,1-2.84-4.89q6.95,0,10-3.42t3.11-10.68q0-13.26-11.16-13.26a30.19,30.19,0,0,0-5.47.53v61.77H770V44.94q13.59-1.26,23.37-1.26,13.15,0,20.67,4.68t7.53,15.94Q821.53,73.68,815.85,79.4Z"/><path class="cls-2" d="M845.84,71.2a56.7,56.7,0,0,0-1.05,12v30.41H828.68V60l13.16-1.26.73,9.47a15.23,15.23,0,0,1,5.48-7.58A14.87,14.87,0,0,1,857,57.88c4,0,7.17,1.15,9.53,3.42S870,66.69,870,70.62q0,4.95-2.63,7.57c-1.75,1.76-4.24,2.63-7.47,2.63a14.16,14.16,0,0,1-2.74-.31,6.17,6.17,0,0,1-2.31-.84,18.21,18.21,0,0,0,.73-5.47q0-7.7-4.94-7.69C848.15,66.51,846.54,68.08,845.84,71.2Z"/><path class="cls-2" d="M916.92,65.36q6.38,7.47,6.37,20.73,0,13.68-6.42,21.78T897.93,116q-12.42,0-18.94-7.78t-6.53-21q0-13.47,6.47-21.36t19-7.9Q910.56,57.88,916.92,65.36ZM905,103.24a71.8,71.8,0,0,0,1.58-16.63,64.16,64.16,0,0,0-1.68-16q-1.7-6.37-7-6.37T891,70.62a64.33,64.33,0,0,0-1.68,16,71.8,71.8,0,0,0,1.58,16.63q1.57,6.42,7,6.42T905,103.24Z"/><rect class="cls-1" y="0.14" width="120.81" height="22.46"/><rect class="cls-1" x="32.83" y="29.44" width="147.59" height="20.81"/><rect class="cls-1" x="36.75" y="84.04" width="74.53" height="24.62" transform="translate(170.36 22.34) rotate(90)"/><rect class="cls-1" x="42.53" y="84.28" width="131.93" height="24.62" transform="translate(205.09 -11.9) rotate(90)"/><path class="cls-2" d="M224.76,40.67c-.5-18.07-8-31.18-25.8-36.42C176-2.52,151.6,1.05,128.2.18v23c1.48-.05,4.13-.27,5.15-.27l36.45.28c12.93.09,30.78,2.33,28.35,20-1.34,9.75-9.44,14.3-18.38,15.57-4.43.62-50.53.57-51.57.78v74.09h25.56V81.55c7.88,0,17.51-.12,24.11-.34,8.32-.28,13.65-.91,21.25-3.68C218.16,70.68,225.29,60.4,224.76,40.67Z"/></g></g></svg>