<?xml version="1.0" encoding="utf-8"?>
<!-- Generator: Adobe Illustrator 24.0.2, SVG Export Plug-In . SVG Version: 6.00 Build 0)  -->
<svg version="1.1" id="Layer_1" xmlns="http://www.w3.org/2000/svg" xmlns:xlink="http://www.w3.org/1999/xlink" x="0px" y="0px"
	 viewBox="0 0 152 25.2" style="enable-background:new 0 0 152 25.2;" xml:space="preserve">
<style type="text/css">
	.st0{fill:#FF8B6F;}
	.st1{fill:#4EBE9E;}
</style>
<title>The pets magazin</title>
<g id="Layer_2_1_">
	<g id="Layer_1-2">
		<path class="st0" d="M6.9,10.8H3.2v8.6H0V0.1h6.9c3,0,5.4,2.4,5.4,5.4c0,0,0,0,0,0.1c0.1,2.8-2.1,5.2-4.9,5.3
			C7.2,10.8,7.1,10.8,6.9,10.8z M9.1,5.6C9.2,4.3,8.2,3.1,6.9,3H3.2v4.8h3.7C8.1,7.8,9.1,6.8,9.1,5.6C9.1,5.6,9.1,5.6,9.1,5.6z"/>
		<path class="st0" d="M14.3,18.1c-1.3-1.7-2-3.7-2-5.9c-0.1-1.6,0.4-3.2,1.3-4.5c1.2-1.5,2.9-2.4,4.8-2.4c1.1,0,2.3,0.3,3.2,1
			c1.5,1.2,2.2,3.3,1.5,5.1c-0.9,2.2-3.6,3-5.5,3c-0.7,0-1.4-0.1-2.1-0.2c0.2,1.1,1,2.1,2.1,2.5c1.5,0.5,3.2,0.2,4.4-0.8l1.9,1.6
			c-1.4,1.4-3.3,2.2-5.3,2.3C17,19.9,15.4,19.3,14.3,18.1z M15.5,11.6c0.5,0.1,1.1,0.1,1.6,0.1c1.1,0,3.4-0.4,3.2-2
			c-0.1-1-0.9-1.7-1.9-1.6C17.5,8.2,15.7,9.1,15.5,11.6z"/>
		<path class="st0" d="M25.3,5.8h2.1V1.5h3.1v4.3h3.3v2.9h-3.3V17c0.4,0.1,0.7,0.1,1.1,0.1c0.8,0,1.6-0.1,2.3-0.3l1,2.1
			c-1.3,0.6-2.7,0.9-4.2,0.9c-1.1,0-2.3-0.2-3.3-0.6V8.7h-2.1V5.8z"/>
		<path class="st0" d="M36.3,17.6l1-2.1c1.3,0.9,2.9,1.4,4.5,1.6c1.1,0,2.6-0.3,2.6-1.6c0-1.1-1.3-1.5-3-1.8c-2.3-0.4-4.5-1-4.6-3.7
			s2.5-4.6,5.1-4.6c2,0,3.9,0.8,5.2,2.3l-1.1,2.3c0,0-2.5-1.6-4.3-1.6c-0.9,0-1.9,0.3-1.9,1.3c0,0.7,1,1,1.8,1.1
			c3.6,0.8,5.8,1.5,5.8,4.5s-2.5,4.6-5.3,4.6C40,19.9,37.9,19.1,36.3,17.6z"/>
		<path class="st1" d="M68.5,19.4H66V5l-5.2,10h-1.6L54,5v14.4h-2.5V0H54l6,11.4L66.1,0h2.5V19.4z"/>
		<path class="st1" d="M74.8,19.9c-1.2,0-2.5-0.4-3.4-1.2c-1.1-1-1.7-2.4-1.6-3.9c-0.1-1.5,0.5-3,1.7-4c1-0.7,2.3-1,3.5-1
			c1.1,0,2.2,0.3,3.3,0.7l0.5,0.2V9.9c0-1.1-0.3-2.5-3-2.5c-0.9,0-1.8,0.2-2.6,0.4c-0.4,0.1-0.8,0.3-1.2,0.4l-0.6,0.2l-0.8-2.1
			l0.6-0.2c0.5-0.2,1.1-0.5,1.7-0.6c1-0.4,2.1-0.6,3.2-0.7c1.2,0,2.4,0.3,3.4,1c1.2,1,1.9,2.4,1.9,4v9.5h-2.3L79,18l-0.4,0.4
			C77.6,19.3,76.2,19.8,74.8,19.9z M74.9,12.2c-1.8,0-2.5,0.8-2.5,2.7s0.8,2.7,2.5,2.7c1.2,0,3.5-0.9,4-4.4
			C77.6,12.6,76.3,12.3,74.9,12.2z"/>
		<g>
			<path class="st1" d="M88.5,16c0.2-0.1,0.4-0.1,0.6,0c0.4,0.3,1,0.2,1.3-0.3c-0.7,0.3-1.2,0.2-1.3-0.3c0.2-0.3,0.5-0.5,0.7-0.8
				c0.2-0.4,0-0.6-0.4-0.6c-0.3,0-0.7,0-1,0c-0.4,0.1-0.6,0.3-0.4,0.6c0.2,0.3,0.4,0.6,0.7,0.9c-0.2,0.5-0.6,0.6-1.4,0.2
				C87.4,16.1,88,16.2,88.5,16z"/>
			<path class="st1" d="M92.5,5.4L92.4,6c-1.2-0.7-2.6-1.1-4-1.1c-5.7,0-5.7,5.6-5.7,7.5c0,4.5,1.6,7,4.7,7.5
				c0.8-0.7,1.2-1.8-0.1-2.6L87,17c-1.1-0.4-1.7-1.5-1.4-2.6c0-0.3,0.1-0.6,0.1-0.9s0.1-0.6-0.2-0.7c-0.1,0-0.4,0.3-0.5,0.5
				c-0.2,0.4-0.3,0.9-0.5,1.3c-0.1,0.2-0.2,0.3-0.4,0.4c-0.1-0.1-0.2-0.3-0.3-0.4c-0.3-1-0.2-2.1,0.3-3c0.3-0.7,1.1-1,1.8-0.9
				c0.3,0.1,0.6,0.2,0.8,0.3c0.2,0,0.4,0.1,0.6,0.1c1-0.2,2-0.2,3-0.1c0.3,0.1,0.7,0.1,1-0.1c0.8-0.5,2-0.2,2.5,0.6
				c0.1,0.2,0.2,0.4,0.2,0.6c0.2,0.7,0.3,1.4,0.1,2.2c-0.1,0.3-0.1,0.7-0.4,0.7c-0.2,0-0.4-0.3-0.5-0.6c-0.2-0.4-0.3-0.9-0.5-1.3
				c0-0.2-0.3-0.2-0.4-0.4c-0.1,0.2-0.2,0.3-0.2,0.5c0,0.6,0,1.2,0.1,1.8c0.1,0.7-0.3,1.4-1,1.6c-0.4,0.2-0.8,0.5-1.2,0.8
				c-0.3,0.2-0.5,0.5-0.5,0.9c0.1,0.5,0.3,1,0.6,1.3c0.7-0.1,1.5-0.3,2.2-0.6v1c-0.1,1.8-0.9,2.5-3,2.5c-0.9,0-1.8-0.1-2.7-0.3
				c-0.3-0.1-0.7-0.2-1-0.3l-0.6-0.3l-0.7,1.9l0.4,0.3c0.4,0.3,0.9,0.5,1.4,0.7c1.2,0.4,2.4,0.6,3.6,0.6c2.7,0.2,5.1-1.9,5.3-4.6
				c0-0.1,0-0.3,0-0.4V5.4H92.5z"/>
			<path class="st1" d="M91,13.3c0-0.2-0.2-0.5-0.4-0.5c0,0,0,0-0.1,0c-0.3,0-0.4,0.2-0.4,0.5c0,0.2,0.2,0.4,0.4,0.5c0,0,0,0,0.1,0
				C90.8,13.7,91,13.5,91,13.3z"/>
			<path class="st1" d="M87,12.8c-0.3,0-0.4,0.2-0.4,0.5c0,0.2,0.2,0.4,0.5,0.4c0.2,0,0.4-0.2,0.4-0.5C87.5,13,87.3,12.8,87,12.8
				C87.1,12.8,87,12.8,87,12.8z"/>
		</g>
		<path class="st1" d="M101.9,19.9c-1.2,0-2.5-0.4-3.4-1.2c-1.1-1-1.7-2.4-1.6-3.9c-0.1-1.5,0.5-3,1.7-4c1-0.7,2.3-1,3.5-0.9
			c1.1,0,2.2,0.3,3.3,0.7l0.5,0.2V9.9c0-1.1-0.3-2.5-3-2.5c-0.9,0-1.8,0.2-2.6,0.4c-0.4,0.1-0.8,0.3-1.2,0.4l-0.6,0.2l-0.8-2.1
			l0.6-0.2c0.6-0.2,1.1-0.5,1.7-0.6c1-0.4,2.1-0.6,3.2-0.7c1.2,0,2.4,0.3,3.4,1c1.2,1,1.9,2.4,1.9,4v9.5h-2.3l-0.2-1.4l-0.4,0.4
			C104.6,19.3,103.3,19.8,101.9,19.9z M101.9,12.2c-1.8,0-2.5,0.8-2.5,2.7s0.8,2.7,2.5,2.7c1.2,0,3.5-0.9,4-4.4
			C104.7,12.6,103.3,12.3,101.9,12.2L101.9,12.2z"/>
		<polygon class="st1" points="119.2,19.4 109.3,19.4 115.8,7.7 109.9,7.7 109.9,5.4 119.9,5.4 113.4,17.1 119.2,17.1 		"/>
		<path class="st1" d="M124.6,19.4H122v-14h2.6L124.6,19.4z M124.6,2.5H122V0h2.6L124.6,2.5z"/>
		<path class="st1" d="M138.4,19.4h-2.6V9.1c0.1-0.5-0.1-1-0.4-1.4c-0.4-0.2-0.9-0.3-1.4-0.2c-1.5,0.4-3,1-4.3,1.9v10h-2.6v-14h2.3
			l0.1,1.3c1.4-1.2,3.1-1.8,4.9-1.8c2.4,0,3.8,1.6,3.9,4.3L138.4,19.4z"/>
		<path class="st1" d="M146.9,19.9c-3.9,0-6.5-3.2-6.5-7.9c0-3.4,2.2-7.1,6.3-7.1c1.5,0,3,0.6,4,1.7c0.8,0.8,1.1,1.9,1,3
			c-0.1,1.5-0.9,2.8-2.1,3.5c-2,1.1-4.4,1.3-6.6,0.6c0.3,1.6,1.2,4,3.9,4c0.7,0,1.4-0.2,2.1-0.6c0.3-0.1,0.6-0.4,0.9-0.6l0.4-0.4
			l1.6,1.6l-0.6,0.4C150.2,19.3,148.6,19.9,146.9,19.9z M143,11.3c0.2,0.1,0.5,0.2,0.7,0.2l0,0c0.8,0.2,1.7,0.3,2.6,0.1
			c2.3-0.4,2.9-1.7,2.9-2.6c-0.2-1.2-1.3-2-2.5-1.9C145.5,7.1,143.2,8.1,143,11.3z"/>
	</g>
</g>
<g>
	<path class="st1" d="M-87.5,13.7c0.1,0,0.2,0,0.2,0c0.2,0.1,0.4,0.1,0.5-0.1c-0.3,0.1-0.5,0.1-0.6-0.1c0.1-0.1,0.2-0.2,0.3-0.3
		c0.1-0.1,0-0.2-0.2-0.3c-0.1,0-0.3,0-0.4,0c-0.2,0-0.2,0.1-0.2,0.3c0.1,0.1,0.2,0.2,0.3,0.4c-0.1,0.2-0.2,0.2-0.6,0.1
		C-87.9,13.7-87.7,13.8-87.5,13.7z"/>
	<path class="st1" d="M-85.8,9.2l0,0.2C-86.3,9.1-86.9,9-87.5,9c-2.4,0-2.4,2.4-2.4,3.2c0,1.9,0.7,3,2,3.1c0.3-0.3,0.5-0.8,0-1.1
		l-0.1-0.1c-0.5-0.2-0.7-0.6-0.6-1.1c0-0.1,0-0.3,0-0.4c0-0.1,0-0.3-0.1-0.3c-0.1,0-0.2,0.1-0.2,0.2c-0.1,0.2-0.1,0.4-0.2,0.5
		c0,0.1-0.1,0.1-0.2,0.2c-0.1-0.1-0.1-0.1-0.1-0.2c-0.1-0.4-0.1-0.9,0.1-1.3c0.1-0.3,0.5-0.4,0.8-0.4c0.1,0,0.2,0.1,0.4,0.1
		c0.1,0,0.2,0,0.2,0c0.4-0.1,0.8-0.1,1.3,0c0.1,0,0.3,0,0.4,0c0.4-0.2,0.8-0.1,1,0.3c0,0.1,0.1,0.2,0.1,0.2c0.1,0.3,0.1,0.6,0.1,0.9
		c0,0.1,0,0.3-0.2,0.3c-0.1,0-0.2-0.1-0.2-0.2c-0.1-0.2-0.1-0.4-0.2-0.5c0-0.1-0.1-0.1-0.2-0.2c0,0.1-0.1,0.1-0.1,0.2
		c0,0.3,0,0.5,0,0.8c0,0.3-0.1,0.6-0.4,0.7c-0.2,0.1-0.3,0.2-0.5,0.3c-0.1,0.1-0.2,0.2-0.2,0.4c0,0.2,0.1,0.4,0.3,0.6
		c0.3-0.1,0.6-0.1,0.9-0.3v0.4c0,0.8-0.4,1.1-1.3,1.1c-0.4,0-0.8,0-1.2-0.1c-0.1,0-0.3-0.1-0.4-0.1l-0.3-0.1l-0.3,0.8l0.2,0.1
		c0.2,0.1,0.4,0.2,0.6,0.3c0.5,0.2,1,0.3,1.5,0.3c1.1,0.1,2.1-0.8,2.2-1.9c0-0.1,0-0.1,0-0.2V9.2H-85.8z"/>
	<path class="st1" d="M-86.4,12.5c0-0.1-0.1-0.2-0.2-0.2c0,0,0,0,0,0c-0.1,0-0.2,0.1-0.2,0.2c0,0.1,0.1,0.2,0.2,0.2c0,0,0,0,0,0
		C-86.5,12.7-86.4,12.6-86.4,12.5z"/>
	<path class="st1" d="M-88.1,12.3c-0.1,0-0.2,0.1-0.2,0.2c0,0.1,0.1,0.2,0.2,0.2c0.1,0,0.2-0.1,0.2-0.2
		C-87.9,12.4-88,12.3-88.1,12.3C-88.1,12.3-88.1,12.3-88.1,12.3z"/>
</g>
</svg>
