<?xml version="1.0" encoding="utf-8"?>
<!-- Generator: Adobe Illustrator 23.0.2, SVG Export Plug-In . SVG Version: 6.00 Build 0)  -->
<svg version="1.1" id="viacon" xmlns="http://www.w3.org/2000/svg" xmlns:xlink="http://www.w3.org/1999/xlink" x="0px" y="0px"
	 viewBox="0 0 439.8 92.4" style="enable-background:new 0 0 439.8 92.4;" xml:space="preserve">
<style type="text/css">
	.st0{fill:#00A14B;}
</style>
<path d="M438.7,22.3c0.6,0,1.1,0.5,1.1,1.1l0,0c0,4.9,0,23.9-0.1,32.3c0,4-1,7.6-4,10.5c-1.6,1.5-3.5,2.5-5.6,3.1
	c-3.1,0.9-6.4,1.2-9.7,0.8c-4.3-0.6-7.3-3.1-9.6-6.5l-9.6-14.5c-2.4-3.6-4.8-7.2-7.2-10.8c-0.8-1.3-2.1-2.1-3.6-2.2
	c-0.8-0.1-1.6,0.4-1.8,1.3c0,0.1,0,0.2,0,0.3c0,0.4,0,0.8,0,1.2c0,10,0,20,0,30V70c-0.5,0-0.8,0-1.1,0c-3.8,0-7.6,0-11.5,0
	c-0.8,0-1.1-0.2-1.1-1c0-10.7,0-21.4,0.1-32.1c0-1.9,0.3-3.7,0.9-5.5c1.6-5.2,5.5-7.7,10.6-8.7c2.8-0.6,5.6-0.7,8.4-0.2
	c3.7,0.8,7,3.1,8.9,6.3c5.6,8.4,11.1,16.7,16.7,25c0.7,0.9,1.6,1.7,2.6,2.2c1.7,0.8,3-0.1,3-1.9v-26c0-1.7,0-3.4,0-5.1
	c0-0.3,0.4-0.8,0.5-0.8C429.2,22.3,435.3,22.3,438.7,22.3z"/>
<path d="M339.7,22.4c4.1,0,8.2,0,12.3,0c3.2,0,6.4,0.6,9.4,1.9c5.3,2.2,8.1,6.3,8.8,11.9c0.2,1.4,0.2,2.8,0.2,4.2c0,5.3,0,10.7,0,16
	c0,6-2.8,10-8.5,12c-3.5,1.2-7.1,1.7-10.8,1.7c-7.5,0.1-15.1,0.1-22.6,0c-3.8,0.1-7.5-0.6-11-2.1c-4.8-1.9-8-6.5-8.3-11.6
	c-0.4-5.3-0.2-10.6-0.3-15.9c0-1.3,0-2.6,0.2-3.9c1-7.4,4.9-11.8,12.2-13.3c2.6-0.5,5.2-0.8,7.8-0.9
	C332.7,22.2,336.1,22.3,339.7,22.4L339.7,22.4z M339.7,32.6L339.7,32.6c-3.8,0-7.6-0.1-11.5,0c-2.7-0.1-5,1.8-5.4,4.4
	c-0.2,0.7-0.2,1.4-0.2,2.2c0,4.6,0,9.3,0,13.9c0,4.3,2.2,6.7,6.5,6.8c7.1,0.1,14.1,0.1,21.2,0c4.3-0.1,6.5-2.4,6.5-6.7
	c0-4.7,0-9.3,0-14c0-4.3-2.3-6.6-6.7-6.6H339.7z"/>
<path d="M303.5,22.4v10.2h-34c-0.7,0-1.4,0-2.1,0.1c-3.1,0.6-4.8,2.6-4.9,6.1c-0.1,4.9-0.1,9.8,0,14.7c0.1,4.2,2.5,6.3,6.8,6.4
	c3.4,0,6.7,0,10.1,0h24.1c0,0.3,0.1,0.6,0.1,0.9c0,2.8,0,5.5,0,8.3c0,0.7-0.1,1-0.9,1c-11.5,0-23,0-34.5,0
	c-3.7,0.1-7.3-0.7-10.7-2.1c-4.8-2-8.1-6.6-8.3-11.8c-0.4-4.9-0.3-9.9-0.2-14.8c-0.1-2.3,0.1-4.7,0.5-7c1.2-6,5.2-9.5,10.9-11
	c2.8-0.8,5.7-1.1,8.6-1.1h33.4C302.7,22.3,303.1,22.4,303.5,22.4z"/>
<path d="M184.4,70c0.1-0.3,0.3-0.6,0.4-0.9c6.7-13.4,13.4-26.8,20.1-40.2c1.7-3.3,4.1-5.9,8-6.4c2.8-0.3,5.6-0.2,8.3,0.1
	c2.8,0.4,4.9,2.3,6.4,4.7c0.6,0.9,1.1,1.8,1.5,2.8c6.5,12.9,13,25.9,19.4,38.8c0.2,0.3,0.3,0.7,0.5,1.1c-0.4,0-0.7,0.1-1,0.1
	c-4.4,0-8.9,0-13.3,0c-0.6,0.1-1.2-0.3-1.4-0.8c-1.4-2.9-2.9-5.7-4.3-8.6c-0.2-0.6-0.8-0.9-1.4-0.9c-7.3,0-14.7,0-22,0
	c-0.6-0.1-1.1,0.3-1.3,0.8c-1.4,2.9-2.9,5.8-4.3,8.6c-0.2,0.4-0.6,0.7-1,0.7c-4.8,0-9.5,0-14.3,0C184.6,70,184.5,70,184.4,70z
	 M209.9,49.6h13.6L216.7,36L209.9,49.6z"/>
<path d="M165,22.4c0.3,0,0.6-0.1,0.8-0.1c3.9,0,7.8,0,11.8,0c0.8,0,1,0.2,1,1c0,15.3,0,30.5,0,45.8c0,0.3,0,0.6-0.1,0.9H165V22.4z"
	/>
<path d="M95.3,22.3h2.2c4,0,8,0,12,0c0.7-0.1,1.4,0.3,1.7,1c5.3,10.6,10.6,21.2,15.9,31.9l0.7,1.2c0.2-0.5,0.4-0.8,0.6-1.1
	c5.3-10.7,10.7-21.3,16-32c0.3-0.7,0.9-1.1,1.6-1c4.3,0,8.6,0,12.9,0h1.2c-0.2,0.4-0.3,0.8-0.5,1.1C153,36.7,146.4,50,139.7,63.3
	c-1.6,3.3-4,6-7.8,6.5c-2.8,0.4-5.6,0.4-8.3,0c-3.5-0.4-5.8-2.8-7.4-5.8c-2-3.8-3.8-7.6-5.7-11.4c-4.9-9.8-9.8-19.5-14.6-29.1
	C95.8,23.2,95.6,22.8,95.3,22.3z"/>
<path class="st0" d="M46.2,0C31.4,0,17.5,7.1,8.8,19.1c0.9,0,1.8,0,2.7,0.1c3.4,0.1,6.7,0.9,9.7,2.4c2,1,3.8,2.4,5.3,4.1
	c2.3,2.6,4.2,5.6,5.6,8.7c0.8,1.7,1.6,3.4,2.3,5.1s1.5,3.5,2.1,5.2c1,2.5,2,5.1,3,7.6c0.7,1.8,1.3,3.6,2,5.4
	c0.8,2.1,1.6,4.1,2.4,6.2l1.8,4.7c0.1,0.4,0.3,0.7,0.7,0.9c0.4,0.1,0.9-0.1,1.1-0.6c0.4-1.1,1-2.2,1.7-3.1c1-1.8,2.1-3.6,3.1-5.4
	c1.3-2.3,2.7-4.6,4-6.9s2.7-4.8,4-7.2c1.5-2.7,2.9-5.4,4.2-8.2c0.9-1.9,1.7-3.8,2.4-5.8c0.4-1.2,0.8-2.5,1-3.8
	c0.3-1.3,0.3-2.7,0.1-4c-0.2-1-0.6-2-1.3-2.8c-1-1.2-2.4-2-3.8-2.5c-1.1-0.4-2.3-0.7-3.5-0.9c-0.2,0-0.3-0.1-0.4-0.2
	c0.3-0.1,0.7-0.2,1-0.1l4-0.4c1.5-0.1,3-0.2,4.6-0.2c1.2-0.1,2.5,0,3.7,0.2c0.6,0.1,1.2,0.1,1.8,0.2c2.6,0.3,5,1.2,7,2.8
	c1.1,1,2,2.3,2.3,3.8c0.5,2.2,0.5,4.5,0.1,6.7c-0.3,2-4.6,14-5.3,15.7c-0.6,1.3-1.2,2.5-1.8,3.8c-0.9,1.7-1.8,3.5-2.7,5.2
	c-1.1,2.1-2.3,4.2-3.5,6.3c-1,1.7-1.9,3.4-2.9,5c-1.5,2.7-3.1,5.3-4.7,8c-1.3,2.2-2.9,4.2-4.7,6c-1.8,2-4.1,3.5-6.5,4.5
	c-2.1,0.9-4.3,1.2-6.5,0.8c-2.6-0.4-5.1-1.4-7.1-3c-1.4-1.2-2.6-2.7-3.6-4.3c-1.1-1.9-2.1-3.8-3-5.8c-0.9-1.9-1.6-3.8-2.4-5.8
	c-0.8-2.1-1.6-4.3-2.3-6.4c-0.6-1.7-1.2-3.5-1.8-5.2c-0.5-1.3-0.9-2.5-1.4-3.8c-0.6-1.5-1.2-2.9-1.8-4.3c-0.8-1.9-1.6-3.8-2.5-5.7
	c-1.3-2.9-2.7-5.6-4.3-8.3c-1.6-2.8-3.6-5.3-5.9-7.5c-0.3-0.3-0.6-0.5-0.9-0.8l0,0l0,0c-0.4-0.3-0.8-0.6-1.2-0.8h0
	c-0.3-0.2-0.6-0.4-0.9-0.5c-0.2,0.4-0.5,0.9-0.7,1.3c0.6,0.3,1.2,0.7,1.7,1.1c2.6,2.2,4.9,4.7,6.7,7.6c1.4,2.1,2.6,4.4,3.7,6.7
	c0.8,1.7,1.5,3.4,2.1,5.2c0.1,0.1,0.1,0.3,0.1,0.4c-0.3,0-0.4-0.3-0.5-0.4c-1.7-2.2-3.6-4.2-5.6-6.2c-2.9-3-6.3-5.5-9.9-7.5l-1-0.6
	c-8.1,24,5,50.2,29.2,58.2S82,85,90,60.8S85,10.4,60.8,2.4C56.1,0.8,51.2,0,46.2,0z M62.2,19.8c2.2,0.7,4,2.4,4.7,4.6
	c0.3,1.1,0.4,2.3,0.2,3.4c-0.4,2.1-1,4.2-1.8,6.1c-0.3,0.6-0.6,1.2-0.8,1.9c-0.1,0.1-0.1,0.3-0.3,0.3s-0.1-0.2-0.1-0.3
	c-0.2-2-0.7-4-1.6-5.9c-0.7-1.7-2.2-3-3.9-3.6c-0.8-0.2-1.5-0.3-2.3-0.3c-2.4,0.2-4.7,1-6.7,2.4c-2.8,1.8-5.3,4-7.5,6.6
	c-0.1,0.1-0.2,0.3-0.5,0.3c0.8-1.2,1.5-2.4,2.2-3.6c1.8-3,3.9-5.7,6.4-8.2c1.4-1.5,3.1-2.7,5-3.7c0.9-0.4,1.9-0.7,2.9-0.7
	C59.4,19.2,60.8,19.4,62.2,19.8z"/>
</svg>
