<svg xmlns="http://www.w3.org/2000/svg" viewBox="0 0 222.65 57.71"><defs><style>.cls-1{fill:#8bc54c;}.cls-2{fill:#231f20;}.cls-3{fill:#1064a2;}.cls-4{fill:#fecf07;}.cls-5{fill:#fff;}.cls-6{fill:#005484;}.cls-7{fill:#025383;}</style></defs><title>wpbloggertips</title><g id="Layer_2" data-name="Layer 2"><g id="Layer_1-2" data-name="Layer 1"><path class="cls-1" d="M33.8,25.18l-6.56,25h-7.7L16.47,35l-3,15.22H5.81L0,25.18H6.41L10.74,46.5,15,25.18h5.16L24.43,46.5l4.25-21.32Z"/><path class="cls-1" d="M52.05,37.87a7.23,7.23,0,0,1-5.38,2.07,5.43,5.43,0,0,1-2.59-.56,1.85,1.85,0,0,1-1-1.76,4.67,4.67,0,0,0,3.62-1.23,5.59,5.59,0,0,0,1.12-3.85q0-4.78-4-4.78a10.5,10.5,0,0,0-2,.19V50.22h-6.3V25.44Q40.4,25,43.93,25a14.14,14.14,0,0,1,7.46,1.68q2.72,1.7,2.71,5.75A7.4,7.4,0,0,1,52.05,37.87Z"/><path class="cls-2" d="M74.88,33.47A6.45,6.45,0,0,1,72.1,35.6a7.35,7.35,0,0,1,4.31,2.32,6.79,6.79,0,0,1,1.53,4.57,6.45,6.45,0,0,1-1.56,4.44,9.24,9.24,0,0,1-4.11,2.59,17.45,17.45,0,0,1-5.52.84,68.32,68.32,0,0,1-8.44-.55V24.64c3.3-.28,6.17-.43,8.6-.43a14,14,0,0,1,6.64,1.32Q76,26.85,76,30.29A5.11,5.11,0,0,1,74.88,33.47Zm-8.63,1.59c2.68,0,4-1.46,4-4.38q0-3.64-3.53-3.64a11.76,11.76,0,0,0-2,.19v7.71A8.48,8.48,0,0,0,66.25,35.06Zm.58,12.51a4.48,4.48,0,0,0,3.46-1.28,5.22,5.22,0,0,0,1.19-3.68,4.9,4.9,0,0,0-1.3-3.8,6,6,0,0,0-4.05-1.16c-.41,0-.88,0-1.39.08v9.61A9.84,9.84,0,0,0,66.83,47.57Z"/><path class="cls-2" d="M86.85,22.24V46.1A6,6,0,0,0,87.12,48a3.44,3.44,0,0,0,.93,1.44,2.64,2.64,0,0,1-1.3.83,5.49,5.49,0,0,1-1.72.29,4.18,4.18,0,0,1-3.06-1,4,4,0,0,1-1-3V22.86Z"/><path class="cls-2" d="M122.91,54.33a6.48,6.48,0,0,0,.91-2.83c.11-1.12.17-2.63.17-4.51v-1.2a4.65,4.65,0,0,1-2.15,1.58,8.1,8.1,0,0,1-2.92.51,6.38,6.38,0,0,1-5.54-2.46,11.1,11.1,0,0,1-1.78-6.64c0-3,.79-5.34,2.36-6.94s3.86-2.4,6.86-2.4a11.38,11.38,0,0,1,4.29.78l4.54-.62V46.06a21.34,21.34,0,0,1-.82,6.48A6.91,6.91,0,0,1,126,56.4a10.5,10.5,0,0,1-5.7,1.31,11.52,11.52,0,0,1-5.22-1.14,3.67,3.67,0,0,1-2.29-3.46,2.52,2.52,0,0,1,1-2.21,4.44,4.44,0,0,1,2.65-.74,3,3,0,0,1,1.82.39,9.39,9.39,0,0,0-.23,1.82,3.7,3.7,0,0,0,.62,2.27,2.26,2.26,0,0,0,1.93.83A2.57,2.57,0,0,0,122.91,54.33Zm-2-22.56a2.47,2.47,0,0,0-2.55,1.89,15.88,15.88,0,0,0-.62,4.88,15,15,0,0,0,.62,4.73,2.45,2.45,0,0,0,2.51,1.86A2.26,2.26,0,0,0,123,43.87a6.43,6.43,0,0,0,.68-3.12V32.66A4.62,4.62,0,0,0,120.93,31.77Z"/><path class="cls-2" d="M144.52,54.33a6.48,6.48,0,0,0,.91-2.83A45,45,0,0,0,145.6,47v-1.2a4.65,4.65,0,0,1-2.15,1.58,8.1,8.1,0,0,1-2.92.51A6.39,6.39,0,0,1,135,45.42a11.1,11.1,0,0,1-1.78-6.64c0-3,.79-5.34,2.36-6.94s3.86-2.4,6.86-2.4a11.43,11.43,0,0,1,4.3.78l4.53-.62V46.06a21.34,21.34,0,0,1-.82,6.48,6.91,6.91,0,0,1-2.86,3.86,10.49,10.49,0,0,1-5.69,1.31,11.53,11.53,0,0,1-5.23-1.14,3.67,3.67,0,0,1-2.29-3.46,2.52,2.52,0,0,1,1-2.21,4.44,4.44,0,0,1,2.65-.74,3,3,0,0,1,1.82.39,10.25,10.25,0,0,0-.23,1.82,3.77,3.77,0,0,0,.62,2.27,2.26,2.26,0,0,0,1.93.83A2.57,2.57,0,0,0,144.52,54.33Zm-2-22.56A2.47,2.47,0,0,0,140,33.66a15.88,15.88,0,0,0-.62,4.88,15,15,0,0,0,.62,4.73,2.45,2.45,0,0,0,2.51,1.86,2.26,2.26,0,0,0,2.15-1.26,6.43,6.43,0,0,0,.68-3.12V32.66A4.6,4.6,0,0,0,142.54,31.77Z"/><path class="cls-2" d="M171.28,45.83a3.84,3.84,0,0,1-1.05,2.71,6.64,6.64,0,0,1-2.69,1.7,10,10,0,0,1-3.39.58c-3.09,0-5.44-.94-7-2.83a11.66,11.66,0,0,1-2.38-7.74q0-5.07,2.58-7.94t7.45-2.87A8.88,8.88,0,0,1,170,30.87,4.84,4.84,0,0,1,172,35.1c0,2.29-.82,3.88-2.44,4.76a14.12,14.12,0,0,1-6.67,1.32,13.53,13.53,0,0,1-2-.12,9.19,9.19,0,0,0,1.07,4.34A3.41,3.41,0,0,0,165.12,47a6,6,0,0,0,3-.8,5.24,5.24,0,0,0,2.11-2.26A1.88,1.88,0,0,1,171.28,45.83ZM161.62,34a18.46,18.46,0,0,0-.76,5.29h.78a6,6,0,0,0,3.69-.89,3.7,3.7,0,0,0,1.26-3.18,4.77,4.77,0,0,0-.6-2.48,2,2,0,0,0-1.8-1C163,31.73,162.1,32.48,161.62,34Z"/><path class="cls-2" d="M181.35,34.34a20.73,20.73,0,0,0-.39,4.44V50H175V30.22l4.84-.47.27,3.49a5.56,5.56,0,0,1,2-2.79,5.5,5.5,0,0,1,3.3-1A4.8,4.8,0,0,1,189,30.7a4.54,4.54,0,0,1,1.3,3.43,3.77,3.77,0,0,1-1,2.79,3.73,3.73,0,0,1-2.75,1,5.16,5.16,0,0,1-1-.12,2.34,2.34,0,0,1-.85-.31,6.7,6.7,0,0,0,.27-2c0-1.89-.6-2.83-1.82-2.83C182.2,32.62,181.61,33.19,181.35,34.34Z"/><path class="cls-3" d="M103,45V47.4a3.15,3.15,0,0,1-3.14,3.15h0a3.15,3.15,0,0,1-3.1-3.18V45Z"/><path class="cls-4" d="M107.05,36.24v0c0-.17.08-.34.12-.51s0-.18,0-.27,0-.23.05-.34,0-.45,0-.68a7.34,7.34,0,0,0-1.23-4.11,7.54,7.54,0,0,0-1.41-1.57c-.19-.15-.37-.29-.57-.43a7.82,7.82,0,0,0-1.24-.68,7.14,7.14,0,0,0-1.38-.43A7.21,7.21,0,0,0,100,27a8,8,0,0,0-1.48.14,7.88,7.88,0,0,0-1.38.42,7.28,7.28,0,0,0-1.26.68c-.19.13-.38.27-.56.42a7.32,7.32,0,0,0-2.71,5.65c0,.23,0,.46,0,.68s0,.22,0,.34a2.51,2.51,0,0,0,0,.27,4.19,4.19,0,0,0,.11.51v0a7.25,7.25,0,0,0,1.65,3.11,9.19,9.19,0,0,1,2.11,4.59A8,8,0,0,0,96.77,45H100L103,45a10,10,0,0,0,.2-1.09,9.07,9.07,0,0,1,2.15-4.56A7.44,7.44,0,0,0,107.05,36.24Z"/><path class="cls-5" d="M101.62,44.63l-.44,0a8.37,8.37,0,0,1,.7-5.06,2,2,0,0,1-1-.34,1.28,1.28,0,0,1-1,.5h-.15a1.27,1.27,0,0,1-1-.51,2,2,0,0,1-1,.33,8.46,8.46,0,0,1,.65,5.07l-.44,0c.18-1.74.23-3.71-.81-5.14L96.84,39l.56.13a1.49,1.49,0,0,0,1.14-.24,1.34,1.34,0,0,1-.07-.18,2.34,2.34,0,0,1,.1-1.7c.17-.3.37-.33.5-.3.34.07.48.61.5.8a1.93,1.93,0,0,1-.44,1.43l0,0a.85.85,0,0,0,.65.36h.16a.89.89,0,0,0,.65-.35l0,0a2,2,0,0,1-.42-1.44c0-.18.16-.72.5-.79.14,0,.33,0,.5.3a2.34,2.34,0,0,1,.09,1.7,1.42,1.42,0,0,1-.08.18,1.5,1.5,0,0,0,1.14.25l.56-.12-.34.46C101.43,40.92,101.45,42.89,101.62,44.63Zm-.93-7.45a.89.89,0,0,0-.15.38,1.46,1.46,0,0,0,.25,1,1.87,1.87,0,0,0-.06-1.32Zm-1.7,0,0,.06a1.87,1.87,0,0,0-.07,1.32,1.45,1.45,0,0,0,.25-1A.82.82,0,0,0,99,37.17Z"/><path class="cls-6" d="M103.09,46.28H103l-6.27,0a.26.26,0,1,1,0-.51l6.26,0a.25.25,0,0,1,.25.25A.26.26,0,0,1,103.09,46.28Z"/><path class="cls-6" d="M103.08,47.46H103l-6.26,0a.26.26,0,0,1-.25-.26.25.25,0,0,1,.25-.25L103,47a.26.26,0,0,1,.25.26A.26.26,0,0,1,103.08,47.46Z"/><path class="cls-7" d="M98,49.88a3,3,0,0,0,1.89.67h0a3.05,3.05,0,0,0,1.9-.65,14.35,14.35,0,0,1-1.9.1A14.08,14.08,0,0,1,98,49.88Z"/><path class="cls-5" d="M105.32,33.49a1.85,1.85,0,1,1-3.57.64,1.85,1.85,0,1,1,3.57-.64Z"/><path class="cls-5" d="M102.45,30.24a.68.68,0,1,1-.88-.55A.73.73,0,0,1,102.45,30.24Z"/><path class="cls-1" d="M222.16,19.66a14.69,14.69,0,0,1-5.81,10.23,15.37,15.37,0,0,1-5.87,2.24,40.74,40.74,0,0,1-6.77.88,32.16,32.16,0,0,1-3.54,0,2.84,2.84,0,0,0-2.16.81c-2.67,2.61-7.46,2.79-7.46,2.79a4,4,0,0,0,1.63-1.05,2.88,2.88,0,0,0-.71-4.45l-.12-.08-.08-.06c-3.42-2.2-3.56-6.63-3.58-10.28q0-.88,0-1.77c0-.51,0-1,0-1.54a23,23,0,0,1,1.71-8.66,11.14,11.14,0,0,1,3.44-4.14A17.21,17.21,0,0,1,198.81,2,48.69,48.69,0,0,1,212.49,0a12.34,12.34,0,0,1,5.8,1.28,6.42,6.42,0,0,1,2.29,2.34,11.65,11.65,0,0,1,1.07,2.42C223,10.4,222.74,15.18,222.16,19.66Z"/><path class="cls-5" d="M198.62,10.35V12H196.3V24.18h-2V12H192V10.35Z"/><path class="cls-5" d="M199.66,11.34v-2h2.08v2Zm2,12.84h-2V13.4h2Z"/><path class="cls-5" d="M207,13.4h.78a1.75,1.75,0,0,1,2,2v6.87a1.75,1.75,0,0,1-2,1.95H207a1.27,1.27,0,0,1-1.36-.86v3.91h-2V13.4h2v.86A1.27,1.27,0,0,1,207,13.4Zm.8,8.52V15.65a.72.72,0,0,0-.13-.52.84.84,0,0,0-.53-.12h-.78a.74.74,0,0,0-.56.18.83.83,0,0,0-.16.59v6a.88.88,0,0,0,.16.6.74.74,0,0,0,.56.17h.78a.84.84,0,0,0,.53-.12A.71.71,0,0,0,207.79,21.92Z"/><path class="cls-5" d="M215.19,22V20.22a.8.8,0,0,0-.13-.52.84.84,0,0,0-.53-.12H213.4c-1.37,0-2.05-.64-2.05-1.94V15.36c0-1.31.68-2,2.05-2H215c1.39,0,2.08.65,2.08,2v1h-2v-.84A.72.72,0,0,0,215,15a.82.82,0,0,0-.53-.12H214a.84.84,0,0,0-.53.12.72.72,0,0,0-.13.52v1.86a.72.72,0,0,0,.13.52.84.84,0,0,0,.53.12h1.15c1.36,0,2,.65,2,2v2.21c0,1.3-.68,1.95-2,1.95h-1.64c-1.37,0-2.05-.65-2.05-1.95V21.17h1.94V22a.7.7,0,0,0,.14.52.8.8,0,0,0,.53.12h.53a.84.84,0,0,0,.53-.12A.76.76,0,0,0,215.19,22Z"/></g></g></svg>